Literata-M4.ufo
<glyph name="exclam" format="2">
	<unicode hex="0021"/>
	<advance width="352"/>
	<outline>
		<contour>
			<point x="113" y="230" type="line"/>
			<point x="240" y="230" type="line"/>
			<point x="240" y="293" type="line" smooth="yes"/>
			<point x="240" y="435"/>
			<point x="302" y="534"/>
			<point x="302" y="621" type="curve" smooth="yes"/>
			<point x="302" y="688"/>
			<point x="252" y="714"/>
			<point x="179" y="714" type="curve" smooth="yes"/>
			<point x="119" y="714"/>
			<point x="55" y="692"/>
			<point x="55" y="618" type="curve" smooth="yes"/>
			<point x="55" y="534"/>
			<point x="113" y="451"/>
			<point x="113" y="294" type="curve" smooth="yes"/>
		</contour>
		<contour>
			<point x="177" y="-15" type="curve" smooth="yes"/>
			<point x="244" y="-15"/>
			<point x="285" y="21"/>
			<point x="285" y="76" type="curve" smooth="yes"/>
			<point x="285" y="132"/>
			<point x="248" y="167"/>
			<point x="177" y="167" type="curve" smooth="yes"/>
			<point x="107" y="167"/>
			<point x="68" y="131"/>
			<point x="68" y="77" type="curve" smooth="yes"/>
			<point x="68" y="20"/>
			<point x="108" y="-15"/>
		</contour>
	</outline>
</glyph>
<glyph name="ampersand" format="2">
	<unicode hex="0026"/>
	<advance width="862"/>
	<outline>
		<contour>
			<point x="267" y="-14" type="curve" smooth="yes"/>
			<point x="367" y="-14"/>
			<point x="440" y="17"/>
			<point x="482" y="59" type="curve"/>
			<point x="537" y="13"/>
			<point x="598" y="-9"/>
			<point x="664" y="-9" type="curve" smooth="yes"/>
			<point x="736" y="-9"/>
			<point x="794" y="35"/>
			<point x="842" y="83" type="curve"/>
			<point x="812" y="161" type="line"/>
			<point x="791" y="147"/>
			<point x="759" y="132"/>
			<point x="730" y="132" type="curve" smooth="yes"/>
			<point x="678" y="132"/>
			<point x="645" y="153"/>
			<point x="576" y="226" type="curve"/>
			<point x="595" y="302"/>
			<point x="625" y="361"/>
			<point x="672" y="398" type="curve"/>
			<point x="692" y="345"/>
			<point x="710" y="299"/>
			<point x="762" y="299" type="curve" smooth="yes"/>
			<point x="816" y="299"/>
			<point x="842" y="351"/>
			<point x="842" y="402" type="curve" smooth="yes"/>
			<point x="842" y="460"/>
			<point x="794" y="508"/>
			<point x="716" y="508" type="curve" smooth="yes"/>
			<point x="635" y="508"/>
			<point x="548" y="431"/>
			<point x="501" y="304" type="curve"/>
			<point x="413" y="400" type="line"/>
			<point x="482" y="426"/>
			<point x="546" y="486"/>
			<point x="546" y="560" type="curve" smooth="yes"/>
			<point x="546" y="654"/>
			<point x="470" y="717"/>
			<point x="335" y="717" type="curve" smooth="yes"/>
			<point x="223" y="717"/>
			<point x="96" y="663"/>
			<point x="96" y="537" type="curve" smooth="yes"/>
			<point x="96" y="474"/>
			<point x="125" y="425"/>
			<point x="183" y="364" type="curve"/>
			<point x="73" y="322"/>
			<point x="25" y="257"/>
			<point x="25" y="181" type="curve" smooth="yes"/>
			<point x="25" y="43"/>
			<point x="137" y="-14"/>
		</contour>
		<contour>
			<point x="326" y="107" type="curve" smooth="yes"/>
			<point x="275" y="107"/>
			<point x="216" y="145"/>
			<point x="216" y="219" type="curve" smooth="yes"/>
			<point x="216" y="249"/>
			<point x="225" y="272"/>
			<point x="244" y="296" type="curve"/>
			<point x="404" y="128" type="line"/>
			<point x="385" y="115"/>
			<point x="363" y="107"/>
		</contour>
		<contour>
			<point x="354" y="458" type="curve"/>
			<point x="311" y="499"/>
			<point x="281" y="533"/>
			<point x="281" y="580" type="curve" smooth="yes"/>
			<point x="281" y="607"/>
			<point x="298" y="636"/>
			<point x="343" y="636" type="curve" smooth="yes"/>
			<point x="382" y="636"/>
			<point x="409" y="612"/>
			<point x="409" y="578" type="curve" smooth="yes"/>
			<point x="409" y="544"/>
			<point x="392" y="500"/>
		</contour>
	</outline>
</glyph>
<glyph name="parenleft" format="2">
	<unicode hex="0028"/>
	<advance width="381"/>
	<outline>
		<contour>
			<point x="264" y="-225" type="curve"/>
			<point x="350" y="-175" type="line"/>
			<point x="286" y="-30"/>
			<point x="246" y="151"/>
			<point x="246" y="325" type="curve" smooth="yes"/>
			<point x="246" y="480"/>
			<point x="279" y="665"/>
			<point x="350" y="787" type="curve"/>
			<point x="266" y="839" type="line"/>
			<point x="126" y="701"/>
			<point x="14" y="547"/>
			<point x="14" y="340" type="curve" smooth="yes"/>
			<point x="14" y="120"/>
			<point x="105" y="-53"/>
		</contour>
	</outline>
</glyph>
<glyph name="comma" format="2">
	<unicode hex="002C"/>
	<advance width="324"/>
	<outline>
		<contour>
			<point x="109" y="-180" type="line"/>
			<point x="225" y="-118"/>
			<point x="279" y="-22"/>
			<point x="279" y="71" type="curve" smooth="yes"/>
			<point x="279" y="143"/>
			<point x="234" y="184"/>
			<point x="159" y="184" type="curve" smooth="yes"/>
			<point x="90" y="184"/>
			<point x="45" y="147"/>
			<point x="45" y="86" type="curve" smooth="yes"/>
			<point x="45" y="12"/>
			<point x="106" y="-7"/>
			<point x="141" y="-7" type="curve" smooth="yes"/>
			<point x="146" y="-7" type="line"/>
			<point x="140" y="-46"/>
			<point x="107" y="-79"/>
			<point x="59" y="-113" type="curve"/>
		</contour>
	</outline>
</glyph>
<glyph name="zero" format="2">
	<unicode hex="0030"/>
	<advance width="653"/>
	<outline>
		<contour>
			<point x="329" y="-14" type="curve" smooth="yes"/>
			<point x="520" y="-14"/>
			<point x="623" y="117"/>
			<point x="623" y="366" type="curve" smooth="yes"/>
			<point x="623" y="605"/>
			<point x="512" y="714"/>
			<point x="331" y="714" type="curve" smooth="yes"/>
			<point x="179" y="714"/>
			<point x="30" y="622"/>
			<point x="30" y="344" type="curve" smooth="yes"/>
			<point x="30" y="138"/>
			<point x="111" y="-14"/>
		</contour>
		<contour>
			<point x="334" y="102" type="curve" smooth="yes"/>
			<point x="284" y="102"/>
			<point x="265" y="171"/>
			<point x="265" y="363" type="curve" smooth="yes"/>
			<point x="265" y="565"/>
			<point x="282" y="598"/>
			<point x="326" y="598" type="curve" smooth="yes"/>
			<point x="374" y="598"/>
			<point x="390" y="556"/>
			<point x="390" y="355" type="curve" smooth="yes"/>
			<point x="390" y="156"/>
			<point x="377" y="102"/>
		</contour>
	</outline>
</glyph>
<glyph name="one" format="2">
	<unicode hex="0031"/>
	<advance width="421"/>
	<outline>
		<contour>
			<point x="18" y="0" type="line"/>
			<point x="411" y="0" type="line"/>
			<point x="411" y="98" type="line"/>
			<point x="365" y="105" type="line" smooth="yes"/>
			<point x="348" y="108"/>
			<point x="338" y="116"/>
			<point x="338" y="147" type="curve"/>
			<point x="338" y="691" type="line"/>
			<point x="308" y="711" type="line"/>
			<point x="22" y="675" type="line"/>
			<point x="10" y="578" type="line"/>
			<point x="70" y="568" type="line" smooth="yes"/>
			<point x="100" y="563"/>
			<point x="103" y="556"/>
			<point x="103" y="532" type="curve" smooth="yes"/>
			<point x="103" y="150" type="line"/>
			<point x="103" y="118"/>
			<point x="96" y="108"/>
			<point x="79" y="106" type="curve" smooth="yes"/>
			<point x="18" y="98" type="line"/>
		</contour>
	</outline>
</glyph>
<glyph name="four" format="2">
	<unicode hex="0034"/>
	<advance width="654"/>
	<outline>
		<contour>
			<point x="233" y="0" type="line"/>
			<point x="626" y="0" type="line"/>
			<point x="626" y="93" type="line"/>
			<point x="591" y="98" type="line" smooth="yes"/>
			<point x="567" y="101"/>
			<point x="553" y="108"/>
			<point x="553" y="131" type="curve" smooth="yes"/>
			<point x="553" y="158" type="line"/>
			<point x="639" y="158" type="line"/>
			<point x="639" y="281" type="line"/>
			<point x="553" y="281" type="line"/>
			<point x="553" y="691" type="line"/>
			<point x="523" y="711" type="line"/>
			<point x="318" y="690" type="line"/>
			<point x="10" y="254" type="line"/>
			<point x="24" y="158" type="line"/>
			<point x="318" y="158" type="line"/>
			<point x="318" y="141" type="line" smooth="yes"/>
			<point x="318" y="118"/>
			<point x="315" y="103"/>
			<point x="282" y="99" type="curve" smooth="yes"/>
			<point x="233" y="93" type="line"/>
		</contour>
		<contour>
			<point x="150" y="281" type="line"/>
			<point x="315" y="515" type="line"/>
			<point x="318" y="515" type="line"/>
			<point x="318" y="281" type="line"/>
		</contour>
	</outline>
</glyph>
<glyph name="seven" format="2">
	<unicode hex="0037"/>
	<advance width="579"/>
	<outline>
		<contour>
			<point x="198" y="-14" type="line"/>
			<point x="389" y="5" type="line"/>
			<point x="366" y="312"/>
			<point x="446" y="461"/>
			<point x="584" y="590" type="curve"/>
			<point x="570" y="700" type="line"/>
			<point x="39" y="700" type="line"/>
			<point x="25" y="455" type="line"/>
			<point x="157" y="455" type="line"/>
			<point x="174" y="560"/>
			<point x="181" y="562"/>
			<point x="230" y="562" type="curve" smooth="yes"/>
			<point x="414" y="562" type="line"/>
			<point x="234" y="411"/>
			<point x="160" y="263"/>
			<point x="169" y="0" type="curve"/>
		</contour>
	</outline>
</glyph>
<glyph name="eight" format="2">
	<unicode hex="0038"/>
	<advance width="626"/>
	<outline>
		<contour>
			<point x="287" y="-16" type="curve" smooth="yes"/>
			<point x="474" y="-16"/>
			<point x="611" y="58"/>
			<point x="611" y="207" type="curve" smooth="yes"/>
			<point x="611" y="281"/>
			<point x="581" y="346"/>
			<point x="464" y="402" type="curve"/>
			<point x="539" y="443"/>
			<point x="579" y="488"/>
			<point x="579" y="555" type="curve" smooth="yes"/>
			<point x="579" y="650"/>
			<point x="503" y="714"/>
			<point x="327" y="714" type="curve" smooth="yes"/>
			<point x="124" y="714"/>
			<point x="45" y="614"/>
			<point x="45" y="521" type="curve" smooth="yes"/>
			<point x="45" y="437"/>
			<point x="85" y="388"/>
			<point x="159" y="345" type="curve"/>
			<point x="59" y="300"/>
			<point x="13" y="245"/>
			<point x="13" y="166" type="curve" smooth="yes"/>
			<point x="13" y="45"/>
			<point x="117" y="-16"/>
		</contour>
		<contour>
			<point x="306" y="110" type="curve" smooth="yes"/>
			<point x="259" y="110"/>
			<point x="215" y="131"/>
			<point x="215" y="190" type="curve" smooth="yes"/>
			<point x="215" y="222"/>
			<point x="226" y="254"/>
			<point x="263" y="292" type="curve"/>
			<point x="349" y="258"/>
			<point x="385" y="237"/>
			<point x="385" y="188" type="curve" smooth="yes"/>
			<point x="385" y="139"/>
			<point x="353" y="110"/>
		</contour>
		<contour>
			<point x="352" y="452" type="curve"/>
			<point x="265" y="493"/>
			<point x="254" y="514"/>
			<point x="254" y="548" type="curve" smooth="yes"/>
			<point x="254" y="582"/>
			<point x="280" y="602"/>
			<point x="317" y="602" type="curve" smooth="yes"/>
			<point x="356" y="602"/>
			<point x="383" y="586"/>
			<point x="383" y="541" type="curve" smooth="yes"/>
			<point x="383" y="518"/>
			<point x="374" y="484"/>
		</contour>
	</outline>
</glyph>
<glyph name="nine" format="2">
	<unicode hex="0039"/>
	<advance width="628"/>
	<outline>
		<contour>
			<point x="293" y="-14" type="curve" smooth="yes"/>
			<point x="499" y="-14"/>
			<point x="598" y="118"/>
			<point x="598" y="393" type="curve" smooth="yes"/>
			<point x="598" y="584"/>
			<point x="515" y="714"/>
			<point x="310" y="714" type="curve" smooth="yes"/>
			<point x="147" y="714"/>
			<point x="25" y="634"/>
			<point x="25" y="460" type="curve" smooth="yes"/>
			<point x="25" y="323"/>
			<point x="105" y="242"/>
			<point x="249" y="242" type="curve" smooth="yes"/>
			<point x="289" y="242"/>
			<point x="338" y="254"/>
			<point x="370" y="283" type="curve"/>
			<point x="364" y="174"/>
			<point x="330" y="139"/>
			<point x="262" y="139" type="curve" smooth="yes"/>
			<point x="206" y="139"/>
			<point x="151" y="158"/>
			<point x="101" y="191" type="curve"/>
			<point x="40" y="61" type="line"/>
			<point x="115" y="13"/>
			<point x="193" y="-14"/>
		</contour>
		<contour>
			<point x="304" y="359" type="curve" smooth="yes"/>
			<point x="271" y="359"/>
			<point x="245" y="384"/>
			<point x="245" y="491" type="curve" smooth="yes"/>
			<point x="245" y="570"/>
			<point x="272" y="600"/>
			<point x="308" y="600" type="curve" smooth="yes"/>
			<point x="353" y="600"/>
			<point x="369" y="554"/>
			<point x="369" y="473" type="curve" smooth="yes"/>
			<point x="369" y="391"/>
			<point x="342" y="359"/>
		</contour>
	</outline>
</glyph>
<glyph name="semicolon" format="2">
	<unicode hex="003B"/>
	<advance width="325"/>
	<outline>
		<contour>
			<point x="109" y="-180" type="line"/>
			<point x="225" y="-118"/>
			<point x="279" y="-22"/>
			<point x="279" y="71" type="curve" smooth="yes"/>
			<point x="279" y="143"/>
			<point x="234" y="184"/>
			<point x="159" y="184" type="curve" smooth="yes"/>
			<point x="90" y="184"/>
			<point x="45" y="147"/>
			<point x="45" y="86" type="curve" smooth="yes"/>
			<point x="45" y="12"/>
			<point x="106" y="-7"/>
			<point x="141" y="-7" type="curve" smooth="yes"/>
			<point x="146" y="-7" type="line"/>
			<point x="140" y="-46"/>
			<point x="107" y="-79"/>
			<point x="59" y="-113" type="curve"/>
		</contour>
		<contour>
			<point x="163" y="333" type="curve" smooth="yes"/>
			<point x="235" y="333"/>
			<point x="280" y="372"/>
			<point x="280" y="432" type="curve" smooth="yes"/>
			<point x="280" y="493"/>
			<point x="240" y="531"/>
			<point x="163" y="531" type="curve" smooth="yes"/>
			<point x="87" y="531"/>
			<point x="45" y="492"/>
			<point x="45" y="433" type="curve" smooth="yes"/>
			<point x="45" y="371"/>
			<point x="88" y="333"/>
		</contour>
	</outline>
</glyph>
<glyph name="greater" format="2">
	<unicode hex="003E"/>
	<advance width="582"/>
	<outline>
		<contour>
			<point x="164" y="37" type="line"/>
			<point x="502" y="243" type="line"/>
			<point x="502" y="325" type="line"/>
			<point x="164" y="532" type="line"/>
			<point x="91" y="410" type="line"/>
			<point x="302" y="285" type="line"/>
			<point x="91" y="161" type="line"/>
		</contour>
	</outline>
</glyph>
<glyph name="at" format="2">
	<unicode hex="0040"/>
	<advance width="1040"/>
	<outline>
		<contour>
			<point x="394" y="-218" type="curve" smooth="yes"/>
			<point x="525" y="-218"/>
			<point x="630" y="-172"/>
			<point x="684" y="-126" type="curve"/>
			<point x="634" y="-52" type="line"/>
			<point x="583" y="-84"/>
			<point x="523" y="-106"/>
			<point x="431" y="-106" type="curve" smooth="yes"/>
			<point x="289" y="-106"/>
			<point x="192" y="-38"/>
			<point x="192" y="158" type="curve" smooth="yes"/>
			<point x="192" y="383"/>
			<point x="329" y="515"/>
			<point x="548" y="515" type="curve" smooth="yes"/>
			<point x="782" y="515"/>
			<point x="859" y="416"/>
			<point x="859" y="255" type="curve" smooth="yes"/>
			<point x="859" y="141"/>
			<point x="805" y="56"/>
			<point x="761" y="56" type="curve" smooth="yes"/>
			<point x="730" y="56"/>
			<point x="730" y="79"/>
			<point x="734" y="109" type="curve" smooth="yes"/>
			<point x="773" y="396" type="line"/>
			<point x="754" y="402" type="line"/>
			<point x="667" y="373" type="line"/>
			<point x="615" y="406"/>
			<point x="560" y="426"/>
			<point x="509" y="426" type="curve" smooth="yes"/>
			<point x="387" y="426"/>
			<point x="276" y="338"/>
			<point x="276" y="139" type="curve" smooth="yes"/>
			<point x="276" y="70"/>
			<point x="308" y="-27"/>
			<point x="438" y="-27" type="curve" smooth="yes"/>
			<point x="502" y="-27"/>
			<point x="572" y="7"/>
			<point x="605" y="133" type="curve" smooth="yes"/>
			<point x="622" y="198" type="line"/>
			<point x="630" y="197" type="line"/>
			<point x="613" y="86" type="line" smooth="yes"/>
			<point x="601" y="7"/>
			<point x="649" y="-27"/>
			<point x="733" y="-27" type="curve" smooth="yes"/>
			<point x="882" y="-27"/>
			<point x="990" y="77"/>
			<point x="990" y="277" type="curve" smooth="yes"/>
			<point x="990" y="497"/>
			<point x="836" y="619"/>
			<point x="566" y="619" type="curve" smooth="yes"/>
			<point x="223" y="619"/>
			<point x="60" y="401"/>
			<point x="60" y="129" type="curve" smooth="yes"/>
			<point x="60" y="-114"/>
			<point x="217" y="-218"/>
		</contour>
		<contour>
			<point x="474" y="60" type="curve" smooth="yes"/>
			<point x="447" y="60"/>
			<point x="441" y="94"/>
			<point x="441" y="139" type="curve" smooth="yes"/>
			<point x="441" y="255"/>
			<point x="501" y="344"/>
			<point x="552" y="344" type="curve" smooth="yes"/>
			<point x="573" y="344"/>
			<point x="589" y="336"/>
			<point x="611" y="327" type="curve"/>
			<point x="549" y="150" type="line" smooth="yes"/>
			<point x="525" y="81"/>
			<point x="503" y="60"/>
		</contour>
	</outline>
</glyph>
<glyph name="A" format="2">
	<unicode hex="0041"/>
	<advance width="776"/>
	<outline>
		<contour>
			<point x="0" y="0" type="line"/>
			<point x="284" y="0" type="line"/>
			<point x="284" y="99" type="line"/>
			<point x="253" y="104" type="line" smooth="yes"/>
			<point x="212" y="111"/>
			<point x="218" y="134"/>
			<point x="227" y="162" type="curve" smooth="yes"/>
			<point x="236" y="190" type="line"/>
			<point x="442" y="190" type="line"/>
			<point x="451" y="158" type="line" smooth="yes"/>
			<point x="459" y="129"/>
			<point x="455" y="111"/>
			<point x="432" y="107" type="curve" smooth="yes"/>
			<point x="397" y="101" type="line"/>
			<point x="397" y="0" type="line"/>
			<point x="776" y="0" type="line"/>
			<point x="776" y="98" type="line"/>
			<point x="747" y="103" type="line" smooth="yes"/>
			<point x="722" y="107"/>
			<point x="712" y="116"/>
			<point x="697" y="157" type="curve" smooth="yes"/>
			<point x="499" y="700" type="line"/>
			<point x="280" y="700" type="line"/>
			<point x="84" y="163" type="line" smooth="yes"/>
			<point x="72" y="131"/>
			<point x="59" y="115"/>
			<point x="33" y="109" type="curve" smooth="yes"/>
			<point x="0" y="101" type="line"/>
		</contour>
		<contour>
			<point x="272" y="299" type="line"/>
			<point x="345" y="522" type="line"/>
			<point x="348" y="522" type="line"/>
			<point x="412" y="299" type="line"/>
		</contour>
	</outline>
	<anchor name="bottom" x="366" y="-30"/>
	<anchor name="top" x="387" y="730"/>
</glyph>
<glyph name="C" format="2">
	<unicode hex="0043"/>
	<advance width="721"/>
	<outline>
		<contour>
			<point x="378" y="-14" type="curve" smooth="yes"/>
			<point x="552" y="-14"/>
			<point x="646" y="70"/>
			<point x="689" y="116" type="curve"/>
			<point x="621" y="214" type="line"/>
			<point x="595" y="191"/>
			<point x="528" y="147"/>
			<point x="445" y="147" type="curve" smooth="yes"/>
			<point x="368" y="147"/>
			<point x="277" y="181"/>
			<point x="277" y="379" type="curve" smooth="yes"/>
			<point x="277" y="503"/>
			<point x="318" y="581"/>
			<point x="415" y="581" type="curve" smooth="yes"/>
			<point x="477" y="581"/>
			<point x="531" y="546"/>
			<point x="569" y="437" type="curve"/>
			<point x="681" y="458" type="line"/>
			<point x="643" y="714" type="line"/>
			<point x="559" y="714" type="line"/>
			<point x="546" y="667" type="line"/>
			<point x="503" y="696"/>
			<point x="458" y="714"/>
			<point x="393" y="714" type="curve" smooth="yes"/>
			<point x="172" y="714"/>
			<point x="35" y="569"/>
			<point x="35" y="345" type="curve" smooth="yes"/>
			<point x="35" y="111"/>
			<point x="167" y="-14"/>
		</contour>
	</outline>
	<anchor name="bottom" x="388" y="-30"/>
	<anchor name="top" x="379" y="730"/>
</glyph>
<glyph name="F" format="2">
	<unicode hex="0046"/>
	<advance width="664"/>
	<outline>
		<contour>
			<point x="36" y="0" type="line"/>
			<point x="441" y="0" type="line"/>
			<point x="441" y="100" type="line"/>
			<point x="370" y="107" type="line" smooth="yes"/>
			<point x="330" y="111"/>
			<point x="330" y="123"/>
			<point x="330" y="160" type="curve" smooth="yes"/>
			<point x="330" y="276" type="line"/>
			<point x="351" y="276" type="line" smooth="yes"/>
			<point x="386" y="276"/>
			<point x="398" y="261"/>
			<point x="407" y="203" type="curve"/>
			<point x="501" y="217" type="line"/>
			<point x="501" y="459" type="line"/>
			<point x="408" y="453" type="line"/>
			<point x="397" y="400"/>
			<point x="389" y="387"/>
			<point x="355" y="387" type="curve" smooth="yes"/>
			<point x="330" y="387" type="line"/>
			<point x="330" y="586" type="line"/>
			<point x="412" y="586" type="line" smooth="yes"/>
			<point x="490" y="586"/>
			<point x="506" y="563"/>
			<point x="526" y="467" type="curve"/>
			<point x="649" y="481" type="line"/>
			<point x="621" y="700" type="line"/>
			<point x="36" y="700" type="line"/>
			<point x="36" y="602" type="line"/>
			<point x="62" y="598" type="line" smooth="yes"/>
			<point x="88" y="594"/>
			<point x="95" y="582"/>
			<point x="95" y="550" type="curve" smooth="yes"/>
			<point x="95" y="156" type="line" smooth="yes"/>
			<point x="95" y="116"/>
			<point x="89" y="109"/>
			<point x="64" y="104" type="curve" smooth="yes"/>
			<point x="36" y="98" type="line"/>
		</contour>
	</outline>
</glyph>
<glyph name="I" format="2">
	<unicode hex="0049"/>
	<advance width="425"/>
	<outline>
		<contour>
			<point x="36" y="0" type="line"/>
			<point x="389" y="0" type="line"/>
			<point x="389" y="98" type="line"/>
			<point x="362" y="104" type="line" smooth="yes"/>
			<point x="333" y="111"/>
			<point x="330" y="116"/>
			<point x="330" y="151" type="curve" smooth="yes"/>
			<point x="330" y="546" type="line" smooth="yes"/>
			<point x="330" y="583"/>
			<point x="337" y="591"/>
			<point x="360" y="596" type="curve" smooth="yes"/>
			<point x="389" y="602" type="line"/>
			<point x="389" y="700" type="line"/>
			<point x="36" y="700" type="line"/>
			<point x="36" y="602" type="line"/>
			<point x="61" y="598" type="line" smooth="yes"/>
			<point x="90" y="593"/>
			<point x="95" y="583"/>
			<point x="95" y="549" type="curve" smooth="yes"/>
			<point x="95" y="154" type="line" smooth="yes"/>
			<point x="95" y="122"/>
			<point x="92" y="110"/>
			<point x="65" y="104" type="curve" smooth="yes"/>
			<point x="36" y="98" type="line"/>
		</contour>
	</outline>
	<anchor name="bottom" x="206" y="-30"/>
	<anchor name="top" x="214" y="730"/>
</glyph>
<glyph name="J" format="2">
	<unicode hex="004A"/>
	<advance width="594"/>
	<outline>
		<contour>
			<point x="245" y="-14" type="curve" smooth="yes"/>
			<point x="421" y="-14"/>
			<point x="521" y="71"/>
			<point x="521" y="252" type="curve" smooth="yes"/>
			<point x="521" y="547" type="line" smooth="yes"/>
			<point x="521" y="579"/>
			<point x="527" y="591"/>
			<point x="551" y="596" type="curve" smooth="yes"/>
			<point x="580" y="602" type="line"/>
			<point x="580" y="700" type="line"/>
			<point x="197" y="700" type="line"/>
			<point x="197" y="598" type="line"/>
			<point x="252" y="592" type="line" smooth="yes"/>
			<point x="281" y="589"/>
			<point x="286" y="575"/>
			<point x="286" y="540" type="curve" smooth="yes"/>
			<point x="286" y="202" type="line" smooth="yes"/>
			<point x="286" y="149"/>
			<point x="270" y="103"/>
			<point x="223" y="103" type="curve" smooth="yes"/>
			<point x="199" y="103"/>
			<point x="183" y="109"/>
			<point x="166" y="121" type="curve"/>
			<point x="189" y="156"/>
			<point x="202" y="185"/>
			<point x="202" y="218" type="curve" smooth="yes"/>
			<point x="202" y="252"/>
			<point x="167" y="279"/>
			<point x="116" y="279" type="curve" smooth="yes"/>
			<point x="51" y="279"/>
			<point x="5" y="239"/>
			<point x="5" y="152" type="curve" smooth="yes"/>
			<point x="5" y="49"/>
			<point x="118" y="-14"/>
		</contour>
	</outline>
	<anchor name="top" x="385" y="730"/>
</glyph>
<glyph name="L" format="2">
	<unicode hex="004C"/>
	<advance width="661"/>
	<outline>
		<contour>
			<point x="36" y="0" type="line"/>
			<point x="613" y="0" type="line"/>
			<point x="641" y="270" type="line"/>
			<point x="508" y="270" type="line"/>
			<point x="477" y="158"/>
			<point x="459" y="122"/>
			<point x="388" y="122" type="curve" smooth="yes"/>
			<point x="330" y="122" type="line"/>
			<point x="330" y="550" type="line" smooth="yes"/>
			<point x="330" y="582"/>
			<point x="337" y="593"/>
			<point x="365" y="597" type="curve" smooth="yes"/>
			<point x="408" y="603" type="line"/>
			<point x="408" y="700" type="line"/>
			<point x="36" y="700" type="line"/>
			<point x="36" y="602" type="line"/>
			<point x="63" y="598" type="line" smooth="yes"/>
			<point x="86" y="595"/>
			<point x="95" y="584"/>
			<point x="95" y="550" type="curve" smooth="yes"/>
			<point x="95" y="155" type="line" smooth="yes"/>
			<point x="95" y="115"/>
			<point x="89" y="109"/>
			<point x="65" y="104" type="curve" smooth="yes"/>
			<point x="36" y="98" type="line"/>
		</contour>
	</outline>
	<anchor name="bottom" x="323" y="-30"/>
	<anchor name="top" x="206" y="730"/>
</glyph>
<glyph name="O" format="2">
	<unicode hex="004F"/>
	<advance width="794"/>
	<outline>
		<contour>
			<point x="389" y="-14" type="curve" smooth="yes"/>
			<point x="646" y="-14"/>
			<point x="759" y="161"/>
			<point x="759" y="366" type="curve" smooth="yes"/>
			<point x="759" y="597"/>
			<point x="622" y="714"/>
			<point x="414" y="714" type="curve" smooth="yes"/>
			<point x="188" y="714"/>
			<point x="35" y="586"/>
			<point x="35" y="340" type="curve" smooth="yes"/>
			<point x="35" y="139"/>
			<point x="136" y="-14"/>
		</contour>
		<contour>
			<point x="401" y="120" type="curve" smooth="yes"/>
			<point x="314" y="120"/>
			<point x="280" y="193"/>
			<point x="280" y="357" type="curve" smooth="yes"/>
			<point x="280" y="534"/>
			<point x="318" y="581"/>
			<point x="394" y="581" type="curve" smooth="yes"/>
			<point x="475" y="581"/>
			<point x="514" y="513"/>
			<point x="514" y="350" type="curve" smooth="yes"/>
			<point x="514" y="162"/>
			<point x="474" y="120"/>
		</contour>
	</outline>
	<anchor name="bottom" x="398" y="-30"/>
	<anchor name="top" x="398" y="730"/>
	<guideline x="398" y="380" angle="90"/>
</glyph>
<glyph name="P" format="2">
	<unicode hex="0050"/>
	<advance width="705"/>
	<outline>
		<contour>
			<point x="36" y="0" type="line"/>
			<point x="441" y="0" type="line"/>
			<point x="441" y="98" type="line"/>
			<point x="370" y="106" type="line" smooth="yes"/>
			<point x="330" y="111"/>
			<point x="330" y="122"/>
			<point x="330" y="159" type="curve" smooth="yes"/>
			<point x="330" y="248" type="line"/>
			<point x="344" y="245"/>
			<point x="384" y="243"/>
			<point x="417" y="243" type="curve" smooth="yes"/>
			<point x="484" y="243"/>
			<point x="685" y="273"/>
			<point x="685" y="486" type="curve" smooth="yes"/>
			<point x="685" y="667"/>
			<point x="543" y="700"/>
			<point x="394" y="700" type="curve" smooth="yes"/>
			<point x="36" y="700" type="line"/>
			<point x="36" y="602" type="line"/>
			<point x="61" y="598" type="line" smooth="yes"/>
			<point x="90" y="593"/>
			<point x="95" y="581"/>
			<point x="95" y="550" type="curve" smooth="yes"/>
			<point x="95" y="156" type="line" smooth="yes"/>
			<point x="95" y="116"/>
			<point x="89" y="109"/>
			<point x="64" y="104" type="curve" smooth="yes"/>
			<point x="36" y="98" type="line"/>
		</contour>
		<contour>
			<point x="363" y="370" type="curve" smooth="yes"/>
			<point x="349" y="370"/>
			<point x="340" y="371"/>
			<point x="330" y="372" type="curve"/>
			<point x="330" y="586" type="line"/>
			<point x="365" y="586" type="line" smooth="yes"/>
			<point x="421" y="586"/>
			<point x="451" y="554"/>
			<point x="451" y="484" type="curve" smooth="yes"/>
			<point x="451" y="406"/>
			<point x="420" y="370"/>
		</contour>
	</outline>
</glyph>
<glyph name="Q" format="2">
	<unicode hex="0051"/>
	<advance width="814"/>
	<outline>
		<contour>
			<point x="733" y="-192" type="curve" smooth="yes"/>
			<point x="813" y="-192"/>
			<point x="882" y="-151"/>
			<point x="933" y="-90" type="curve"/>
			<point x="886" y="-24" type="line"/>
			<point x="847" y="-45"/>
			<point x="821" y="-53"/>
			<point x="784" y="-53" type="curve" smooth="yes"/>
			<point x="737" y="-53"/>
			<point x="702" y="-40"/>
			<point x="638" y="56" type="curve"/>
			<point x="733" y="126"/>
			<point x="779" y="240"/>
			<point x="779" y="366" type="curve" smooth="yes"/>
			<point x="779" y="597"/>
			<point x="632" y="714"/>
			<point x="424" y="714" type="curve" smooth="yes"/>
			<point x="198" y="714"/>
			<point x="35" y="586"/>
			<point x="35" y="340" type="curve" smooth="yes"/>
			<point x="35" y="139"/>
			<point x="146" y="-14"/>
			<point x="399" y="-14" type="curve" smooth="yes"/>
			<point x="431" y="-14"/>
			<point x="461" y="-11"/>
			<point x="488" y="-6" type="curve"/>
			<point x="563" y="-147"/>
			<point x="635" y="-192"/>
		</contour>
		<contour>
			<point x="407" y="111" type="curve" smooth="yes"/>
			<point x="351" y="111"/>
			<point x="312" y="147"/>
			<point x="295" y="203" type="curve"/>
			<point x="306" y="208"/>
			<point x="319" y="212"/>
			<point x="337" y="212" type="curve" smooth="yes"/>
			<point x="368" y="212"/>
			<point x="391" y="181"/>
			<point x="423" y="111" type="curve"/>
			<point x="420" y="111"/>
			<point x="410" y="111"/>
		</contour>
		<contour>
			<point x="532" y="219" type="curve"/>
			<point x="496" y="277"/>
			<point x="445" y="320"/>
			<point x="381" y="320" type="curve" smooth="yes"/>
			<point x="342" y="320"/>
			<point x="305" y="308"/>
			<point x="282" y="292" type="curve"/>
			<point x="279" y="317"/>
			<point x="277" y="326"/>
			<point x="277" y="357" type="curve" smooth="yes"/>
			<point x="277" y="534"/>
			<point x="330" y="581"/>
			<point x="406" y="581" type="curve" smooth="yes"/>
			<point x="487" y="581"/>
			<point x="543" y="513"/>
			<point x="543" y="350" type="curve" smooth="yes"/>
			<point x="543" y="300"/>
			<point x="539" y="251"/>
		</contour>
	</outline>
</glyph>
<glyph name="R" format="2">
	<unicode hex="0052"/>
	<advance width="764"/>
	<outline>
		<contour>
			<point x="604" y="-14" type="curve" smooth="yes"/>
			<point x="678" y="-14"/>
			<point x="733" y="10"/>
			<point x="764" y="33" type="curve"/>
			<point x="746" y="119" type="line"/>
			<point x="733" y="117"/>
			<point x="720" y="115"/>
			<point x="705" y="115" type="curve" smooth="yes"/>
			<point x="676" y="115"/>
			<point x="666" y="134"/>
			<point x="647" y="191" type="curve" smooth="yes"/>
			<point x="631" y="240" type="line" smooth="yes"/>
			<point x="609" y="307"/>
			<point x="560" y="335"/>
			<point x="461" y="343" type="curve"/>
			<point x="461" y="348" type="line"/>
			<point x="492" y="351"/>
			<point x="685" y="374"/>
			<point x="685" y="526" type="curve" smooth="yes"/>
			<point x="685" y="667"/>
			<point x="543" y="700"/>
			<point x="394" y="700" type="curve" smooth="yes"/>
			<point x="36" y="700" type="line"/>
			<point x="36" y="602" type="line"/>
			<point x="61" y="598" type="line" smooth="yes"/>
			<point x="90" y="593"/>
			<point x="95" y="581"/>
			<point x="95" y="550" type="curve" smooth="yes"/>
			<point x="95" y="156" type="line" smooth="yes"/>
			<point x="95" y="116"/>
			<point x="89" y="109"/>
			<point x="64" y="104" type="curve" smooth="yes"/>
			<point x="36" y="98" type="line"/>
			<point x="36" y="0" type="line"/>
			<point x="391" y="0" type="line"/>
			<point x="391" y="98" type="line"/>
			<point x="367" y="104" type="line" smooth="yes"/>
			<point x="331" y="113"/>
			<point x="331" y="131"/>
			<point x="331" y="157" type="curve" smooth="yes"/>
			<point x="331" y="301" type="line"/>
			<point x="338" y="302"/>
			<point x="345" y="302"/>
			<point x="351" y="302" type="curve" smooth="yes"/>
			<point x="379" y="302"/>
			<point x="392" y="265"/>
			<point x="398" y="239" type="curve" smooth="yes"/>
			<point x="424" y="117" type="line" smooth="yes"/>
			<point x="438" y="50"/>
			<point x="491" y="-14"/>
		</contour>
		<contour>
			<point x="357" y="399" type="curve" smooth="yes"/>
			<point x="349" y="399"/>
			<point x="341" y="399"/>
			<point x="334" y="400" type="curve"/>
			<point x="334" y="586" type="line"/>
			<point x="361" y="586" type="line" smooth="yes"/>
			<point x="389" y="586"/>
			<point x="436" y="567"/>
			<point x="436" y="500" type="curve" smooth="yes"/>
			<point x="436" y="437"/>
			<point x="409" y="399"/>
		</contour>
	</outline>
	<anchor name="bottom" x="374" y="-30"/>
	<anchor name="top" x="348" y="730"/>
</glyph>
<glyph name="V" format="2">
	<unicode hex="0056"/>
	<advance width="778"/>
	<outline>
		<contour>
			<point x="276" y="0" type="line"/>
			<point x="502" y="0" type="line"/>
			<point x="691" y="536" type="line" smooth="yes"/>
			<point x="708" y="583"/>
			<point x="713" y="589"/>
			<point x="736" y="593" type="curve" smooth="yes"/>
			<point x="778" y="601" type="line"/>
			<point x="778" y="700" type="line"/>
			<point x="495" y="700" type="line"/>
			<point x="488" y="598" type="line"/>
			<point x="537" y="591" type="line" smooth="yes"/>
			<point x="566" y="587"/>
			<point x="571" y="573"/>
			<point x="559" y="535" type="curve" smooth="yes"/>
			<point x="447" y="203" type="line"/>
			<point x="440" y="203" type="line"/>
			<point x="333" y="541" type="line" smooth="yes"/>
			<point x="322" y="575"/>
			<point x="327" y="588"/>
			<point x="352" y="591" type="curve" smooth="yes"/>
			<point x="402" y="598" type="line"/>
			<point x="402" y="700" type="line"/>
			<point x="0" y="700" type="line"/>
			<point x="0" y="603" type="line"/>
			<point x="39" y="595" type="line" smooth="yes"/>
			<point x="64" y="590"/>
			<point x="70" y="583"/>
			<point x="84" y="545" type="curve" smooth="yes"/>
		</contour>
	</outline>
	<anchor name="top" x="423" y="730"/>
	<guideline x="445" y="393" angle="90"/>
</glyph>
<glyph name="W" format="2">
	<unicode hex="0057"/>
	<advance width="1129"/>
	<outline>
		<contour>
			<point x="207" y="0" type="line"/>
			<point x="461" y="0" type="line"/>
			<point x="559" y="406" type="line"/>
			<point x="562" y="406" type="line"/>
			<point x="662" y="0" type="line"/>
			<point x="919" y="0" type="line"/>
			<point x="1031" y="548" type="line" smooth="yes"/>
			<point x="1040" y="593"/>
			<point x="1058" y="590"/>
			<point x="1078" y="593" type="curve" smooth="yes"/>
			<point x="1129" y="600" type="line"/>
			<point x="1129" y="700" type="line"/>
			<point x="837" y="700" type="line"/>
			<point x="837" y="603" type="line"/>
			<point x="886" y="595" type="line" smooth="yes"/>
			<point x="910" y="591"/>
			<point x="911" y="583"/>
			<point x="906" y="549" type="curve" smooth="yes"/>
			<point x="848" y="211" type="line"/>
			<point x="845" y="211" type="line"/>
			<point x="724" y="700" type="line"/>
			<point x="505" y="700" type="line"/>
			<point x="393" y="224" type="line"/>
			<point x="390" y="224" type="line"/>
			<point x="327" y="541" type="line" smooth="yes"/>
			<point x="321" y="571"/>
			<point x="326" y="588"/>
			<point x="352" y="593" type="curve" smooth="yes"/>
			<point x="395" y="600" type="line"/>
			<point x="395" y="700" type="line"/>
			<point x="0" y="700" type="line"/>
			<point x="0" y="603" type="line"/>
			<point x="42" y="595" type="line" smooth="yes"/>
			<point x="71" y="589"/>
			<point x="79" y="585"/>
			<point x="87" y="549" type="curve" smooth="yes"/>
		</contour>
	</outline>
	<anchor name="top" x="618" y="730"/>
</glyph>
<glyph name="X" format="2">
	<unicode hex="0058"/>
	<advance width="805"/>
	<outline>
		<contour>
			<point x="7" y="0" type="line"/>
			<point x="350" y="0" type="line"/>
			<point x="350" y="98" type="line"/>
			<point x="298" y="102" type="line" smooth="yes"/>
			<point x="270" y="104"/>
			<point x="276" y="122"/>
			<point x="293" y="142" type="curve" smooth="yes"/>
			<point x="377" y="238" type="line"/>
			<point x="441" y="156" type="line" smooth="yes"/>
			<point x="470" y="119"/>
			<point x="467" y="104"/>
			<point x="435" y="101" type="curve" smooth="yes"/>
			<point x="398" y="98" type="line"/>
			<point x="398" y="0" type="line"/>
			<point x="800" y="0" type="line"/>
			<point x="800" y="98" type="line"/>
			<point x="775" y="102" type="line" smooth="yes"/>
			<point x="735" y="108"/>
			<point x="716" y="126"/>
			<point x="700" y="148" type="curve" smooth="yes"/>
			<point x="518" y="383" type="line"/>
			<point x="672" y="561" type="line" smooth="yes"/>
			<point x="690" y="582"/>
			<point x="708" y="593"/>
			<point x="749" y="596" type="curve" smooth="yes"/>
			<point x="782" y="599" type="line"/>
			<point x="782" y="700" type="line"/>
			<point x="499" y="700" type="line"/>
			<point x="481" y="599" type="line"/>
			<point x="514" y="593" type="line" smooth="yes"/>
			<point x="537" y="589"/>
			<point x="533" y="577"/>
			<point x="525" y="567" type="curve" smooth="yes"/>
			<point x="445" y="473" type="line"/>
			<point x="377" y="561" type="line" smooth="yes"/>
			<point x="362" y="580"/>
			<point x="360" y="594"/>
			<point x="384" y="596" type="curve" smooth="yes"/>
			<point x="421" y="599" type="line"/>
			<point x="421" y="700" type="line"/>
			<point x="23" y="700" type="line"/>
			<point x="5" y="603" type="line"/>
			<point x="44" y="595" type="line" smooth="yes"/>
			<point x="82" y="587"/>
			<point x="112" y="568"/>
			<point x="129" y="547" type="curve" smooth="yes"/>
			<point x="301" y="329" type="line"/>
			<point x="158" y="175" type="line" smooth="yes"/>
			<point x="119" y="133"/>
			<point x="109" y="120"/>
			<point x="35" y="104" type="curve" smooth="yes"/>
			<point x="7" y="98" type="line"/>
		</contour>
	</outline>
</glyph>
<glyph name="Y" format="2">
	<unicode hex="0059"/>
	<advance width="776"/>
	<outline>
		<contour>
			<point x="187" y="0" type="line"/>
			<point x="594" y="0" type="line"/>
			<point x="594" y="98" type="line"/>
			<point x="535" y="104" type="line" smooth="yes"/>
			<point x="507" y="107"/>
			<point x="503" y="118"/>
			<point x="503" y="151" type="curve" smooth="yes"/>
			<point x="503" y="243" type="line"/>
			<point x="668" y="535" type="line" smooth="yes"/>
			<point x="687" y="569"/>
			<point x="701" y="586"/>
			<point x="725" y="591" type="curve" smooth="yes"/>
			<point x="776" y="601" type="line"/>
			<point x="776" y="700" type="line"/>
			<point x="462" y="700" type="line"/>
			<point x="462" y="601" type="line"/>
			<point x="509" y="594" type="line" smooth="yes"/>
			<point x="543" y="589"/>
			<point x="547" y="573"/>
			<point x="526" y="536" type="curve" smooth="yes"/>
			<point x="438" y="384" type="line"/>
			<point x="433" y="384" type="line"/>
			<point x="337" y="544" type="line" smooth="yes"/>
			<point x="318" y="575"/>
			<point x="321" y="591"/>
			<point x="342" y="594" type="curve" smooth="yes"/>
			<point x="387" y="601" type="line"/>
			<point x="387" y="700" type="line"/>
			<point x="0" y="700" type="line"/>
			<point x="0" y="601" type="line"/>
			<point x="42" y="594" type="line" smooth="yes"/>
			<point x="76" y="588"/>
			<point x="85" y="572"/>
			<point x="102" y="543" type="curve" smooth="yes"/>
			<point x="276" y="238" type="line"/>
			<point x="276" y="155" type="line" smooth="yes"/>
			<point x="276" y="115"/>
			<point x="269" y="106"/>
			<point x="245" y="104" type="curve" smooth="yes"/>
			<point x="187" y="98" type="line"/>
		</contour>
	</outline>
	<anchor name="bottom" x="383" y="-30"/>
	<anchor name="top" x="419" y="730"/>
</glyph>
<glyph name="bracketright" format="2">
	<unicode hex="005D"/>
	<advance width="372"/>
	<outline>
		<contour>
			<point x="16" y="-212" type="line"/>
			<point x="300" y="-212" type="line"/>
			<point x="300" y="812" type="line"/>
			<point x="16" y="812" type="line"/>
			<point x="16" y="715" type="line"/>
			<point x="67" y="710" type="line" smooth="yes"/>
			<point x="89" y="708"/>
			<point x="99" y="695"/>
			<point x="99" y="671" type="curve" smooth="yes"/>
			<point x="99" y="-71" type="line" smooth="yes"/>
			<point x="99" y="-95"/>
			<point x="89" y="-108"/>
			<point x="67" y="-110" type="curve" smooth="yes"/>
			<point x="16" y="-115" type="line"/>
		</contour>
	</outline>
</glyph>
<glyph name="asciicircum" format="2">
	<unicode hex="005E"/>
	<advance width="582"/>
	<outline>
		<contour>
			<point x="157" y="313" type="line"/>
			<point x="288" y="493" type="line"/>
			<point x="425" y="313" type="line"/>
			<point x="570" y="404" type="line"/>
			<point x="357" y="712" type="line"/>
			<point x="224" y="712" type="line"/>
			<point x="13" y="403" type="line"/>
		</contour>
	</outline>
</glyph>
<glyph name="grave" format="2">
	<unicode hex="0060"/>
	<advance width="500"/>
	<outline>
		<contour>
			<point x="293" y="570" type="line"/>
			<point x="341" y="618" type="line"/>
			<point x="225" y="796" type="line" smooth="yes"/>
			<point x="206" y="825"/>
			<point x="189" y="830"/>
			<point x="165" y="830" type="curve" smooth="yes"/>
			<point x="108" y="830"/>
			<point x="89" y="773"/>
			<point x="89" y="746" type="curve" smooth="yes"/>
			<point x="89" y="724"/>
			<point x="100" y="700"/>
			<point x="129" y="680" type="curve" smooth="yes"/>
		</contour>
	</outline>
	<anchor name="_top" x="250" y="550"/>
</glyph>
<glyph name="b" format="2">
	<unicode hex="0062"/>
	<advance width="689"/>
	<outline>
		<contour>
			<point x="199" y="0" type="line"/>
			<point x="248" y="39" type="line"/>
			<point x="286" y="5"/>
			<point x="336" y="-14"/>
			<point x="401" y="-14" type="curve" smooth="yes"/>
			<point x="576" y="-14"/>
			<point x="662" y="101"/>
			<point x="662" y="282" type="curve" smooth="yes"/>
			<point x="662" y="447"/>
			<point x="580" y="531"/>
			<point x="453" y="531" type="curve" smooth="yes"/>
			<point x="388" y="531"/>
			<point x="330" y="499"/>
			<point x="300" y="455" type="curve"/>
			<point x="294" y="455" type="line"/>
			<point x="294" y="757" type="line"/>
			<point x="275" y="768" type="line"/>
			<point x="14" y="754" type="line"/>
			<point x="7" y="650" type="line"/>
			<point x="33" y="646" type="line" smooth="yes"/>
			<point x="69" y="640"/>
			<point x="69" y="625"/>
			<point x="69" y="585" type="curve" smooth="yes"/>
			<point x="69" y="-1" type="line"/>
		</contour>
		<contour>
			<point x="355" y="113" type="curve" smooth="yes"/>
			<point x="328" y="113"/>
			<point x="309" y="122"/>
			<point x="294" y="132" type="curve"/>
			<point x="294" y="310" type="line" smooth="yes"/>
			<point x="294" y="369"/>
			<point x="312" y="404"/>
			<point x="357" y="404" type="curve" smooth="yes"/>
			<point x="402" y="404"/>
			<point x="427" y="368"/>
			<point x="427" y="266" type="curve" smooth="yes"/>
			<point x="427" y="150"/>
			<point x="408" y="113"/>
		</contour>
	</outline>
</glyph>
<glyph name="c" format="2">
	<unicode hex="0063"/>
	<advance width="588"/>
	<outline>
		<contour>
			<point x="301" y="-14" type="curve" smooth="yes"/>
			<point x="437" y="-14"/>
			<point x="516" y="36"/>
			<point x="573" y="98" type="curve"/>
			<point x="514" y="184" type="line"/>
			<point x="455" y="150"/>
			<point x="414" y="141"/>
			<point x="368" y="141" type="curve" smooth="yes"/>
			<point x="287" y="141"/>
			<point x="252" y="187"/>
			<point x="252" y="287" type="curve" smooth="yes"/>
			<point x="252" y="383"/>
			<point x="283" y="424"/>
			<point x="335" y="424" type="curve" smooth="yes"/>
			<point x="358" y="424"/>
			<point x="375" y="420"/>
			<point x="393" y="412" type="curve"/>
			<point x="377" y="380"/>
			<point x="371" y="364"/>
			<point x="371" y="351" type="curve" smooth="yes"/>
			<point x="371" y="309"/>
			<point x="406" y="287"/>
			<point x="460" y="287" type="curve" smooth="yes"/>
			<point x="535" y="287"/>
			<point x="560" y="336"/>
			<point x="560" y="386" type="curve" smooth="yes"/>
			<point x="560" y="457"/>
			<point x="483" y="531"/>
			<point x="331" y="531" type="curve" smooth="yes"/>
			<point x="134" y="531"/>
			<point x="27" y="414"/>
			<point x="27" y="245" type="curve" smooth="yes"/>
			<point x="27" y="90"/>
			<point x="123" y="-14"/>
		</contour>
	</outline>
	<anchor name="bottom" x="322" y="-30"/>
	<anchor name="top" x="318" y="550"/>
</glyph>
<glyph name="f" format="2">
	<unicode hex="0066"/>
	<advance width="468"/>
	<outline>
		<contour>
			<point x="32" y="0" type="line"/>
			<point x="407" y="0" type="line"/>
			<point x="407" y="95" type="line"/>
			<point x="357" y="100" type="line" smooth="yes"/>
			<point x="323" y="103"/>
			<point x="315" y="112"/>
			<point x="315" y="146" type="curve" smooth="yes"/>
			<point x="315" y="402" type="line"/>
			<point x="448" y="402" type="line"/>
			<point x="448" y="517" type="line"/>
			<point x="315" y="517" type="line"/>
			<point x="315" y="606" type="line" smooth="yes"/>
			<point x="315" y="666"/>
			<point x="324" y="692"/>
			<point x="361" y="692" type="curve" smooth="yes"/>
			<point x="377" y="692"/>
			<point x="392" y="688"/>
			<point x="403" y="681" type="curve"/>
			<point x="388" y="649"/>
			<point x="381" y="633"/>
			<point x="381" y="615" type="curve" smooth="yes"/>
			<point x="381" y="576"/>
			<point x="411" y="555"/>
			<point x="463" y="555" type="curve" smooth="yes"/>
			<point x="527" y="555"/>
			<point x="553" y="586"/>
			<point x="553" y="637" type="curve" smooth="yes"/>
			<point x="553" y="722"/>
			<point x="483" y="782"/>
			<point x="342" y="782" type="curve" smooth="yes"/>
			<point x="141" y="782"/>
			<point x="92" y="666"/>
			<point x="92" y="545" type="curve" smooth="yes"/>
			<point x="92" y="514" type="line"/>
			<point x="15" y="498" type="line"/>
			<point x="15" y="402" type="line"/>
			<point x="90" y="402" type="line"/>
			<point x="90" y="151" type="line" smooth="yes"/>
			<point x="90" y="115"/>
			<point x="86" y="105"/>
			<point x="60" y="100" type="curve" smooth="yes"/>
			<point x="32" y="95" type="line"/>
		</contour>
	</outline>
</glyph>
<glyph name="g" format="2">
	<unicode hex="0067"/>
	<advance width="652"/>
	<outline>
		<contour>
			<point x="273" y="-230" type="curve" smooth="yes"/>
			<point x="615" y="-230"/>
			<point x="642" y="-89"/>
			<point x="642" y="-23" type="curve" smooth="yes"/>
			<point x="642" y="55"/>
			<point x="579" y="107"/>
			<point x="461" y="107" type="curve" smooth="yes"/>
			<point x="262" y="107" type="line" smooth="yes"/>
			<point x="228" y="107"/>
			<point x="196" y="109"/>
			<point x="196" y="139" type="curve" smooth="yes"/>
			<point x="196" y="149"/>
			<point x="201" y="155"/>
			<point x="205" y="158" type="curve"/>
			<point x="236" y="150"/>
			<point x="261" y="145"/>
			<point x="301" y="145" type="curve" smooth="yes"/>
			<point x="475" y="145"/>
			<point x="574" y="234"/>
			<point x="574" y="335" type="curve" smooth="yes"/>
			<point x="574" y="409"/>
			<point x="535" y="446"/>
			<point x="497" y="482" type="curve"/>
			<point x="508" y="499"/>
			<point x="520" y="522"/>
			<point x="534" y="534" type="curve"/>
			<point x="546" y="519" type="line" smooth="yes"/>
			<point x="560" y="502"/>
			<point x="577" y="487"/>
			<point x="599" y="487" type="curve" smooth="yes"/>
			<point x="640" y="487"/>
			<point x="667" y="526"/>
			<point x="667" y="569" type="curve" smooth="yes"/>
			<point x="667" y="627"/>
			<point x="623" y="648"/>
			<point x="587" y="648" type="curve" smooth="yes"/>
			<point x="526" y="648"/>
			<point x="489" y="593"/>
			<point x="441" y="509" type="curve"/>
			<point x="391" y="530"/>
			<point x="326" y="532"/>
			<point x="301" y="532" type="curve" smooth="yes"/>
			<point x="155" y="532"/>
			<point x="24" y="477"/>
			<point x="24" y="332" type="curve" smooth="yes"/>
			<point x="24" y="268"/>
			<point x="55" y="222"/>
			<point x="103" y="192" type="curve"/>
			<point x="103" y="189" type="line"/>
			<point x="68" y="170"/>
			<point x="49" y="143"/>
			<point x="49" y="110" type="curve" smooth="yes"/>
			<point x="49" y="76"/>
			<point x="68" y="40"/>
			<point x="131" y="22" type="curve"/>
			<point x="131" y="19" type="line"/>
			<point x="72" y="4"/>
			<point x="5" y="-17"/>
			<point x="5" y="-96" type="curve" smooth="yes"/>
			<point x="5" y="-184"/>
			<point x="86" y="-230"/>
		</contour>
		<contour>
			<point x="298" y="-127" type="curve" smooth="yes"/>
			<point x="248" y="-127"/>
			<point x="216" y="-113"/>
			<point x="216" y="-78" type="curve" smooth="yes"/>
			<point x="216" y="-60"/>
			<point x="225" y="-43"/>
			<point x="235" y="-32" type="curve"/>
			<point x="357" y="-32" type="line" smooth="yes"/>
			<point x="385" y="-32"/>
			<point x="399" y="-42"/>
			<point x="399" y="-65" type="curve" smooth="yes"/>
			<point x="399" y="-100"/>
			<point x="362" y="-127"/>
		</contour>
		<contour>
			<point x="300" y="263" type="curve" smooth="yes"/>
			<point x="266" y="263"/>
			<point x="252" y="294"/>
			<point x="252" y="340" type="curve" smooth="yes"/>
			<point x="252" y="380"/>
			<point x="261" y="421"/>
			<point x="300" y="421" type="curve" smooth="yes"/>
			<point x="330" y="421"/>
			<point x="347" y="400"/>
			<point x="347" y="339" type="curve" smooth="yes"/>
			<point x="347" y="288"/>
			<point x="331" y="263"/>
		</contour>
	</outline>
	<anchor name="top" x="299" y="550"/>
</glyph>
<glyph name="m" format="2">
	<unicode hex="006D"/>
	<advance width="1024"/>
	<outline>
		<contour>
			<point x="32" y="0" type="line"/>
			<point x="347" y="0" type="line"/>
			<point x="347" y="94" type="line"/>
			<point x="339" y="95" type="line" smooth="yes"/>
			<point x="315" y="98"/>
			<point x="315" y="116"/>
			<point x="315" y="141" type="curve" smooth="yes"/>
			<point x="315" y="303" type="line" smooth="yes"/>
			<point x="315" y="368"/>
			<point x="345" y="384"/>
			<point x="369" y="384" type="curve" smooth="yes"/>
			<point x="393" y="384"/>
			<point x="407" y="371"/>
			<point x="407" y="314" type="curve" smooth="yes"/>
			<point x="407" y="139" type="line" smooth="yes"/>
			<point x="407" y="111"/>
			<point x="403" y="98"/>
			<point x="382" y="95" type="curve" smooth="yes"/>
			<point x="374" y="94" type="line"/>
			<point x="374" y="0" type="line"/>
			<point x="664" y="0" type="line"/>
			<point x="664" y="94" type="line"/>
			<point x="656" y="95" type="line" smooth="yes"/>
			<point x="632" y="98"/>
			<point x="632" y="116"/>
			<point x="632" y="141" type="curve" smooth="yes"/>
			<point x="632" y="303" type="line" smooth="yes"/>
			<point x="632" y="368"/>
			<point x="662" y="384"/>
			<point x="686" y="384" type="curve" smooth="yes"/>
			<point x="710" y="384"/>
			<point x="724" y="368"/>
			<point x="724" y="314" type="curve" smooth="yes"/>
			<point x="724" y="139" type="line" smooth="yes"/>
			<point x="724" y="111"/>
			<point x="720" y="98"/>
			<point x="699" y="95" type="curve" smooth="yes"/>
			<point x="691" y="94" type="line"/>
			<point x="691" y="0" type="line"/>
			<point x="1006" y="0" type="line"/>
			<point x="1006" y="95" type="line"/>
			<point x="979" y="99" type="line" smooth="yes"/>
			<point x="953" y="103"/>
			<point x="949" y="113"/>
			<point x="949" y="140" type="curve" smooth="yes"/>
			<point x="949" y="360" type="line" smooth="yes"/>
			<point x="949" y="452"/>
			<point x="904" y="531"/>
			<point x="788" y="531" type="curve" smooth="yes"/>
			<point x="707" y="531"/>
			<point x="653" y="494"/>
			<point x="622" y="432" type="curve"/>
			<point x="603" y="490"/>
			<point x="556" y="531"/>
			<point x="471" y="531" type="curve" smooth="yes"/>
			<point x="386" y="531"/>
			<point x="331" y="490"/>
			<point x="300" y="422" type="curve"/>
			<point x="296" y="422" type="line"/>
			<point x="288" y="514" type="line"/>
			<point x="269" y="525" type="line"/>
			<point x="34" y="511" type="line"/>
			<point x="25" y="407" type="line"/>
			<point x="55" y="402" type="line" smooth="yes"/>
			<point x="86" y="397"/>
			<point x="90" y="384"/>
			<point x="90" y="346" type="curve" smooth="yes"/>
			<point x="90" y="149" type="line" smooth="yes"/>
			<point x="90" y="113"/>
			<point x="85" y="105"/>
			<point x="64" y="101" type="curve" smooth="yes"/>
			<point x="32" y="95" type="line"/>
		</contour>
	</outline>
	<anchor name="bottom" x="515" y="-30"/>
</glyph>
<glyph name="q" format="2">
	<unicode hex="0071"/>
	<advance width="682"/>
	<outline>
		<contour>
			<point x="296" y="-216" type="line"/>
			<point x="677" y="-216" type="line"/>
			<point x="677" y="-121" type="line"/>
			<point x="647" y="-116" type="line" smooth="yes"/>
			<point x="625" y="-112"/>
			<point x="620" y="-103"/>
			<point x="620" y="-67" type="curve" smooth="yes"/>
			<point x="620" y="517" type="line"/>
			<point x="506" y="531" type="line"/>
			<point x="441" y="478" type="line"/>
			<point x="394" y="515"/>
			<point x="352" y="531"/>
			<point x="285" y="531" type="curve" smooth="yes"/>
			<point x="117" y="531"/>
			<point x="27" y="420"/>
			<point x="27" y="245" type="curve" smooth="yes"/>
			<point x="27" y="86"/>
			<point x="92" y="-14"/>
			<point x="250" y="-14" type="curve" smooth="yes"/>
			<point x="300" y="-14"/>
			<point x="362" y="8"/>
			<point x="390" y="51" type="curve"/>
			<point x="395" y="51" type="line"/>
			<point x="395" y="-69" type="line" smooth="yes"/>
			<point x="395" y="-104"/>
			<point x="390" y="-113"/>
			<point x="359" y="-116" type="curve" smooth="yes"/>
			<point x="296" y="-123" type="line"/>
		</contour>
		<contour>
			<point x="329" y="111" type="curve" smooth="yes"/>
			<point x="283" y="111"/>
			<point x="262" y="156"/>
			<point x="262" y="256" type="curve" smooth="yes"/>
			<point x="262" y="358"/>
			<point x="282" y="404"/>
			<point x="332" y="404" type="curve" smooth="yes"/>
			<point x="356" y="404"/>
			<point x="374" y="397"/>
			<point x="395" y="385" type="curve"/>
			<point x="395" y="202" type="line" smooth="yes"/>
			<point x="395" y="143"/>
			<point x="373" y="111"/>
		</contour>
	</outline>
</glyph>
<glyph name="r" format="2">
	<unicode hex="0072"/>
	<advance width="610"/>
	<outline>
		<contour>
			<point x="32" y="0" type="line"/>
			<point x="407" y="0" type="line"/>
			<point x="407" y="95" type="line"/>
			<point x="346" y="101" type="line" smooth="yes"/>
			<point x="320" y="104"/>
			<point x="315" y="116"/>
			<point x="315" y="149" type="curve" smooth="yes"/>
			<point x="315" y="292" type="line" smooth="yes"/>
			<point x="315" y="376"/>
			<point x="366" y="418"/>
			<point x="420" y="404" type="curve"/>
			<point x="408" y="371"/>
			<point x="406" y="362"/>
			<point x="406" y="346" type="curve" smooth="yes"/>
			<point x="406" y="315"/>
			<point x="431" y="286"/>
			<point x="493" y="286" type="curve" smooth="yes"/>
			<point x="561" y="286"/>
			<point x="600" y="328"/>
			<point x="600" y="409" type="curve" smooth="yes"/>
			<point x="600" y="482"/>
			<point x="549" y="531"/>
			<point x="467" y="531" type="curve" smooth="yes"/>
			<point x="390" y="531"/>
			<point x="326" y="485"/>
			<point x="300" y="422" type="curve"/>
			<point x="296" y="422" type="line"/>
			<point x="288" y="514" type="line"/>
			<point x="268" y="525" type="line"/>
			<point x="34" y="511" type="line"/>
			<point x="25" y="407" type="line"/>
			<point x="58" y="402" type="line" smooth="yes"/>
			<point x="90" y="397"/>
			<point x="90" y="383"/>
			<point x="90" y="340" type="curve" smooth="yes"/>
			<point x="90" y="151" type="line" smooth="yes"/>
			<point x="90" y="116"/>
			<point x="86" y="105"/>
			<point x="65" y="101" type="curve" smooth="yes"/>
			<point x="32" y="95" type="line"/>
		</contour>
	</outline>
	<anchor name="bottom" x="217" y="-30"/>
	<anchor name="top" x="316" y="550"/>
</glyph>
<glyph name="s" format="2">
	<unicode hex="0073"/>
	<advance width="545"/>
	<outline>
		<contour>
			<point x="47" y="-14" type="line"/>
			<point x="136" y="-14" type="line"/>
			<point x="147" y="22" type="line"/>
			<point x="183" y="3"/>
			<point x="229" y="-14"/>
			<point x="297" y="-14" type="curve" smooth="yes"/>
			<point x="432" y="-14"/>
			<point x="520" y="56"/>
			<point x="520" y="180" type="curve" smooth="yes"/>
			<point x="520" y="306"/>
			<point x="417" y="331"/>
			<point x="313" y="354" type="curve" smooth="yes"/>
			<point x="240" y="370"/>
			<point x="210" y="378"/>
			<point x="210" y="406" type="curve" smooth="yes"/>
			<point x="210" y="431"/>
			<point x="230" y="442"/>
			<point x="268" y="442" type="curve" smooth="yes"/>
			<point x="317" y="442"/>
			<point x="364" y="420"/>
			<point x="394" y="360" type="curve"/>
			<point x="498" y="355" type="line"/>
			<point x="489" y="531" type="line"/>
			<point x="399" y="531" type="line"/>
			<point x="390" y="499" type="line"/>
			<point x="361" y="515"/>
			<point x="315" y="531"/>
			<point x="252" y="531" type="curve" smooth="yes"/>
			<point x="126" y="531"/>
			<point x="35" y="471"/>
			<point x="35" y="353" type="curve" smooth="yes"/>
			<point x="35" y="216"/>
			<point x="163" y="191"/>
			<point x="233" y="177" type="curve" smooth="yes"/>
			<point x="310" y="162"/>
			<point x="341" y="155"/>
			<point x="341" y="127" type="curve" smooth="yes"/>
			<point x="341" y="102"/>
			<point x="324" y="87"/>
			<point x="278" y="87" type="curve" smooth="yes"/>
			<point x="222" y="87"/>
			<point x="174" y="115"/>
			<point x="142" y="175" type="curve"/>
			<point x="34" y="169" type="line"/>
		</contour>
	</outline>
	<anchor name="bottom" x="281" y="-30"/>
	<anchor name="top" x="269" y="550"/>
</glyph>
<glyph name="u" format="2">
	<unicode hex="0075"/>
	<advance width="719"/>
	<outline>
		<contour>
			<point x="246" y="-14" type="curve" smooth="yes"/>
			<point x="363" y="-14"/>
			<point x="398" y="36"/>
			<point x="424" y="83" type="curve"/>
			<point x="429" y="83" type="line"/>
			<point x="442" y="-9" type="line"/>
			<point x="696" y="0" type="line"/>
			<point x="696" y="98" type="line"/>
			<point x="667" y="104" type="line" smooth="yes"/>
			<point x="644" y="109"/>
			<point x="636" y="123"/>
			<point x="636" y="169" type="curve" smooth="yes"/>
			<point x="636" y="514" type="line"/>
			<point x="617" y="525" type="line"/>
			<point x="369" y="511" type="line"/>
			<point x="354" y="406" type="line"/>
			<point x="377" y="402" type="line" smooth="yes"/>
			<point x="405" y="397"/>
			<point x="411" y="390"/>
			<point x="411" y="341" type="curve" smooth="yes"/>
			<point x="411" y="232" type="line" smooth="yes"/>
			<point x="411" y="164"/>
			<point x="391" y="133"/>
			<point x="350" y="133" type="curve" smooth="yes"/>
			<point x="319" y="133"/>
			<point x="304" y="152"/>
			<point x="304" y="209" type="curve" smooth="yes"/>
			<point x="304" y="514" type="line"/>
			<point x="285" y="525" type="line"/>
			<point x="22" y="511" type="line"/>
			<point x="15" y="407" type="line"/>
			<point x="46" y="402" type="line" smooth="yes"/>
			<point x="79" y="397"/>
			<point x="79" y="376"/>
			<point x="79" y="340" type="curve" smooth="yes"/>
			<point x="79" y="156" type="line" smooth="yes"/>
			<point x="79" y="51"/>
			<point x="137" y="-14"/>
		</contour>
	</outline>
	<anchor name="bottom" x="365" y="-30"/>
	<anchor name="top" x="340" y="550"/>
</glyph>
<glyph name="w" format="2">
	<unicode hex="0077"/>
	<advance width="942"/>
	<outline>
		<contour>
			<point x="196" y="0" type="line"/>
			<point x="409" y="0" type="line"/>
			<point x="479" y="322" type="line"/>
			<point x="482" y="322" type="line"/>
			<point x="564" y="0" type="line"/>
			<point x="748" y="0" type="line"/>
			<point x="846" y="335" type="line" smooth="yes"/>
			<point x="862" y="391"/>
			<point x="880" y="406"/>
			<point x="906" y="410" type="curve" smooth="yes"/>
			<point x="937" y="416" type="line"/>
			<point x="937" y="517" type="line"/>
			<point x="726" y="517" type="line"/>
			<point x="712" y="416" type="line"/>
			<point x="734" y="410" type="line" smooth="yes"/>
			<point x="757" y="404"/>
			<point x="769" y="392"/>
			<point x="759" y="356" type="curve" smooth="yes"/>
			<point x="719" y="213" type="line"/>
			<point x="714" y="213" type="line"/>
			<point x="641" y="517" type="line"/>
			<point x="416" y="517" type="line"/>
			<point x="352" y="212" type="line"/>
			<point x="347" y="212" type="line"/>
			<point x="302" y="363" type="line" smooth="yes"/>
			<point x="293" y="392"/>
			<point x="296" y="407"/>
			<point x="309" y="410" type="curve" smooth="yes"/>
			<point x="341" y="416" type="line"/>
			<point x="341" y="517" type="line"/>
			<point x="17" y="517" type="line"/>
			<point x="5" y="413" type="line"/>
			<point x="42" y="403" type="line" smooth="yes"/>
			<point x="65" y="397"/>
			<point x="75" y="385"/>
			<point x="87" y="349" type="curve" smooth="yes"/>
		</contour>
	</outline>
	<anchor name="top" x="527" y="550"/>
</glyph>
<glyph name="x" format="2">
	<unicode hex="0078"/>
	<advance width="638"/>
	<outline>
		<contour>
			<point x="17" y="0" type="line"/>
			<point x="250" y="0" type="line"/>
			<point x="250" y="95" type="line"/>
			<point x="236" y="98" type="line" smooth="yes"/>
			<point x="219" y="102"/>
			<point x="222" y="115"/>
			<point x="241" y="136" type="curve" smooth="yes"/>
			<point x="273" y="171" type="line"/>
			<point x="309" y="133" type="line" smooth="yes"/>
			<point x="327" y="114"/>
			<point x="323" y="102"/>
			<point x="302" y="98" type="curve" smooth="yes"/>
			<point x="284" y="95" type="line"/>
			<point x="284" y="0" type="line"/>
			<point x="634" y="0" type="line"/>
			<point x="634" y="95" type="line"/>
			<point x="623" y="97" type="line" smooth="yes"/>
			<point x="598" y="102"/>
			<point x="580" y="116"/>
			<point x="558" y="140" type="curve" smooth="yes"/>
			<point x="435" y="272" type="line"/>
			<point x="543" y="382" type="line" smooth="yes"/>
			<point x="562" y="401"/>
			<point x="568" y="410"/>
			<point x="593" y="414" type="curve" smooth="yes"/>
			<point x="618" y="418" type="line"/>
			<point x="618" y="517" type="line"/>
			<point x="399" y="517" type="line"/>
			<point x="385" y="418" type="line"/>
			<point x="405" y="415" type="line" smooth="yes"/>
			<point x="421" y="413"/>
			<point x="418" y="401"/>
			<point x="403" y="387" type="curve" smooth="yes"/>
			<point x="362" y="347" type="line"/>
			<point x="328" y="382" type="line" smooth="yes"/>
			<point x="313" y="398"/>
			<point x="314" y="412"/>
			<point x="328" y="414" type="curve" smooth="yes"/>
			<point x="351" y="418" type="line"/>
			<point x="351" y="517" type="line"/>
			<point x="19" y="517" type="line"/>
			<point x="5" y="413" type="line"/>
			<point x="38" y="407" type="line" smooth="yes"/>
			<point x="61" y="403"/>
			<point x="81" y="380"/>
			<point x="106" y="352" type="curve" smooth="yes"/>
			<point x="201" y="246" type="line"/>
			<point x="84" y="127" type="line" smooth="yes"/>
			<point x="61" y="104"/>
			<point x="57" y="102"/>
			<point x="40" y="99" type="curve" smooth="yes"/>
			<point x="17" y="95" type="line"/>
		</contour>
	</outline>
</glyph>
<glyph name="y" format="2">
	<unicode hex="0079"/>
	<advance width="648"/>
	<outline>
		<contour>
			<point x="165" y="-230" type="curve" smooth="yes"/>
			<point x="306" y="-230"/>
			<point x="357" y="-142"/>
			<point x="416" y="0" type="curve" smooth="yes"/>
			<point x="562" y="349" type="line" smooth="yes"/>
			<point x="580" y="391"/>
			<point x="586" y="404"/>
			<point x="611" y="409" type="curve" smooth="yes"/>
			<point x="643" y="415" type="line"/>
			<point x="643" y="517" type="line"/>
			<point x="416" y="517" type="line"/>
			<point x="402" y="416" type="line"/>
			<point x="434" y="409" type="line" smooth="yes"/>
			<point x="463" y="403"/>
			<point x="465" y="382"/>
			<point x="452" y="349" type="curve" smooth="yes"/>
			<point x="386" y="183" type="line"/>
			<point x="381" y="183" type="line"/>
			<point x="308" y="355" type="line" smooth="yes"/>
			<point x="292" y="392"/>
			<point x="297" y="408"/>
			<point x="326" y="412" type="curve" smooth="yes"/>
			<point x="354" y="416" type="line"/>
			<point x="354" y="517" type="line"/>
			<point x="22" y="517" type="line"/>
			<point x="12" y="413" type="line"/>
			<point x="42" y="405" type="line" smooth="yes"/>
			<point x="69" y="398"/>
			<point x="72" y="383"/>
			<point x="84" y="360" type="curve" smooth="yes"/>
			<point x="267" y="-26" type="line"/>
			<point x="258" y="-48" type="line" smooth="yes"/>
			<point x="235" y="-105"/>
			<point x="208" y="-153"/>
			<point x="146" y="-142" type="curve"/>
			<point x="156" y="-118"/>
			<point x="166" y="-93"/>
			<point x="166" y="-77" type="curve" smooth="yes"/>
			<point x="166" y="-51"/>
			<point x="146" y="-24"/>
			<point x="96" y="-24" type="curve" smooth="yes"/>
			<point x="42" y="-24"/>
			<point x="10" y="-67"/>
			<point x="10" y="-116" type="curve" smooth="yes"/>
			<point x="10" y="-187"/>
			<point x="75" y="-230"/>
		</contour>
	</outline>
	<anchor name="bottom" x="513" y="-30"/>
	<anchor name="top" x="345" y="550"/>
</glyph>
<glyph name="z" format="2">
	<unicode hex="007A"/>
	<advance width="581"/>
	<outline>
		<contour>
			<point x="38" y="0" type="line"/>
			<point x="540" y="0" type="line"/>
			<point x="554" y="220" type="line"/>
			<point x="463" y="220" type="line"/>
			<point x="432" y="138"/>
			<point x="419" y="110"/>
			<point x="361" y="110" type="curve" smooth="yes"/>
			<point x="294" y="110" type="line"/>
			<point x="535" y="432" type="line"/>
			<point x="535" y="517" type="line"/>
			<point x="50" y="517" type="line"/>
			<point x="38" y="285" type="line"/>
			<point x="132" y="290" type="line"/>
			<point x="161" y="391"/>
			<point x="168" y="409"/>
			<point x="227" y="409" type="curve" smooth="yes"/>
			<point x="288" y="409" type="line"/>
			<point x="38" y="89" type="line"/>
		</contour>
	</outline>
	<anchor name="bottom" x="291" y="-30"/>
	<anchor name="top" x="291" y="550"/>
</glyph>
<glyph name="braceleft" format="2">
	<unicode hex="007B"/>
	<advance width="363"/>
	<outline>
		<contour>
			<point x="220" y="-233" type="curve" smooth="yes"/>
			<point x="263" y="-233"/>
			<point x="307" y="-227"/>
			<point x="343" y="-216" type="curve"/>
			<point x="329" y="-124" type="line"/>
			<point x="319" y="-126"/>
			<point x="305" y="-128"/>
			<point x="297" y="-128" type="curve" smooth="yes"/>
			<point x="272" y="-128"/>
			<point x="266" y="-115"/>
			<point x="266" y="-84" type="curve" smooth="yes"/>
			<point x="266" y="0"/>
			<point x="287" y="131"/>
			<point x="287" y="177" type="curve" smooth="yes"/>
			<point x="287" y="247"/>
			<point x="252" y="282"/>
			<point x="190" y="303" type="curve"/>
			<point x="252" y="324"/>
			<point x="286" y="359"/>
			<point x="286" y="429" type="curve" smooth="yes"/>
			<point x="286" y="475"/>
			<point x="265" y="610"/>
			<point x="265" y="678" type="curve" smooth="yes"/>
			<point x="265" y="707"/>
			<point x="272" y="720"/>
			<point x="292" y="720" type="curve" smooth="yes"/>
			<point x="305" y="720"/>
			<point x="316" y="718"/>
			<point x="326" y="716" type="curve"/>
			<point x="343" y="808" type="line"/>
			<point x="305" y="820"/>
			<point x="269" y="825"/>
			<point x="226" y="825" type="curve" smooth="yes"/>
			<point x="125" y="825"/>
			<point x="63" y="772"/>
			<point x="63" y="688" type="curve" smooth="yes"/>
			<point x="63" y="634"/>
			<point x="89" y="496"/>
			<point x="89" y="416" type="curve" smooth="yes"/>
			<point x="89" y="351"/>
			<point x="52" y="352"/>
			<point x="7" y="351" type="curve"/>
			<point x="7" y="255" type="line"/>
			<point x="52" y="254"/>
			<point x="86" y="255"/>
			<point x="86" y="190" type="curve" smooth="yes"/>
			<point x="86" y="80"/>
			<point x="64" y="-42"/>
			<point x="64" y="-96" type="curve" smooth="yes"/>
			<point x="64" y="-180"/>
			<point x="119" y="-233"/>
		</contour>
	</outline>
</glyph>
<glyph name="braceright" format="2">
	<unicode hex="007D"/>
	<advance width="363"/>
	<outline>
		<contour>
			<point x="143" y="-233" type="curve" smooth="yes"/>
			<point x="244" y="-233"/>
			<point x="299" y="-180"/>
			<point x="299" y="-96" type="curve" smooth="yes"/>
			<point x="299" y="-42"/>
			<point x="277" y="80"/>
			<point x="277" y="190" type="curve" smooth="yes"/>
			<point x="277" y="255"/>
			<point x="311" y="254"/>
			<point x="356" y="255" type="curve"/>
			<point x="356" y="351" type="line"/>
			<point x="311" y="352"/>
			<point x="274" y="351"/>
			<point x="274" y="416" type="curve" smooth="yes"/>
			<point x="274" y="496"/>
			<point x="300" y="634"/>
			<point x="300" y="688" type="curve" smooth="yes"/>
			<point x="300" y="772"/>
			<point x="238" y="825"/>
			<point x="137" y="825" type="curve" smooth="yes"/>
			<point x="94" y="825"/>
			<point x="58" y="820"/>
			<point x="20" y="808" type="curve"/>
			<point x="37" y="716" type="line"/>
			<point x="47" y="718"/>
			<point x="58" y="720"/>
			<point x="71" y="720" type="curve" smooth="yes"/>
			<point x="91" y="720"/>
			<point x="98" y="707"/>
			<point x="98" y="678" type="curve" smooth="yes"/>
			<point x="98" y="610"/>
			<point x="77" y="475"/>
			<point x="77" y="429" type="curve" smooth="yes"/>
			<point x="77" y="359"/>
			<point x="111" y="324"/>
			<point x="173" y="303" type="curve"/>
			<point x="111" y="282"/>
			<point x="76" y="247"/>
			<point x="76" y="177" type="curve" smooth="yes"/>
			<point x="76" y="131"/>
			<point x="97" y="0"/>
			<point x="97" y="-84" type="curve" smooth="yes"/>
			<point x="97" y="-115"/>
			<point x="91" y="-128"/>
			<point x="66" y="-128" type="curve" smooth="yes"/>
			<point x="58" y="-128"/>
			<point x="44" y="-126"/>
			<point x="34" y="-124" type="curve"/>
			<point x="20" y="-216" type="line"/>
			<point x="56" y="-227"/>
			<point x="100" y="-233"/>
		</contour>
	</outline>
</glyph>
<glyph name="asciitilde" format="2">
	<unicode hex="007E"/>
	<advance width="582"/>
	<outline>
		<contour>
			<point x="127" y="212" type="line"/>
			<point x="143" y="239"/>
			<point x="152" y="256"/>
			<point x="172" y="256" type="curve" smooth="yes"/>
			<point x="196" y="256"/>
			<point x="222" y="251"/>
			<point x="269" y="239" type="curve" smooth="yes"/>
			<point x="337" y="222"/>
			<point x="378" y="214"/>
			<point x="411" y="214" type="curve" smooth="yes"/>
			<point x="482" y="214"/>
			<point x="505" y="295"/>
			<point x="535" y="383" type="curve"/>
			<point x="456" y="409" type="line"/>
			<point x="440" y="382"/>
			<point x="431" y="365"/>
			<point x="411" y="365" type="curve" smooth="yes"/>
			<point x="387" y="365"/>
			<point x="355" y="371"/>
			<point x="301" y="385" type="curve" smooth="yes"/>
			<point x="248" y="399"/>
			<point x="203" y="407"/>
			<point x="172" y="407" type="curve" smooth="yes"/>
			<point x="101" y="407"/>
			<point x="78" y="326"/>
			<point x="48" y="241" type="curve"/>
		</contour>
	</outline>
</glyph>
<glyph name="sterling" format="2">
	<unicode hex="00A3"/>
	<advance width="655"/>
	<outline>
		<contour>
			<point x="70" y="0" type="line"/>
			<point x="610" y="0" type="line"/>
			<point x="630" y="239" type="line"/>
			<point x="506" y="239" type="line"/>
			<point x="484" y="142"/>
			<point x="471" y="128"/>
			<point x="418" y="128" type="curve" smooth="yes"/>
			<point x="295" y="128" type="line"/>
			<point x="293" y="134" type="line"/>
			<point x="360" y="182"/>
			<point x="374" y="219"/>
			<point x="374" y="269" type="curve" smooth="yes"/>
			<point x="374" y="278"/>
			<point x="373" y="287"/>
			<point x="373" y="296" type="curve"/>
			<point x="506" y="296" type="line"/>
			<point x="506" y="402" type="line"/>
			<point x="336" y="402" type="line"/>
			<point x="316" y="441"/>
			<point x="296" y="476"/>
			<point x="296" y="524" type="curve" smooth="yes"/>
			<point x="296" y="586"/>
			<point x="323" y="619"/>
			<point x="376" y="619" type="curve" smooth="yes"/>
			<point x="397" y="619"/>
			<point x="418" y="614"/>
			<point x="433" y="609" type="curve"/>
			<point x="407" y="571"/>
			<point x="405" y="555"/>
			<point x="405" y="537" type="curve" smooth="yes"/>
			<point x="405" y="500"/>
			<point x="441" y="468"/>
			<point x="502" y="468" type="curve" smooth="yes"/>
			<point x="574" y="468"/>
			<point x="607" y="511"/>
			<point x="607" y="563" type="curve" smooth="yes"/>
			<point x="607" y="648"/>
			<point x="530" y="713"/>
			<point x="360" y="713" type="curve" smooth="yes"/>
			<point x="180" y="713"/>
			<point x="70" y="628"/>
			<point x="70" y="517" type="curve" smooth="yes"/>
			<point x="70" y="468"/>
			<point x="81" y="432"/>
			<point x="95" y="402" type="curve"/>
			<point x="17" y="402" type="line"/>
			<point x="5" y="296" type="line"/>
			<point x="151" y="296" type="line"/>
			<point x="156" y="281"/>
			<point x="159" y="265"/>
			<point x="159" y="246" type="curve" smooth="yes"/>
			<point x="159" y="179"/>
			<point x="127" y="130"/>
			<point x="52" y="95" type="curve"/>
		</contour>
	</outline>
</glyph>
<glyph name="currency" format="2">
	<unicode hex="00A4"/>
	<advance width="575"/>
	<outline>
		<contour>
			<point x="473" y="72" type="line"/>
			<point x="552" y="149" type="line"/>
			<point x="502" y="231" type="line"/>
			<point x="516" y="255"/>
			<point x="527" y="292"/>
			<point x="527" y="329" type="curve" smooth="yes"/>
			<point x="527" y="360"/>
			<point x="520" y="384"/>
			<point x="505" y="410" type="curve"/>
			<point x="560" y="500" type="line"/>
			<point x="481" y="577" type="line"/>
			<point x="393" y="505" type="line"/>
			<point x="359" y="513"/>
			<point x="318" y="517"/>
			<point x="286" y="517" type="curve" smooth="yes"/>
			<point x="262" y="517"/>
			<point x="222" y="513"/>
			<point x="189" y="507" type="curve"/>
			<point x="102" y="579" type="line"/>
			<point x="23" y="502" type="line"/>
			<point x="71" y="424" type="line"/>
			<point x="46" y="384"/>
			<point x="38" y="354"/>
			<point x="38" y="320" type="curve" smooth="yes"/>
			<point x="38" y="288"/>
			<point x="45" y="256"/>
			<point x="63" y="225" type="curve"/>
			<point x="15" y="147" type="line"/>
			<point x="94" y="70" type="line"/>
			<point x="181" y="142" type="line"/>
			<point x="214" y="136"/>
			<point x="254" y="132"/>
			<point x="278" y="132" type="curve" smooth="yes"/>
			<point x="310" y="132"/>
			<point x="351" y="136"/>
			<point x="385" y="144" type="curve"/>
		</contour>
		<contour>
			<point x="280" y="223" type="curve" smooth="yes"/>
			<point x="259" y="223"/>
			<point x="256" y="258"/>
			<point x="256" y="323" type="curve" smooth="yes"/>
			<point x="256" y="389"/>
			<point x="262" y="419"/>
			<point x="284" y="419" type="curve" smooth="yes"/>
			<point x="305" y="419"/>
			<point x="310" y="390"/>
			<point x="310" y="325" type="curve" smooth="yes"/>
			<point x="310" y="259"/>
			<point x="304" y="223"/>
		</contour>
	</outline>
</glyph>
<glyph name="yen" format="2">
	<unicode hex="00A5"/>
	<advance width="792"/>
	<outline>
		<contour>
			<point x="195" y="0" type="line"/>
			<point x="602" y="0" type="line"/>
			<point x="602" y="98" type="line"/>
			<point x="543" y="104" type="line" smooth="yes"/>
			<point x="515" y="107"/>
			<point x="511" y="118"/>
			<point x="511" y="151" type="curve" smooth="yes"/>
			<point x="511" y="215" type="line"/>
			<point x="701" y="215" type="line"/>
			<point x="701" y="300" type="line"/>
			<point x="543" y="300" type="line"/>
			<point x="543" y="301" type="line"/>
			<point x="571" y="350" type="line"/>
			<point x="701" y="350" type="line"/>
			<point x="701" y="437" type="line"/>
			<point x="621" y="437" type="line"/>
			<point x="676" y="535" type="line" smooth="yes"/>
			<point x="695" y="569"/>
			<point x="709" y="586"/>
			<point x="733" y="591" type="curve" smooth="yes"/>
			<point x="784" y="601" type="line"/>
			<point x="784" y="700" type="line"/>
			<point x="470" y="700" type="line"/>
			<point x="470" y="601" type="line"/>
			<point x="517" y="594" type="line" smooth="yes"/>
			<point x="551" y="589"/>
			<point x="555" y="573"/>
			<point x="534" y="536" type="curve" smooth="yes"/>
			<point x="446" y="384" type="line"/>
			<point x="441" y="384" type="line"/>
			<point x="345" y="544" type="line" smooth="yes"/>
			<point x="326" y="575"/>
			<point x="329" y="591"/>
			<point x="350" y="594" type="curve" smooth="yes"/>
			<point x="395" y="601" type="line"/>
			<point x="395" y="700" type="line"/>
			<point x="8" y="700" type="line"/>
			<point x="8" y="601" type="line"/>
			<point x="50" y="594" type="line" smooth="yes"/>
			<point x="84" y="588"/>
			<point x="93" y="572"/>
			<point x="110" y="543" type="curve" smooth="yes"/>
			<point x="170" y="437" type="line"/>
			<point x="90" y="437" type="line"/>
			<point x="82" y="352" type="line"/>
			<point x="219" y="352" type="line"/>
			<point x="249" y="301" type="line"/>
			<point x="249" y="300" type="line"/>
			<point x="87" y="300" type="line"/>
			<point x="79" y="215" type="line"/>
			<point x="284" y="215" type="line"/>
			<point x="284" y="155" type="line" smooth="yes"/>
			<point x="284" y="115"/>
			<point x="277" y="106"/>
			<point x="253" y="104" type="curve" smooth="yes"/>
			<point x="195" y="98" type="line"/>
		</contour>
	</outline>
	<anchor name="bottom" x="391" y="-30"/>
	<anchor name="top" x="427" y="730"/>
</glyph>
<glyph name="brokenbar" format="2">
	<unicode hex="00A6"/>
	<advance width="470"/>
	<outline>
		<contour>
			<point x="147" y="-110" type="line"/>
			<point x="323" y="-110" type="line"/>
			<point x="320" y="315" type="line"/>
			<point x="147" y="315" type="line"/>
		</contour>
		<contour>
			<point x="147" y="401" type="line"/>
			<point x="323" y="401" type="line"/>
			<point x="320" y="803" type="line"/>
			<point x="147" y="803" type="line"/>
		</contour>
	</outline>
</glyph>
<glyph name="softhyphen" format="2">
	<unicode hex="00AD"/>
	<advance width="323"/>
	<outline>
		<contour>
			<point x="30" y="230" type="line"/>
			<point x="293" y="230" type="line"/>
			<point x="293" y="370" type="line"/>
			<point x="30" y="370" type="line"/>
		</contour>
	</outline>
</glyph>
<glyph name="plusminus" format="2">
	<unicode hex="00B1"/>
	<advance width="582"/>
	<outline>
		<contour>
			<point x="208" y="205" type="line"/>
			<point x="367" y="205" type="line"/>
			<point x="367" y="320" type="line"/>
			<point x="501" y="320" type="line"/>
			<point x="501" y="475" type="line"/>
			<point x="367" y="475" type="line"/>
			<point x="367" y="587" type="line"/>
			<point x="208" y="587" type="line"/>
			<point x="208" y="475" type="line"/>
			<point x="81" y="475" type="line"/>
			<point x="81" y="320" type="line"/>
			<point x="208" y="320" type="line"/>
		</contour>
		<contour>
			<point x="77" y="1" type="line"/>
			<point x="505" y="1" type="line"/>
			<point x="505" y="156" type="line"/>
			<point x="77" y="156" type="line"/>
		</contour>
	</outline>
</glyph>
<glyph name="acute" format="2">
	<unicode hex="00B4"/>
	<advance width="500"/>
	<outline>
		<contour>
			<point x="208" y="570" type="line"/>
			<point x="372" y="680" type="line" smooth="yes"/>
			<point x="401" y="700"/>
			<point x="412" y="724"/>
			<point x="412" y="746" type="curve" smooth="yes"/>
			<point x="412" y="773"/>
			<point x="393" y="830"/>
			<point x="336" y="830" type="curve" smooth="yes"/>
			<point x="312" y="830"/>
			<point x="295" y="825"/>
			<point x="276" y="796" type="curve" smooth="yes"/>
			<point x="160" y="618" type="line"/>
		</contour>
	</outline>
	<anchor name="_top" x="250" y="550"/>
</glyph>
<glyph name="ordmasculine" format="2">
	<unicode hex="00BA"/>
	<advance width="486"/>
	<outline>
		<contour>
			<point x="237" y="360" type="curve" smooth="yes"/>
			<point x="378" y="360"/>
			<point x="466" y="426"/>
			<point x="466" y="558" type="curve" smooth="yes"/>
			<point x="466" y="693"/>
			<point x="371" y="742"/>
			<point x="253" y="742" type="curve" smooth="yes"/>
			<point x="122" y="742"/>
			<point x="20" y="687"/>
			<point x="20" y="546" type="curve" smooth="yes"/>
			<point x="20" y="421"/>
			<point x="103" y="360"/>
		</contour>
		<contour>
			<point x="246" y="446" type="curve" smooth="yes"/>
			<point x="204" y="446"/>
			<point x="195" y="482"/>
			<point x="195" y="570" type="curve" smooth="yes"/>
			<point x="195" y="641"/>
			<point x="214" y="657"/>
			<point x="242" y="657" type="curve" smooth="yes"/>
			<point x="273" y="657"/>
			<point x="291" y="639"/>
			<point x="291" y="546" type="curve" smooth="yes"/>
			<point x="291" y="476"/>
			<point x="284" y="446"/>
		</contour>
	</outline>
</glyph>
<glyph name="AE" format="2">
	<unicode hex="00C6"/>
	<advance width="1076"/>
	<outline>
		<contour>
			<point x="0" y="0" type="line"/>
			<point x="294" y="0" type="line"/>
			<point x="297" y="99" type="line"/>
			<point x="255" y="106" type="line" smooth="yes"/>
			<point x="220" y="112"/>
			<point x="222" y="134"/>
			<point x="241" y="175" type="curve" smooth="yes"/>
			<point x="293" y="287" type="line"/>
			<point x="480" y="287" type="line"/>
			<point x="480" y="156" type="line" smooth="yes"/>
			<point x="480" y="120"/>
			<point x="476" y="110"/>
			<point x="449" y="104" type="curve" smooth="yes"/>
			<point x="421" y="98" type="line"/>
			<point x="421" y="0" type="line"/>
			<point x="1029" y="0" type="line"/>
			<point x="1056" y="243" type="line"/>
			<point x="927" y="243" type="line"/>
			<point x="906" y="151"/>
			<point x="892" y="116"/>
			<point x="815" y="116" type="curve" smooth="yes"/>
			<point x="714" y="116" type="line"/>
			<point x="714" y="287" type="line"/>
			<point x="738" y="287" type="line" smooth="yes"/>
			<point x="770" y="287"/>
			<point x="780" y="271"/>
			<point x="787" y="217" type="curve"/>
			<point x="880" y="230" type="line"/>
			<point x="880" y="470" type="line"/>
			<point x="789" y="464" type="line"/>
			<point x="778" y="414"/>
			<point x="766" y="398"/>
			<point x="740" y="398" type="curve" smooth="yes"/>
			<point x="714" y="398" type="line"/>
			<point x="714" y="586" type="line"/>
			<point x="811" y="586" type="line" smooth="yes"/>
			<point x="882" y="586"/>
			<point x="897" y="558"/>
			<point x="914" y="479" type="curve"/>
			<point x="1044" y="493" type="line"/>
			<point x="1012" y="700" type="line"/>
			<point x="206" y="700" type="line"/>
			<point x="206" y="603" type="line"/>
			<point x="281" y="592" type="line"/>
			<point x="82" y="159" type="line" smooth="yes"/>
			<point x="65" y="122"/>
			<point x="54" y="116"/>
			<point x="31" y="109" type="curve" smooth="yes"/>
			<point x="0" y="101" type="line"/>
		</contour>
		<contour>
			<point x="342" y="398" type="line"/>
			<point x="418" y="586" type="line"/>
			<point x="480" y="586" type="line"/>
			<point x="480" y="398" type="line"/>
		</contour>
	</outline>
	<anchor name="bottom" x="593" y="-30"/>
	<anchor name="top" x="644" y="730"/>
	<guideline x="608" y="296" angle="0"/>
</glyph>
<glyph name="multiply" format="2">
	<unicode hex="00D7"/>
	<advance width="582"/>
	<outline>
		<contour>
			<point x="390" y="96" type="line"/>
			<point x="495" y="201" type="line"/>
			<point x="395" y="301" type="line"/>
			<point x="495" y="402" type="line"/>
			<point x="387" y="510" type="line"/>
			<point x="287" y="410" type="line"/>
			<point x="190" y="506" type="line"/>
			<point x="85" y="400" type="line"/>
			<point x="181" y="304" type="line"/>
			<point x="82" y="204" type="line"/>
			<point x="190" y="96" type="line"/>
			<point x="289" y="196" type="line"/>
		</contour>
	</outline>
</glyph>
<glyph name="Thorn" format="2">
	<unicode hex="00DE"/>
	<advance width="715"/>
	<outline>
		<contour>
			<point x="36" y="0" type="line"/>
			<point x="441" y="0" type="line"/>
			<point x="441" y="98" type="line"/>
			<point x="370" y="106" type="line" smooth="yes"/>
			<point x="330" y="111"/>
			<point x="330" y="120"/>
			<point x="330" y="137" type="curve" smooth="yes"/>
			<point x="330" y="166" type="line"/>
			<point x="344" y="163"/>
			<point x="394" y="161"/>
			<point x="427" y="161" type="curve" smooth="yes"/>
			<point x="504" y="161"/>
			<point x="695" y="186"/>
			<point x="695" y="354" type="curve" smooth="yes"/>
			<point x="695" y="515"/>
			<point x="563" y="538"/>
			<point x="404" y="538" type="curve" smooth="yes"/>
			<point x="330" y="538" type="line"/>
			<point x="330" y="559" type="line" smooth="yes"/>
			<point x="330" y="582"/>
			<point x="338" y="586"/>
			<point x="370" y="590" type="curve" smooth="yes"/>
			<point x="441" y="598" type="line"/>
			<point x="441" y="696" type="line"/>
			<point x="36" y="696" type="line"/>
			<point x="36" y="598" type="line"/>
			<point x="64" y="592" type="line" smooth="yes"/>
			<point x="89" y="587"/>
			<point x="95" y="570"/>
			<point x="95" y="540" type="curve" smooth="yes"/>
			<point x="95" y="156" type="line" smooth="yes"/>
			<point x="95" y="116"/>
			<point x="89" y="109"/>
			<point x="64" y="104" type="curve" smooth="yes"/>
			<point x="36" y="98" type="line"/>
		</contour>
		<contour>
			<point x="330" y="280" type="curve"/>
			<point x="330" y="434" type="line"/>
			<point x="375" y="434" type="line" smooth="yes"/>
			<point x="431" y="434"/>
			<point x="461" y="412"/>
			<point x="461" y="362" type="curve" smooth="yes"/>
			<point x="461" y="309"/>
			<point x="430" y="278"/>
			<point x="373" y="278" type="curve" smooth="yes"/>
			<point x="359" y="278"/>
			<point x="340" y="279"/>
		</contour>
	</outline>
</glyph>
<glyph name="ae" format="2">
	<unicode hex="00E6"/>
	<advance width="896"/>
	<outline>
		<contour>
			<point x="189" y="-14" type="curve" smooth="yes"/>
			<point x="275" y="-14"/>
			<point x="347" y="11"/>
			<point x="389" y="57" type="curve"/>
			<point x="429" y="12"/>
			<point x="500" y="-14"/>
			<point x="596" y="-14" type="curve" smooth="yes"/>
			<point x="724" y="-14"/>
			<point x="815" y="41"/>
			<point x="874" y="112" type="curve"/>
			<point x="811" y="190" type="line"/>
			<point x="761" y="160"/>
			<point x="719" y="142"/>
			<point x="649" y="142" type="curve" smooth="yes"/>
			<point x="589" y="142"/>
			<point x="547" y="167"/>
			<point x="542" y="222" type="curve"/>
			<point x="856" y="222" type="line"/>
			<point x="862" y="250"/>
			<point x="865" y="287"/>
			<point x="865" y="323" type="curve" smooth="yes"/>
			<point x="865" y="461"/>
			<point x="770" y="531"/>
			<point x="616" y="531" type="curve" smooth="yes"/>
			<point x="557" y="531"/>
			<point x="501" y="515"/>
			<point x="455" y="477" type="curve"/>
			<point x="411" y="514"/>
			<point x="359" y="530"/>
			<point x="294" y="530" type="curve" smooth="yes"/>
			<point x="132" y="530"/>
			<point x="35" y="466"/>
			<point x="35" y="377" type="curve" smooth="yes"/>
			<point x="35" y="337"/>
			<point x="60" y="309"/>
			<point x="115" y="309" type="curve" smooth="yes"/>
			<point x="180" y="309"/>
			<point x="210" y="334"/>
			<point x="210" y="367" type="curve" smooth="yes"/>
			<point x="210" y="382"/>
			<point x="202" y="402"/>
			<point x="185" y="431" type="curve"/>
			<point x="205" y="442"/>
			<point x="230" y="447"/>
			<point x="254" y="447" type="curve" smooth="yes"/>
			<point x="307" y="447"/>
			<point x="315" y="415"/>
			<point x="315" y="350" type="curve" smooth="yes"/>
			<point x="315" y="287" type="line"/>
			<point x="255" y="285"/>
			<point x="203" y="281"/>
			<point x="161" y="272" type="curve" smooth="yes"/>
			<point x="70" y="253"/>
			<point x="22" y="212"/>
			<point x="22" y="124" type="curve" smooth="yes"/>
			<point x="22" y="40"/>
			<point x="81" y="-14"/>
		</contour>
		<contour>
			<point x="274" y="93" type="curve" smooth="yes"/>
			<point x="246" y="93"/>
			<point x="239" y="116"/>
			<point x="239" y="145" type="curve" smooth="yes"/>
			<point x="239" y="169"/>
			<point x="247" y="190"/>
			<point x="271" y="199" type="curve" smooth="yes"/>
			<point x="283" y="203"/>
			<point x="297" y="205"/>
			<point x="315" y="205" type="curve"/>
			<point x="315" y="141" type="line" smooth="yes"/>
			<point x="315" y="108"/>
			<point x="301" y="93"/>
		</contour>
		<contour>
			<point x="540" y="325" type="line"/>
			<point x="541" y="378"/>
			<point x="559" y="427"/>
			<point x="609" y="427" type="curve" smooth="yes"/>
			<point x="639" y="427"/>
			<point x="655" y="406"/>
			<point x="655" y="374" type="curve" smooth="yes"/>
			<point x="655" y="359"/>
			<point x="654" y="343"/>
			<point x="651" y="325" type="curve"/>
		</contour>
	</outline>
	<anchor name="bottom" x="428" y="-30"/>
	<anchor name="top" x="461" y="550"/>
</glyph>
<glyph name="divide" format="2">
	<unicode hex="00F7"/>
	<advance width="582"/>
	<outline>
		<contour>
			<point x="67" y="229" type="line"/>
			<point x="515" y="229" type="line"/>
			<point x="515" y="384" type="line"/>
			<point x="67" y="384" type="line"/>
		</contour>
		<contour>
			<point x="291" y="9" type="curve" smooth="yes"/>
			<point x="344" y="9"/>
			<point x="388" y="49"/>
			<point x="388" y="101" type="curve" smooth="yes"/>
			<point x="388" y="153"/>
			<point x="344" y="191"/>
			<point x="291" y="191" type="curve" smooth="yes"/>
			<point x="239" y="191"/>
			<point x="195" y="151"/>
			<point x="195" y="99" type="curve" smooth="yes"/>
			<point x="195" y="48"/>
			<point x="239" y="9"/>
		</contour>
		<contour>
			<point x="291" y="422" type="curve" smooth="yes"/>
			<point x="344" y="422"/>
			<point x="388" y="462"/>
			<point x="388" y="514" type="curve" smooth="yes"/>
			<point x="388" y="566"/>
			<point x="344" y="604"/>
			<point x="291" y="604" type="curve" smooth="yes"/>
			<point x="239" y="604"/>
			<point x="195" y="564"/>
			<point x="195" y="512" type="curve" smooth="yes"/>
			<point x="195" y="461"/>
			<point x="239" y="422"/>
		</contour>
	</outline>
</glyph>
<glyph name="oslash" format="2">
	<unicode hex="00F8"/>
	<advance width="662"/>
	<outline>
		<contour>
			<point x="52" y="-24" type="line"/>
			<point x="167" y="-24" type="line"/>
			<point x="189" y="4" type="line"/>
			<point x="227" y="-8"/>
			<point x="272" y="-14"/>
			<point x="322" y="-14" type="curve" smooth="yes"/>
			<point x="524" y="-14"/>
			<point x="635" y="80"/>
			<point x="635" y="268" type="curve" smooth="yes"/>
			<point x="635" y="362"/>
			<point x="606" y="427"/>
			<point x="558" y="468" type="curve"/>
			<point x="620" y="547" type="line"/>
			<point x="504" y="547" type="line"/>
			<point x="477" y="513" type="line"/>
			<point x="438" y="525"/>
			<point x="393" y="531"/>
			<point x="345" y="531" type="curve" smooth="yes"/>
			<point x="158" y="531"/>
			<point x="27" y="453"/>
			<point x="27" y="251" type="curve" smooth="yes"/>
			<point x="27" y="159"/>
			<point x="55" y="91"/>
			<point x="108" y="47" type="curve"/>
		</contour>
		<contour>
			<point x="335" y="102" type="curve" smooth="yes"/>
			<point x="313" y="102"/>
			<point x="297" y="109"/>
			<point x="286" y="126" type="curve"/>
			<point x="400" y="269" type="line"/>
			<point x="400" y="263"/>
			<point x="400" y="257"/>
			<point x="400" y="251" type="curve" smooth="yes"/>
			<point x="400" y="146"/>
			<point x="390" y="102"/>
		</contour>
		<contour>
			<point x="263" y="242" type="line"/>
			<point x="262" y="255"/>
			<point x="262" y="270"/>
			<point x="262" y="285" type="curve" smooth="yes"/>
			<point x="262" y="393"/>
			<point x="290" y="415"/>
			<point x="330" y="415" type="curve" smooth="yes"/>
			<point x="351" y="415"/>
			<point x="367" y="410"/>
			<point x="379" y="389" type="curve"/>
		</contour>
	</outline>
	<anchor name="bottom" x="330" y="-30"/>
	<anchor name="top" x="332" y="550"/>
</glyph>
<glyph name="thorn" format="2">
	<unicode hex="00FE"/>
	<advance width="692"/>
	<outline>
		<contour>
			<point x="15" y="-216" type="line"/>
			<point x="396" y="-216" type="line"/>
			<point x="396" y="-123" type="line"/>
			<point x="332" y="-116" type="line" smooth="yes"/>
			<point x="302" y="-113"/>
			<point x="297" y="-104"/>
			<point x="297" y="-70" type="curve" smooth="yes"/>
			<point x="297" y="11" type="line"/>
			<point x="328" y="-6"/>
			<point x="365" y="-14"/>
			<point x="410" y="-14" type="curve" smooth="yes"/>
			<point x="590" y="-14"/>
			<point x="665" y="105"/>
			<point x="665" y="279" type="curve" smooth="yes"/>
			<point x="665" y="446"/>
			<point x="589" y="531"/>
			<point x="456" y="531" type="curve" smooth="yes"/>
			<point x="383" y="531"/>
			<point x="336" y="502"/>
			<point x="301" y="455" type="curve"/>
			<point x="297" y="455" type="line"/>
			<point x="297" y="757" type="line"/>
			<point x="278" y="768" type="line"/>
			<point x="17" y="754" type="line"/>
			<point x="10" y="650" type="line"/>
			<point x="36" y="646" type="line" smooth="yes"/>
			<point x="70" y="641"/>
			<point x="72" y="629"/>
			<point x="72" y="585" type="curve" smooth="yes"/>
			<point x="72" y="-67" type="line" smooth="yes"/>
			<point x="72" y="-105"/>
			<point x="66" y="-112"/>
			<point x="45" y="-116" type="curve" smooth="yes"/>
			<point x="15" y="-121" type="line"/>
		</contour>
		<contour>
			<point x="360" y="113" type="curve" smooth="yes"/>
			<point x="339" y="113"/>
			<point x="312" y="122"/>
			<point x="297" y="132" type="curve"/>
			<point x="297" y="302" type="line" smooth="yes"/>
			<point x="297" y="359"/>
			<point x="316" y="400"/>
			<point x="361" y="400" type="curve" smooth="yes"/>
			<point x="406" y="400"/>
			<point x="430" y="361"/>
			<point x="430" y="269" type="curve" smooth="yes"/>
			<point x="430" y="150"/>
			<point x="413" y="113"/>
		</contour>
	</outline>
</glyph>
<glyph name="Aogonek" format="2">
	<unicode hex="0104"/>
	<advance width="776"/>
	<outline>
		<contour>
			<point x="576" y="-255" type="curve" smooth="yes"/>
			<point x="654" y="-255"/>
			<point x="705" y="-227"/>
			<point x="741" y="-195" type="curve"/>
			<point x="707" y="-130" type="line"/>
			<point x="677" y="-146"/>
			<point x="653" y="-150"/>
			<point x="637" y="-150" type="curve" smooth="yes"/>
			<point x="615" y="-150"/>
			<point x="603" y="-142"/>
			<point x="603" y="-115" type="curve" smooth="yes"/>
			<point x="603" y="-88"/>
			<point x="615" y="-59"/>
			<point x="678" y="0" type="curve"/>
			<point x="776" y="0" type="line"/>
			<point x="776" y="98" type="line"/>
			<point x="747" y="103" type="line" smooth="yes"/>
			<point x="722" y="107"/>
			<point x="712" y="116"/>
			<point x="697" y="157" type="curve" smooth="yes"/>
			<point x="499" y="700" type="line"/>
			<point x="280" y="700" type="line"/>
			<point x="84" y="163" type="line" smooth="yes"/>
			<point x="72" y="131"/>
			<point x="59" y="115"/>
			<point x="33" y="109" type="curve" smooth="yes"/>
			<point x="0" y="101" type="line"/>
			<point x="0" y="0" type="line"/>
			<point x="284" y="0" type="line"/>
			<point x="284" y="99" type="line"/>
			<point x="253" y="104" type="line" smooth="yes"/>
			<point x="212" y="111"/>
			<point x="218" y="134"/>
			<point x="227" y="162" type="curve" smooth="yes"/>
			<point x="236" y="190" type="line"/>
			<point x="442" y="190" type="line"/>
			<point x="451" y="158" type="line" smooth="yes"/>
			<point x="459" y="129"/>
			<point x="455" y="111"/>
			<point x="432" y="107" type="curve" smooth="yes"/>
			<point x="397" y="101" type="line"/>
			<point x="397" y="0" type="line"/>
			<point x="575" y="0" type="line"/>
			<point x="501" y="-41"/>
			<point x="439" y="-87"/>
			<point x="439" y="-154" type="curve" smooth="yes"/>
			<point x="439" y="-196"/>
			<point x="463" y="-255"/>
		</contour>
		<contour>
			<point x="272" y="299" type="line"/>
			<point x="345" y="522" type="line"/>
			<point x="348" y="522" type="line"/>
			<point x="412" y="299" type="line"/>
		</contour>
	</outline>
	<anchor name="bottom" x="366" y="-30"/>
	<anchor name="top" x="387" y="730"/>
</glyph>
<glyph name="eogonek" format="2">
	<unicode hex="0119"/>
	<advance width="612"/>
	<outline>
		<contour>
			<point x="372" y="-255" type="curve" smooth="yes"/>
			<point x="446" y="-255"/>
			<point x="497" y="-227"/>
			<point x="533" y="-195" type="curve"/>
			<point x="499" y="-130" type="line"/>
			<point x="469" y="-146"/>
			<point x="447" y="-150"/>
			<point x="435" y="-150" type="curve" smooth="yes"/>
			<point x="412" y="-150"/>
			<point x="402" y="-139"/>
			<point x="402" y="-112" type="curve" smooth="yes"/>
			<point x="402" y="-75"/>
			<point x="428" y="-32"/>
			<point x="499" y="34" type="curve"/>
			<point x="535" y="55"/>
			<point x="565" y="82"/>
			<point x="590" y="112" type="curve"/>
			<point x="527" y="190" type="line"/>
			<point x="477" y="160"/>
			<point x="435" y="142"/>
			<point x="365" y="142" type="curve" smooth="yes"/>
			<point x="305" y="142"/>
			<point x="263" y="167"/>
			<point x="258" y="222" type="curve"/>
			<point x="572" y="222" type="line"/>
			<point x="578" y="250"/>
			<point x="581" y="287"/>
			<point x="581" y="323" type="curve" smooth="yes"/>
			<point x="581" y="461"/>
			<point x="486" y="531"/>
			<point x="332" y="531" type="curve" smooth="yes"/>
			<point x="156" y="531"/>
			<point x="27" y="433"/>
			<point x="27" y="241" type="curve" smooth="yes"/>
			<point x="27" y="90"/>
			<point x="119" y="-14"/>
			<point x="312" y="-14" type="curve" smooth="yes"/>
			<point x="324" y="-14"/>
			<point x="336" y="-14"/>
			<point x="347" y="-13" type="curve"/>
			<point x="288" y="-49"/>
			<point x="238" y="-98"/>
			<point x="238" y="-154" type="curve" smooth="yes"/>
			<point x="238" y="-196"/>
			<point x="262" y="-255"/>
		</contour>
		<contour>
			<point x="256" y="325" type="line"/>
			<point x="257" y="378"/>
			<point x="275" y="427"/>
			<point x="325" y="427" type="curve" smooth="yes"/>
			<point x="355" y="427"/>
			<point x="371" y="406"/>
			<point x="371" y="374" type="curve" smooth="yes"/>
			<point x="371" y="359"/>
			<point x="370" y="343"/>
			<point x="367" y="325" type="curve"/>
		</contour>
	</outline>
	<anchor name="bottom" x="318" y="-30"/>
	<anchor name="top" x="323" y="550"/>
</glyph>
<glyph name="Iogonek" format="2">
	<unicode hex="012E"/>
	<advance width="425"/>
	<outline>
		<contour>
			<point x="209" y="-255" type="curve" smooth="yes"/>
			<point x="287" y="-255"/>
			<point x="338" y="-227"/>
			<point x="374" y="-195" type="curve"/>
			<point x="340" y="-130" type="line"/>
			<point x="310" y="-146"/>
			<point x="286" y="-150"/>
			<point x="270" y="-150" type="curve" smooth="yes"/>
			<point x="248" y="-150"/>
			<point x="236" y="-142"/>
			<point x="236" y="-115" type="curve" smooth="yes"/>
			<point x="236" y="-88"/>
			<point x="248" y="-59"/>
			<point x="311" y="0" type="curve"/>
			<point x="389" y="0" type="line"/>
			<point x="389" y="98" type="line"/>
			<point x="362" y="104" type="line" smooth="yes"/>
			<point x="333" y="111"/>
			<point x="330" y="116"/>
			<point x="330" y="151" type="curve" smooth="yes"/>
			<point x="330" y="546" type="line" smooth="yes"/>
			<point x="330" y="583"/>
			<point x="337" y="591"/>
			<point x="360" y="596" type="curve" smooth="yes"/>
			<point x="389" y="602" type="line"/>
			<point x="389" y="700" type="line"/>
			<point x="36" y="700" type="line"/>
			<point x="36" y="602" type="line"/>
			<point x="61" y="598" type="line" smooth="yes"/>
			<point x="90" y="593"/>
			<point x="95" y="583"/>
			<point x="95" y="549" type="curve" smooth="yes"/>
			<point x="95" y="154" type="line" smooth="yes"/>
			<point x="95" y="122"/>
			<point x="92" y="110"/>
			<point x="65" y="104" type="curve" smooth="yes"/>
			<point x="36" y="98" type="line"/>
			<point x="36" y="0" type="line"/>
			<point x="208" y="0" type="line"/>
			<point x="134" y="-41"/>
			<point x="72" y="-87"/>
			<point x="72" y="-154" type="curve" smooth="yes"/>
			<point x="72" y="-196"/>
			<point x="96" y="-255"/>
		</contour>
	</outline>
	<anchor name="bottom" x="206" y="-30"/>
	<anchor name="top" x="214" y="730"/>
</glyph>
<glyph name="iogonek" format="2">
	<unicode hex="012F"/>
	<advance width="396"/>
	<outline>
		<contour>
			<point x="189" y="-255" type="curve" smooth="yes"/>
			<point x="267" y="-255"/>
			<point x="318" y="-227"/>
			<point x="354" y="-195" type="curve"/>
			<point x="320" y="-130" type="line"/>
			<point x="290" y="-146"/>
			<point x="266" y="-150"/>
			<point x="250" y="-150" type="curve" smooth="yes"/>
			<point x="228" y="-150"/>
			<point x="216" y="-142"/>
			<point x="216" y="-115" type="curve" smooth="yes"/>
			<point x="216" y="-88"/>
			<point x="228" y="-59"/>
			<point x="291" y="0" type="curve"/>
			<point x="373" y="0" type="line"/>
			<point x="373" y="94" type="line"/>
			<point x="339" y="101" type="line" smooth="yes"/>
			<point x="315" y="106"/>
			<point x="314" y="118"/>
			<point x="314" y="149" type="curve" smooth="yes"/>
			<point x="314" y="514" type="line"/>
			<point x="296" y="525" type="line"/>
			<point x="31" y="511" type="line"/>
			<point x="24" y="407" type="line"/>
			<point x="54" y="402" type="line" smooth="yes"/>
			<point x="85" y="397"/>
			<point x="89" y="384"/>
			<point x="89" y="340" type="curve" smooth="yes"/>
			<point x="89" y="149" type="line" smooth="yes"/>
			<point x="89" y="114"/>
			<point x="84" y="105"/>
			<point x="63" y="101" type="curve" smooth="yes"/>
			<point x="29" y="95" type="line"/>
			<point x="29" y="0" type="line"/>
			<point x="188" y="0" type="line"/>
			<point x="114" y="-41"/>
			<point x="52" y="-87"/>
			<point x="52" y="-154" type="curve" smooth="yes"/>
			<point x="52" y="-196"/>
			<point x="76" y="-255"/>
		</contour>
		<contour>
			<point x="187" y="586" type="curve" smooth="yes"/>
			<point x="266" y="586"/>
			<point x="314" y="623"/>
			<point x="314" y="688" type="curve" smooth="yes"/>
			<point x="314" y="754"/>
			<point x="273" y="790"/>
			<point x="187" y="790" type="curve" smooth="yes"/>
			<point x="102" y="790"/>
			<point x="59" y="753"/>
			<point x="59" y="689" type="curve" smooth="yes"/>
			<point x="59" y="622"/>
			<point x="105" y="586"/>
		</contour>
	</outline>
	<anchor name="bottom" x="197" y="-30"/>
</glyph>
<glyph name="kgreenlandic" format="2">
	<unicode hex="0138"/>
	<advance width="743"/>
	<outline>
		<contour>
			<point x="585" y="-14" type="curve" smooth="yes"/>
			<point x="647" y="-14"/>
			<point x="707" y="9"/>
			<point x="738" y="35" type="curve"/>
			<point x="719" y="115" type="line"/>
			<point x="707" y="111"/>
			<point x="694" y="109"/>
			<point x="685" y="109" type="curve" smooth="yes"/>
			<point x="652" y="109"/>
			<point x="636" y="128"/>
			<point x="606" y="173" type="curve" smooth="yes"/>
			<point x="519" y="304" type="line"/>
			<point x="594" y="378" type="line" smooth="yes"/>
			<point x="615" y="399"/>
			<point x="627" y="408"/>
			<point x="652" y="411" type="curve" smooth="yes"/>
			<point x="698" y="416" type="line"/>
			<point x="698" y="517" type="line"/>
			<point x="413" y="517" type="line"/>
			<point x="397" y="421" type="line"/>
			<point x="438" y="415" type="line" smooth="yes"/>
			<point x="459" y="412"/>
			<point x="464" y="398"/>
			<point x="443" y="379" type="curve" smooth="yes"/>
			<point x="326" y="271" type="line"/>
			<point x="326" y="247" type="line"/>
			<point x="430" y="75" type="line" smooth="yes"/>
			<point x="471" y="7"/>
			<point x="526" y="-14"/>
		</contour>
		<contour>
			<point x="29" y="0" type="line"/>
			<point x="366" y="0" type="line"/>
			<point x="366" y="95" type="line"/>
			<point x="343" y="100" type="line" smooth="yes"/>
			<point x="314" y="106"/>
			<point x="313" y="115"/>
			<point x="313" y="147" type="curve" smooth="yes"/>
			<point x="313" y="514" type="line"/>
			<point x="294" y="525" type="line"/>
			<point x="31" y="511" type="line"/>
			<point x="24" y="407" type="line"/>
			<point x="54" y="402" type="line" smooth="yes"/>
			<point x="83" y="397"/>
			<point x="88" y="386"/>
			<point x="88" y="341" type="curve" smooth="yes"/>
			<point x="88" y="146" type="line" smooth="yes"/>
			<point x="88" y="111"/>
			<point x="81" y="104"/>
			<point x="62" y="101" type="curve" smooth="yes"/>
			<point x="29" y="95" type="line"/>
		</contour>
	</outline>
</glyph>
<glyph name="Lslash" format="2">
	<unicode hex="0141"/>
	<advance width="661"/>
	<outline>
		<contour>
			<point x="508" y="270" type="line"/>
			<point x="477" y="158"/>
			<point x="459" y="122"/>
			<point x="388" y="122" type="curve" smooth="yes"/>
			<point x="330" y="122" type="line"/>
			<point x="330" y="322" type="line"/>
			<point x="456" y="376" type="line"/>
			<point x="456" y="512" type="line"/>
			<point x="330" y="457" type="line"/>
			<point x="330" y="550" type="line" smooth="yes"/>
			<point x="330" y="582"/>
			<point x="337" y="593"/>
			<point x="365" y="597" type="curve" smooth="yes"/>
			<point x="408" y="603" type="line"/>
			<point x="408" y="700" type="line"/>
			<point x="36" y="700" type="line"/>
			<point x="36" y="602" type="line"/>
			<point x="63" y="598" type="line" smooth="yes"/>
			<point x="86" y="595"/>
			<point x="95" y="584"/>
			<point x="95" y="550" type="curve" smooth="yes"/>
			<point x="95" y="388" type="line"/>
			<point x="13" y="354" type="line"/>
			<point x="13" y="218" type="line"/>
			<point x="95" y="254" type="line"/>
			<point x="95" y="155" type="line" smooth="yes"/>
			<point x="95" y="115"/>
			<point x="89" y="109"/>
			<point x="65" y="104" type="curve" smooth="yes"/>
			<point x="36" y="98" type="line"/>
			<point x="36" y="0" type="line"/>
			<point x="613" y="0" type="line"/>
			<point x="641" y="270" type="line"/>
		</contour>
	</outline>
	<anchor name="bottom" x="323" y="-30"/>
	<anchor name="top" x="206" y="730"/>
</glyph>
<glyph name="lslash" format="2">
	<unicode hex="0142"/>
	<advance width="424"/>
	<outline>
		<contour>
			<point x="39" y="0" type="line"/>
			<point x="384" y="0" type="line"/>
			<point x="384" y="94" type="line"/>
			<point x="353" y="100" type="line" smooth="yes"/>
			<point x="329" y="105"/>
			<point x="324" y="111"/>
			<point x="324" y="148" type="curve" smooth="yes"/>
			<point x="324" y="368" type="line"/>
			<point x="398" y="397" type="line"/>
			<point x="398" y="525" type="line"/>
			<point x="324" y="498" type="line"/>
			<point x="324" y="755" type="line"/>
			<point x="304" y="768" type="line"/>
			<point x="43" y="754" type="line"/>
			<point x="36" y="650" type="line"/>
			<point x="63" y="646" type="line" smooth="yes"/>
			<point x="94" y="641"/>
			<point x="99" y="629"/>
			<point x="99" y="585" type="curve" smooth="yes"/>
			<point x="99" y="434" type="line"/>
			<point x="25" y="406" type="line"/>
			<point x="25" y="279" type="line"/>
			<point x="99" y="308" type="line"/>
			<point x="99" y="149" type="line" smooth="yes"/>
			<point x="99" y="112"/>
			<point x="94" y="105"/>
			<point x="72" y="101" type="curve" smooth="yes"/>
			<point x="39" y="95" type="line"/>
		</contour>
	</outline>
	<anchor name="bottom" x="215" y="-30"/>
	<anchor name="top" x="178" y="780"/>
</glyph>
<glyph name="Eng" format="2">
	<unicode hex="014A"/>
	<advance width="843"/>
	<outline>
		<contour>
			<point x="36" y="0" type="line"/>
			<point x="325" y="0" type="line"/>
			<point x="325" y="98" type="line"/>
			<point x="299" y="104" type="line" smooth="yes"/>
			<point x="274" y="110"/>
			<point x="267" y="114"/>
			<point x="267" y="151" type="curve" smooth="yes"/>
			<point x="267" y="368" type="line"/>
			<point x="271" y="368" type="line"/>
			<point x="516" y="7" type="line"/>
			<point x="516" y="6" type="line"/>
			<point x="510" y="-51"/>
			<point x="489" y="-93"/>
			<point x="444" y="-139" type="curve"/>
			<point x="518" y="-230" type="line"/>
			<point x="632" y="-168"/>
			<point x="754" y="-87"/>
			<point x="754" y="95" type="curve" smooth="yes"/>
			<point x="754" y="547" type="line" smooth="yes"/>
			<point x="754" y="584"/>
			<point x="761" y="594"/>
			<point x="785" y="598" type="curve" smooth="yes"/>
			<point x="812" y="602" type="line"/>
			<point x="812" y="700" type="line"/>
			<point x="524" y="700" type="line"/>
			<point x="524" y="602" type="line"/>
			<point x="549" y="596" type="line" smooth="yes"/>
			<point x="575" y="590"/>
			<point x="582" y="582"/>
			<point x="582" y="549" type="curve" smooth="yes"/>
			<point x="582" y="300" type="line"/>
			<point x="578" y="300" type="line"/>
			<point x="325" y="700" type="line"/>
			<point x="36" y="700" type="line"/>
			<point x="36" y="602" type="line"/>
			<point x="62" y="598" type="line" smooth="yes"/>
			<point x="88" y="594"/>
			<point x="95" y="585"/>
			<point x="95" y="548" type="curve" smooth="yes"/>
			<point x="95" y="155" type="line" smooth="yes"/>
			<point x="95" y="116"/>
			<point x="88" y="109"/>
			<point x="64" y="104" type="curve" smooth="yes"/>
			<point x="36" y="98" type="line"/>
		</contour>
	</outline>
	<anchor name="bottom" x="181" y="-30"/>
	<anchor name="top" x="421" y="756"/>
</glyph>
<glyph name="eng" format="2">
	<unicode hex="014B"/>
	<advance width="712"/>
	<outline>
		<contour>
			<point x="481" y="531" type="curve" smooth="yes"/>
			<point x="386" y="531"/>
			<point x="331" y="490"/>
			<point x="300" y="422" type="curve"/>
			<point x="296" y="422" type="line"/>
			<point x="288" y="514" type="line"/>
			<point x="269" y="525" type="line"/>
			<point x="34" y="511" type="line"/>
			<point x="25" y="407" type="line"/>
			<point x="55" y="402" type="line" smooth="yes"/>
			<point x="86" y="397"/>
			<point x="90" y="384"/>
			<point x="90" y="346" type="curve" smooth="yes"/>
			<point x="90" y="149" type="line" smooth="yes"/>
			<point x="90" y="113"/>
			<point x="85" y="105"/>
			<point x="64" y="101" type="curve" smooth="yes"/>
			<point x="32" y="95" type="line"/>
			<point x="32" y="0" type="line"/>
			<point x="356" y="0" type="line"/>
			<point x="356" y="94" type="line"/>
			<point x="339" y="97" type="line" smooth="yes"/>
			<point x="318" y="101"/>
			<point x="315" y="113"/>
			<point x="315" y="141" type="curve" smooth="yes"/>
			<point x="315" y="286" type="line" smooth="yes"/>
			<point x="315" y="368"/>
			<point x="345" y="384"/>
			<point x="379" y="384" type="curve" smooth="yes"/>
			<point x="413" y="384"/>
			<point x="427" y="362"/>
			<point x="427" y="305" type="curve" smooth="yes"/>
			<point x="427" y="54" type="line" smooth="yes"/>
			<point x="427" y="-30"/>
			<point x="408" y="-81"/>
			<point x="352" y="-139" type="curve"/>
			<point x="426" y="-230" type="line"/>
			<point x="540" y="-168"/>
			<point x="652" y="-87"/>
			<point x="652" y="95" type="curve" smooth="yes"/>
			<point x="652" y="360" type="line" smooth="yes"/>
			<point x="652" y="452"/>
			<point x="607" y="531"/>
		</contour>
	</outline>
	<anchor name="bottom" x="195" y="-30"/>
	<anchor name="top" x="379" y="550"/>
</glyph>
<glyph name="Scedilla" format="2">
	<unicode hex="015E"/>
	<advance width="629"/>
	<outline>
		<contour>
			<point x="354" y="-258" type="curve" smooth="yes"/>
			<point x="422" y="-258"/>
			<point x="481" y="-225"/>
			<point x="481" y="-140" type="curve" smooth="yes"/>
			<point x="481" y="-78"/>
			<point x="439" y="-31"/>
			<point x="353" y="-39" type="curve"/>
			<point x="363" y="-13" type="line"/>
			<point x="478" y="-3"/>
			<point x="604" y="69"/>
			<point x="604" y="220" type="curve" smooth="yes"/>
			<point x="604" y="380"/>
			<point x="484" y="424"/>
			<point x="371" y="454" type="curve" smooth="yes"/>
			<point x="305" y="472"/>
			<point x="247" y="488"/>
			<point x="247" y="536" type="curve" smooth="yes"/>
			<point x="247" y="571"/>
			<point x="280" y="587"/>
			<point x="318" y="587" type="curve" smooth="yes"/>
			<point x="362" y="587"/>
			<point x="435" y="570"/>
			<point x="476" y="465" type="curve"/>
			<point x="579" y="486" type="line"/>
			<point x="557" y="714" type="line"/>
			<point x="476" y="714" type="line"/>
			<point x="463" y="667" type="line"/>
			<point x="418" y="698"/>
			<point x="378" y="714"/>
			<point x="302" y="714" type="curve" smooth="yes"/>
			<point x="78" y="714"/>
			<point x="36" y="548"/>
			<point x="36" y="479" type="curve" smooth="yes"/>
			<point x="36" y="317"/>
			<point x="155" y="272"/>
			<point x="244" y="246" type="curve" smooth="yes"/>
			<point x="333" y="220"/>
			<point x="377" y="205"/>
			<point x="377" y="161" type="curve" smooth="yes"/>
			<point x="377" y="133"/>
			<point x="353" y="112"/>
			<point x="297" y="112" type="curve" smooth="yes"/>
			<point x="217" y="112"/>
			<point x="155" y="166"/>
			<point x="131" y="234" type="curve"/>
			<point x="30" y="216" type="line"/>
			<point x="42" y="-6" type="line"/>
			<point x="138" y="-6" type="line"/>
			<point x="149" y="43" type="line"/>
			<point x="177" y="22"/>
			<point x="216" y="4"/>
			<point x="262" y="-6" type="curve"/>
			<point x="239" y="-65" type="line"/>
			<point x="254" y="-109" type="line"/>
			<point x="266" y="-105"/>
			<point x="280" y="-103"/>
			<point x="295" y="-103" type="curve" smooth="yes"/>
			<point x="327" y="-103"/>
			<point x="336" y="-119"/>
			<point x="336" y="-135" type="curve" smooth="yes"/>
			<point x="336" y="-156"/>
			<point x="324" y="-169"/>
			<point x="296" y="-169" type="curve" smooth="yes"/>
			<point x="274" y="-169"/>
			<point x="248" y="-166"/>
			<point x="217" y="-154" type="curve"/>
			<point x="197" y="-221" type="line"/>
			<point x="223" y="-238"/>
			<point x="281" y="-258"/>
		</contour>
	</outline>
	<anchor name="bottom" x="330" y="-30"/>
	<anchor name="top" x="320" y="730"/>
</glyph>
<glyph name="scedilla" format="2">
	<unicode hex="015F"/>
	<advance width="545"/>
	<outline>
		<contour>
			<point x="305" y="-258" type="curve" smooth="yes"/>
			<point x="373" y="-258"/>
			<point x="432" y="-225"/>
			<point x="432" y="-140" type="curve" smooth="yes"/>
			<point x="432" y="-78"/>
			<point x="390" y="-31"/>
			<point x="304" y="-39" type="curve"/>
			<point x="313" y="-14" type="line"/>
			<point x="439" y="-8"/>
			<point x="520" y="61"/>
			<point x="520" y="180" type="curve" smooth="yes"/>
			<point x="520" y="306"/>
			<point x="417" y="331"/>
			<point x="313" y="354" type="curve" smooth="yes"/>
			<point x="240" y="370"/>
			<point x="210" y="378"/>
			<point x="210" y="406" type="curve" smooth="yes"/>
			<point x="210" y="431"/>
			<point x="230" y="442"/>
			<point x="268" y="442" type="curve" smooth="yes"/>
			<point x="317" y="442"/>
			<point x="364" y="420"/>
			<point x="394" y="360" type="curve"/>
			<point x="498" y="355" type="line"/>
			<point x="489" y="531" type="line"/>
			<point x="399" y="531" type="line"/>
			<point x="390" y="499" type="line"/>
			<point x="361" y="515"/>
			<point x="315" y="531"/>
			<point x="252" y="531" type="curve" smooth="yes"/>
			<point x="126" y="531"/>
			<point x="35" y="471"/>
			<point x="35" y="353" type="curve" smooth="yes"/>
			<point x="35" y="216"/>
			<point x="163" y="191"/>
			<point x="233" y="177" type="curve" smooth="yes"/>
			<point x="310" y="162"/>
			<point x="341" y="155"/>
			<point x="341" y="127" type="curve" smooth="yes"/>
			<point x="341" y="102"/>
			<point x="324" y="87"/>
			<point x="278" y="87" type="curve" smooth="yes"/>
			<point x="222" y="87"/>
			<point x="174" y="115"/>
			<point x="142" y="175" type="curve"/>
			<point x="34" y="169" type="line"/>
			<point x="47" y="-14" type="line"/>
			<point x="136" y="-14" type="line"/>
			<point x="147" y="22" type="line"/>
			<point x="166" y="12"/>
			<point x="187" y="3"/>
			<point x="213" y="-4" type="curve"/>
			<point x="190" y="-65" type="line"/>
			<point x="205" y="-109" type="line"/>
			<point x="217" y="-105"/>
			<point x="231" y="-103"/>
			<point x="246" y="-103" type="curve" smooth="yes"/>
			<point x="278" y="-103"/>
			<point x="287" y="-119"/>
			<point x="287" y="-135" type="curve" smooth="yes"/>
			<point x="287" y="-156"/>
			<point x="275" y="-169"/>
			<point x="247" y="-169" type="curve" smooth="yes"/>
			<point x="225" y="-169"/>
			<point x="199" y="-166"/>
			<point x="168" y="-154" type="curve"/>
			<point x="148" y="-221" type="line"/>
			<point x="174" y="-238"/>
			<point x="232" y="-258"/>
		</contour>
	</outline>
	<anchor name="bottom" x="281" y="-30"/>
	<anchor name="top" x="269" y="550"/>
</glyph>
<glyph name="Tbar" format="2">
	<unicode hex="0166"/>
	<advance width="756"/>
	<outline>
		<contour>
			<point x="167" y="0" type="line"/>
			<point x="590" y="0" type="line"/>
			<point x="590" y="98" type="line"/>
			<point x="530" y="105" type="line" smooth="yes"/>
			<point x="496" y="109"/>
			<point x="496" y="131"/>
			<point x="496" y="157" type="curve" smooth="yes"/>
			<point x="496" y="259" type="line"/>
			<point x="620" y="259" type="line"/>
			<point x="620" y="398" type="line"/>
			<point x="496" y="398" type="line"/>
			<point x="496" y="586" type="line"/>
			<point x="515" y="586" type="line" smooth="yes"/>
			<point x="568" y="586"/>
			<point x="594" y="559"/>
			<point x="615" y="449" type="curve"/>
			<point x="751" y="473" type="line"/>
			<point x="723" y="700" type="line"/>
			<point x="34" y="700" type="line"/>
			<point x="5" y="474" type="line"/>
			<point x="142" y="449" type="line"/>
			<point x="163" y="557"/>
			<point x="185" y="586"/>
			<point x="246" y="586" type="curve" smooth="yes"/>
			<point x="261" y="586" type="line"/>
			<point x="261" y="398" type="line"/>
			<point x="140" y="398" type="line"/>
			<point x="127" y="259" type="line"/>
			<point x="261" y="259" type="line"/>
			<point x="261" y="157" type="line" smooth="yes"/>
			<point x="261" y="130"/>
			<point x="257" y="108"/>
			<point x="228" y="105" type="curve" smooth="yes"/>
			<point x="167" y="98" type="line"/>
		</contour>
	</outline>
	<anchor name="bottom" x="377" y="-30"/>
	<anchor name="top" x="375" y="730"/>
</glyph>
<glyph name="tbar" format="2">
	<unicode hex="0167"/>
	<advance width="473"/>
	<outline>
		<contour>
			<point x="265" y="-14" type="curve" smooth="yes"/>
			<point x="363" y="-14"/>
			<point x="427" y="21"/>
			<point x="468" y="61" type="curve"/>
			<point x="423" y="149" type="line"/>
			<point x="402" y="137"/>
			<point x="375" y="128"/>
			<point x="353" y="128" type="curve" smooth="yes"/>
			<point x="312" y="128"/>
			<point x="306" y="155"/>
			<point x="306" y="195" type="curve" smooth="yes"/>
			<point x="306" y="219" type="line"/>
			<point x="432" y="219" type="line"/>
			<point x="432" y="335" type="line"/>
			<point x="306" y="335" type="line"/>
			<point x="306" y="402" type="line"/>
			<point x="434" y="402" type="line"/>
			<point x="434" y="517" type="line"/>
			<point x="306" y="517" type="line"/>
			<point x="306" y="686" type="line"/>
			<point x="284" y="697" type="line"/>
			<point x="158" y="680" type="line"/>
			<point x="145" y="573"/>
			<point x="122" y="520"/>
			<point x="15" y="501" type="curve"/>
			<point x="15" y="402" type="line"/>
			<point x="81" y="402" type="line"/>
			<point x="81" y="335" type="line"/>
			<point x="9" y="335" type="line"/>
			<point x="-2" y="219" type="line"/>
			<point x="81" y="219" type="line"/>
			<point x="81" y="148" type="line" smooth="yes"/>
			<point x="81" y="43"/>
			<point x="147" y="-14"/>
		</contour>
	</outline>
	<anchor name="bottom" x="260" y="-30"/>
</glyph>
<glyph name="Ohorn" format="2">
	<unicode hex="01A0"/>
	<advance width="920"/>
	<outline>
		<contour>
			<point x="389" y="-14" type="curve" smooth="yes"/>
			<point x="646" y="-14"/>
			<point x="759" y="161"/>
			<point x="759" y="366" type="curve" smooth="yes"/>
			<point x="759" y="399"/>
			<point x="756" y="429"/>
			<point x="751" y="457" type="curve"/>
			<point x="866" y="484"/>
			<point x="920" y="565"/>
			<point x="920" y="666" type="curve" smooth="yes"/>
			<point x="920" y="746"/>
			<point x="867" y="782"/>
			<point x="809" y="782" type="curve" smooth="yes"/>
			<point x="765" y="782"/>
			<point x="714" y="756"/>
			<point x="714" y="693" type="curve" smooth="yes"/>
			<point x="714" y="648"/>
			<point x="738" y="618"/>
			<point x="788" y="618" type="curve" smooth="yes"/>
			<point x="802" y="618" type="line"/>
			<point x="800" y="576"/>
			<point x="777" y="552"/>
			<point x="726" y="539" type="curve"/>
			<point x="673" y="655"/>
			<point x="561" y="714"/>
			<point x="414" y="714" type="curve" smooth="yes"/>
			<point x="188" y="714"/>
			<point x="35" y="586"/>
			<point x="35" y="340" type="curve" smooth="yes"/>
			<point x="35" y="139"/>
			<point x="136" y="-14"/>
		</contour>
		<contour>
			<point x="401" y="120" type="curve" smooth="yes"/>
			<point x="314" y="120"/>
			<point x="280" y="193"/>
			<point x="280" y="357" type="curve" smooth="yes"/>
			<point x="280" y="534"/>
			<point x="318" y="581"/>
			<point x="394" y="581" type="curve" smooth="yes"/>
			<point x="475" y="581"/>
			<point x="514" y="513"/>
			<point x="514" y="350" type="curve" smooth="yes"/>
			<point x="514" y="162"/>
			<point x="474" y="120"/>
		</contour>
	</outline>
	<anchor name="bottom" x="395" y="-30"/>
	<anchor name="top" x="391" y="730"/>
</glyph>
<glyph name="Uhorn" format="2">
	<unicode hex="01AF"/>
	<advance width="919"/>
	<outline>
		<contour>
			<point x="389" y="-14" type="curve" smooth="yes"/>
			<point x="579" y="-14"/>
			<point x="678" y="71"/>
			<point x="678" y="252" type="curve" smooth="yes"/>
			<point x="678" y="448" type="line"/>
			<point x="844" y="456"/>
			<point x="919" y="547"/>
			<point x="919" y="666" type="curve" smooth="yes"/>
			<point x="919" y="746"/>
			<point x="866" y="782"/>
			<point x="808" y="782" type="curve" smooth="yes"/>
			<point x="764" y="782"/>
			<point x="713" y="756"/>
			<point x="713" y="693" type="curve" smooth="yes"/>
			<point x="713" y="648"/>
			<point x="737" y="618"/>
			<point x="787" y="618" type="curve" smooth="yes"/>
			<point x="801" y="618" type="line"/>
			<point x="798" y="566"/>
			<point x="764" y="534"/>
			<point x="678" y="525" type="curve"/>
			<point x="678" y="700" type="line"/>
			<point x="482" y="700" type="line"/>
			<point x="482" y="602" type="line"/>
			<point x="507" y="598" type="line" smooth="yes"/>
			<point x="537" y="593"/>
			<point x="542" y="583"/>
			<point x="542" y="546" type="curve" smooth="yes"/>
			<point x="542" y="243" type="line" smooth="yes"/>
			<point x="542" y="185"/>
			<point x="522" y="132"/>
			<point x="428" y="132" type="curve" smooth="yes"/>
			<point x="348" y="132"/>
			<point x="320" y="178"/>
			<point x="320" y="246" type="curve" smooth="yes"/>
			<point x="320" y="547" type="line" smooth="yes"/>
			<point x="320" y="579"/>
			<point x="326" y="591"/>
			<point x="350" y="596" type="curve" smooth="yes"/>
			<point x="379" y="602" type="line"/>
			<point x="379" y="700" type="line"/>
			<point x="26" y="700" type="line"/>
			<point x="26" y="602" type="line"/>
			<point x="51" y="598" type="line" smooth="yes"/>
			<point x="80" y="593"/>
			<point x="85" y="582"/>
			<point x="85" y="546" type="curve" smooth="yes"/>
			<point x="85" y="252" type="line" smooth="yes"/>
			<point x="85" y="123"/>
			<point x="137" y="-14"/>
		</contour>
	</outline>
	<anchor name="bottom" x="412" y="-30"/>
	<anchor name="top" x="427" y="730"/>
</glyph>
<glyph name="oogonek" format="2">
	<unicode hex="01EB"/>
	<advance width="662"/>
	<outline>
		<contour>
			<point x="342" y="-255" type="curve" smooth="yes"/>
			<point x="420" y="-255"/>
			<point x="471" y="-227"/>
			<point x="507" y="-195" type="curve"/>
			<point x="473" y="-130" type="line"/>
			<point x="443" y="-146"/>
			<point x="419" y="-150"/>
			<point x="403" y="-150" type="curve" smooth="yes"/>
			<point x="381" y="-150"/>
			<point x="369" y="-142"/>
			<point x="369" y="-115" type="curve" smooth="yes"/>
			<point x="369" y="-88"/>
			<point x="381" y="-59"/>
			<point x="445" y="0" type="curve"/>
			<point x="569" y="33"/>
			<point x="635" y="123"/>
			<point x="635" y="268" type="curve" smooth="yes"/>
			<point x="635" y="461"/>
			<point x="514" y="531"/>
			<point x="345" y="531" type="curve" smooth="yes"/>
			<point x="158" y="531"/>
			<point x="27" y="453"/>
			<point x="27" y="251" type="curve" smooth="yes"/>
			<point x="27" y="89"/>
			<point x="114" y="2"/>
			<point x="275" y="-12" type="curve" smooth="yes"/>
			<point x="288" y="-13"/>
			<point x="302" y="-14"/>
			<point x="317" y="-14" type="curve"/>
			<point x="254" y="-51"/>
			<point x="205" y="-95"/>
			<point x="205" y="-154" type="curve" smooth="yes"/>
			<point x="205" y="-196"/>
			<point x="229" y="-255"/>
		</contour>
		<contour>
			<point x="335" y="102" type="curve" smooth="yes"/>
			<point x="276" y="102"/>
			<point x="262" y="154"/>
			<point x="262" y="285" type="curve" smooth="yes"/>
			<point x="262" y="393"/>
			<point x="290" y="415"/>
			<point x="330" y="415" type="curve" smooth="yes"/>
			<point x="374" y="415"/>
			<point x="400" y="390"/>
			<point x="400" y="251" type="curve" smooth="yes"/>
			<point x="400" y="146"/>
			<point x="390" y="102"/>
		</contour>
	</outline>
	<anchor name="bottom" x="330" y="-30"/>
	<anchor name="top" x="332" y="550"/>
</glyph>
<glyph name="Aringacute" format="2">
	<unicode hex="01FA"/>
	<advance width="776"/>
	<outline>
		<contour>
			<point x="0" y="0" type="line"/>
			<point x="284" y="0" type="line"/>
			<point x="284" y="99" type="line"/>
			<point x="253" y="104" type="line" smooth="yes"/>
			<point x="212" y="111"/>
			<point x="218" y="134"/>
			<point x="227" y="162" type="curve" smooth="yes"/>
			<point x="236" y="190" type="line"/>
			<point x="442" y="190" type="line"/>
			<point x="451" y="158" type="line" smooth="yes"/>
			<point x="459" y="129"/>
			<point x="455" y="111"/>
			<point x="432" y="107" type="curve" smooth="yes"/>
			<point x="397" y="101" type="line"/>
			<point x="397" y="0" type="line"/>
			<point x="776" y="0" type="line"/>
			<point x="776" y="98" type="line"/>
			<point x="747" y="103" type="line" smooth="yes"/>
			<point x="722" y="107"/>
			<point x="712" y="116"/>
			<point x="697" y="157" type="curve" smooth="yes"/>
			<point x="511" y="666" type="line"/>
			<point x="547" y="687"/>
			<point x="568" y="719"/>
			<point x="568" y="760" type="curve" smooth="yes"/>
			<point x="568" y="843"/>
			<point x="514" y="882"/>
			<point x="400" y="882" type="curve" smooth="yes"/>
			<point x="298" y="882"/>
			<point x="223" y="844"/>
			<point x="223" y="760" type="curve" smooth="yes"/>
			<point x="223" y="722"/>
			<point x="240" y="691"/>
			<point x="269" y="670" type="curve"/>
			<point x="84" y="163" type="line" smooth="yes"/>
			<point x="72" y="131"/>
			<point x="59" y="115"/>
			<point x="33" y="109" type="curve" smooth="yes"/>
			<point x="0" y="101" type="line"/>
		</contour>
		<contour>
			<point x="272" y="299" type="line"/>
			<point x="345" y="522" type="line"/>
			<point x="348" y="522" type="line"/>
			<point x="412" y="299" type="line"/>
		</contour>
		<contour>
			<point x="395" y="701" type="curve" smooth="yes"/>
			<point x="372" y="701"/>
			<point x="360" y="711"/>
			<point x="360" y="761" type="curve" smooth="yes"/>
			<point x="360" y="805"/>
			<point x="371" y="819"/>
			<point x="394" y="819" type="curve" smooth="yes"/>
			<point x="414" y="819"/>
			<point x="430" y="810"/>
			<point x="430" y="761" type="curve" smooth="yes"/>
			<point x="430" y="716"/>
			<point x="416" y="701"/>
		</contour>
		<contour>
			<point x="290" y="891" type="line"/>
			<point x="476" y="966" type="line" smooth="yes"/>
			<point x="524" y="985"/>
			<point x="539" y="1010"/>
			<point x="539" y="1041" type="curve" smooth="yes"/>
			<point x="539" y="1086"/>
			<point x="513" y="1128"/>
			<point x="462" y="1128" type="curve" smooth="yes"/>
			<point x="445" y="1128"/>
			<point x="429" y="1124"/>
			<point x="407" y="1102" type="curve" smooth="yes"/>
			<point x="252" y="951" type="line"/>
		</contour>
	</outline>
	<anchor name="bottom" x="366" y="-30"/>
	<anchor name="top" x="387" y="730"/>
</glyph>
<glyph name="jdotless" format="2">
	<unicode hex="0237"/>
	<advance width="365"/>
	<outline>
		<contour>
			<point x="79" y="-230" type="line"/>
			<point x="193" y="-168"/>
			<point x="305" y="-87"/>
			<point x="305" y="95" type="curve" smooth="yes"/>
			<point x="305" y="514" type="line"/>
			<point x="286" y="525" type="line"/>
			<point x="22" y="511" type="line"/>
			<point x="15" y="407" type="line"/>
			<point x="45" y="402" type="line" smooth="yes"/>
			<point x="74" y="397"/>
			<point x="80" y="387"/>
			<point x="80" y="343" type="curve" smooth="yes"/>
			<point x="80" y="54" type="line" smooth="yes"/>
			<point x="80" y="-30"/>
			<point x="61" y="-81"/>
			<point x="5" y="-139" type="curve"/>
		</contour>
	</outline>
	<anchor name="top" x="163" y="550"/>
</glyph>
<glyph name="alpha-latin" format="2">
	<unicode hex="0251"/>
	<advance width="705"/>
	<outline>
		<contour>
			<point x="253" y="-14" type="curve" smooth="yes"/>
			<point x="325" y="-14"/>
			<point x="388" y="12"/>
			<point x="417" y="73" type="curve"/>
			<point x="422" y="73" type="line"/>
			<point x="440" y="10"/>
			<point x="482" y="-14"/>
			<point x="551" y="-14" type="curve" smooth="yes"/>
			<point x="615" y="-14"/>
			<point x="671" y="12"/>
			<point x="700" y="35" type="curve"/>
			<point x="684" y="113" type="line"/>
			<point x="674" y="110"/>
			<point x="663" y="107"/>
			<point x="651" y="107" type="curve" smooth="yes"/>
			<point x="626" y="107"/>
			<point x="620" y="121"/>
			<point x="620" y="152" type="curve" smooth="yes"/>
			<point x="620" y="517" type="line"/>
			<point x="506" y="531" type="line"/>
			<point x="441" y="478" type="line"/>
			<point x="394" y="515"/>
			<point x="352" y="531"/>
			<point x="285" y="531" type="curve" smooth="yes"/>
			<point x="117" y="531"/>
			<point x="27" y="420"/>
			<point x="27" y="245" type="curve" smooth="yes"/>
			<point x="27" y="86"/>
			<point x="92" y="-14"/>
		</contour>
		<contour>
			<point x="329" y="111" type="curve" smooth="yes"/>
			<point x="283" y="111"/>
			<point x="262" y="156"/>
			<point x="262" y="256" type="curve" smooth="yes"/>
			<point x="262" y="358"/>
			<point x="282" y="404"/>
			<point x="332" y="404" type="curve" smooth="yes"/>
			<point x="356" y="404"/>
			<point x="374" y="397"/>
			<point x="395" y="385" type="curve"/>
			<point x="395" y="202" type="line" smooth="yes"/>
			<point x="395" y="143"/>
			<point x="373" y="111"/>
		</contour>
	</outline>
</glyph>
<glyph name="gsingle" format="2">
	<unicode hex="0261"/>
	<advance width="686"/>
	<outline>
		<contour>
			<point x="276" y="-231" type="curve" smooth="yes"/>
			<point x="391" y="-231"/>
			<point x="626" y="-188"/>
			<point x="626" y="117" type="curve" smooth="yes"/>
			<point x="626" y="517" type="line"/>
			<point x="512" y="531" type="line"/>
			<point x="447" y="478" type="line"/>
			<point x="400" y="515"/>
			<point x="358" y="531"/>
			<point x="288" y="531" type="curve" smooth="yes"/>
			<point x="123" y="531"/>
			<point x="27" y="420"/>
			<point x="27" y="257" type="curve" smooth="yes"/>
			<point x="27" y="86"/>
			<point x="98" y="10"/>
			<point x="253" y="10" type="curve" smooth="yes"/>
			<point x="306" y="10"/>
			<point x="368" y="32"/>
			<point x="396" y="75" type="curve"/>
			<point x="401" y="75" type="line"/>
			<point x="401" y="64" type="line" smooth="yes"/>
			<point x="401" y="-72"/>
			<point x="366" y="-130"/>
			<point x="291" y="-130" type="curve" smooth="yes"/>
			<point x="265" y="-130"/>
			<point x="243" y="-125"/>
			<point x="232" y="-121" type="curve"/>
			<point x="241" y="-96"/>
			<point x="243" y="-83"/>
			<point x="243" y="-70" type="curve" smooth="yes"/>
			<point x="243" y="-45"/>
			<point x="221" y="-14"/>
			<point x="161" y="-14" type="curve" smooth="yes"/>
			<point x="79" y="-14"/>
			<point x="58" y="-70"/>
			<point x="58" y="-104" type="curve" smooth="yes"/>
			<point x="58" y="-188"/>
			<point x="161" y="-231"/>
		</contour>
		<contour>
			<point x="332" y="135" type="curve" smooth="yes"/>
			<point x="283" y="135"/>
			<point x="262" y="180"/>
			<point x="262" y="268" type="curve" smooth="yes"/>
			<point x="262" y="358"/>
			<point x="282" y="404"/>
			<point x="335" y="404" type="curve" smooth="yes"/>
			<point x="362" y="404"/>
			<point x="380" y="397"/>
			<point x="401" y="385" type="curve"/>
			<point x="401" y="226" type="line" smooth="yes"/>
			<point x="401" y="167"/>
			<point x="379" y="135"/>
		</contour>
	</outline>
</glyph>
<glyph name="commaturnedmod" format="2">
	<unicode hex="02BB"/>
	<outline>
		<contour>
			<point x="0" y="576" type="curve" smooth="yes"/>
			<point x="39" y="576"/>
			<point x="90" y="595"/>
			<point x="90" y="651" type="curve" smooth="yes"/>
			<point x="90" y="677"/>
			<point x="77" y="703"/>
			<point x="38" y="703" type="curve" smooth="yes"/>
			<point x="31" y="703" type="line"/>
			<point x="34" y="731"/>
			<point x="51" y="758"/>
			<point x="83" y="787" type="curve"/>
			<point x="37" y="840" type="line"/>
			<point x="-73" y="775"/>
			<point x="-96" y="713"/>
			<point x="-96" y="663" type="curve" smooth="yes"/>
			<point x="-96" y="600"/>
			<point x="-49" y="576"/>
		</contour>
	</outline>
	<anchor name="_top" x="0" y="550"/>
</glyph>
<glyph name="circumflex" format="2">
	<unicode hex="02C6"/>
	<advance width="500"/>
	<outline>
		<contour>
			<point x="98" y="570" type="line"/>
			<point x="250" y="681" type="line"/>
			<point x="403" y="570" type="line"/>
			<point x="459" y="623" type="line"/>
			<point x="359" y="761" type="line" smooth="yes"/>
			<point x="327" y="806"/>
			<point x="310" y="828"/>
			<point x="251" y="828" type="curve" smooth="yes"/>
			<point x="209" y="828"/>
			<point x="186" y="819"/>
			<point x="152" y="773" type="curve" smooth="yes"/>
			<point x="42" y="623" type="line"/>
		</contour>
	</outline>
	<anchor name="_top" x="250" y="550"/>
</glyph>
<glyph name="breve" format="2">
	<unicode hex="02D8"/>
	<advance width="500"/>
	<outline>
		<contour>
			<point x="249" y="583" type="curve" smooth="yes"/>
			<point x="365" y="583"/>
			<point x="433" y="661"/>
			<point x="453" y="810" type="curve"/>
			<point x="371" y="827" type="line"/>
			<point x="350" y="762"/>
			<point x="324" y="718"/>
			<point x="252" y="718" type="curve" smooth="yes"/>
			<point x="188" y="718"/>
			<point x="148" y="753"/>
			<point x="131" y="827" type="curve"/>
			<point x="48" y="810" type="line"/>
			<point x="56" y="659"/>
			<point x="132" y="583"/>
		</contour>
	</outline>
	<anchor name="_top" x="250" y="550"/>
</glyph>
<glyph name="dotaccent" format="2">
	<unicode hex="02D9"/>
	<advance width="500"/>
	<outline>
		<contour>
			<point x="250" y="586" type="curve" smooth="yes"/>
			<point x="329" y="586"/>
			<point x="377" y="623"/>
			<point x="377" y="688" type="curve" smooth="yes"/>
			<point x="377" y="754"/>
			<point x="336" y="790"/>
			<point x="250" y="790" type="curve" smooth="yes"/>
			<point x="165" y="790"/>
			<point x="122" y="753"/>
			<point x="122" y="689" type="curve" smooth="yes"/>
			<point x="122" y="622"/>
			<point x="168" y="586"/>
		</contour>
	</outline>
	<anchor name="_top" x="250" y="550"/>
</glyph>
<glyph name="tilde" format="2">
	<unicode hex="02DC"/>
	<advance width="500"/>
	<outline>
		<contour>
			<point x="329" y="594" type="curve" smooth="yes"/>
			<point x="390" y="594"/>
			<point x="425" y="635"/>
			<point x="463" y="739" type="curve"/>
			<point x="392" y="778" type="line"/>
			<point x="381" y="749"/>
			<point x="367" y="737"/>
			<point x="347" y="737" type="curve" smooth="yes"/>
			<point x="317" y="737"/>
			<point x="294" y="748"/>
			<point x="269" y="759" type="curve" smooth="yes"/>
			<point x="243" y="771"/>
			<point x="216" y="784"/>
			<point x="177" y="784" type="curve" smooth="yes"/>
			<point x="113" y="784"/>
			<point x="80" y="751"/>
			<point x="38" y="639" type="curve"/>
			<point x="109" y="600" type="line"/>
			<point x="121" y="631"/>
			<point x="136" y="641"/>
			<point x="150" y="641" type="curve" smooth="yes"/>
			<point x="178" y="641"/>
			<point x="205" y="629"/>
			<point x="234" y="616" type="curve" smooth="yes"/>
			<point x="261" y="604"/>
			<point x="292" y="594"/>
		</contour>
	</outline>
	<anchor name="_top" x="250" y="550"/>
</glyph>
<glyph name="gravecomb" format="2">
	<unicode hex="0300"/>
	<outline>
		<contour>
			<point x="43" y="570" type="line"/>
			<point x="91" y="618" type="line"/>
			<point x="-25" y="796" type="line" smooth="yes"/>
			<point x="-44" y="825"/>
			<point x="-61" y="830"/>
			<point x="-85" y="830" type="curve" smooth="yes"/>
			<point x="-142" y="830"/>
			<point x="-161" y="773"/>
			<point x="-161" y="746" type="curve" smooth="yes"/>
			<point x="-161" y="724"/>
			<point x="-150" y="700"/>
			<point x="-121" y="680" type="curve" smooth="yes"/>
		</contour>
	</outline>
	<anchor name="_top" x="0" y="550"/>
</glyph>
<glyph name="brevecomb" format="2">
	<unicode hex="0306"/>
	<outline>
		<contour>
			<point x="-1" y="583" type="curve" smooth="yes"/>
			<point x="115" y="583"/>
			<point x="183" y="661"/>
			<point x="203" y="810" type="curve"/>
			<point x="124" y="822" type="line"/>
			<point x="102" y="745"/>
			<point x="71" y="718"/>
			<point x="2" y="718" type="curve" smooth="yes"/>
			<point x="-52" y="718"/>
			<point x="-100" y="738"/>
			<point x="-129" y="822" type="curve"/>
			<point x="-202" y="810" type="line"/>
			<point x="-188" y="649"/>
			<point x="-118" y="583"/>
		</contour>
	</outline>
	<anchor name="_top" x="0" y="550"/>
</glyph>
<glyph name="dotaccentcomb" format="2">
	<unicode hex="0307"/>
	<outline>
		<contour>
			<point x="0" y="586" type="curve" smooth="yes"/>
			<point x="79" y="586"/>
			<point x="127" y="623"/>
			<point x="127" y="688" type="curve" smooth="yes"/>
			<point x="127" y="754"/>
			<point x="86" y="790"/>
			<point x="0" y="790" type="curve" smooth="yes"/>
			<point x="-85" y="790"/>
			<point x="-128" y="753"/>
			<point x="-128" y="689" type="curve" smooth="yes"/>
			<point x="-128" y="622"/>
			<point x="-82" y="586"/>
		</contour>
	</outline>
	<anchor name="_top" x="0" y="550"/>
</glyph>
<glyph name="ringcomb" format="2">
	<unicode hex="030A"/>
	<outline>
		<contour>
			<point x="-10" y="578" type="curve" smooth="yes"/>
			<point x="98" y="578"/>
			<point x="173" y="622"/>
			<point x="173" y="700" type="curve" smooth="yes"/>
			<point x="173" y="783"/>
			<point x="119" y="822"/>
			<point x="5" y="822" type="curve" smooth="yes"/>
			<point x="-97" y="822"/>
			<point x="-172" y="784"/>
			<point x="-172" y="700" type="curve" smooth="yes"/>
			<point x="-172" y="625"/>
			<point x="-108" y="578"/>
		</contour>
		<contour>
			<point x="0" y="641" type="curve" smooth="yes"/>
			<point x="-23" y="641"/>
			<point x="-35" y="651"/>
			<point x="-35" y="701" type="curve" smooth="yes"/>
			<point x="-35" y="745"/>
			<point x="-24" y="759"/>
			<point x="-1" y="759" type="curve" smooth="yes"/>
			<point x="19" y="759"/>
			<point x="35" y="750"/>
			<point x="35" y="701" type="curve" smooth="yes"/>
			<point x="35" y="656"/>
			<point x="21" y="641"/>
		</contour>
	</outline>
	<anchor name="_top" x="0" y="550"/>
</glyph>
<glyph name="breveinvertedcomb" format="2">
	<unicode hex="0311"/>
	<outline>
		<contour>
			<point x="2" y="817" type="curve" smooth="yes"/>
			<point x="-114" y="817"/>
			<point x="-182" y="739"/>
			<point x="-202" y="590" type="curve"/>
			<point x="-123" y="578" type="line"/>
			<point x="-101" y="655"/>
			<point x="-70" y="682"/>
			<point x="-1" y="682" type="curve" smooth="yes"/>
			<point x="53" y="682"/>
			<point x="101" y="662"/>
			<point x="130" y="578" type="curve"/>
			<point x="203" y="590" type="line"/>
			<point x="189" y="751"/>
			<point x="119" y="817"/>
		</contour>
	</outline>
	<anchor name="_top" x="0" y="550"/>
</glyph>
<glyph name="horncomb" format="2">
	<unicode hex="031B"/>
	<outline>
		<contour>
			<point x="-129" y="351" type="line"/>
			<point x="33" y="359"/>
			<point x="108" y="450"/>
			<point x="108" y="569" type="curve" smooth="yes"/>
			<point x="108" y="649"/>
			<point x="55" y="685"/>
			<point x="-3" y="685" type="curve" smooth="yes"/>
			<point x="-47" y="685"/>
			<point x="-98" y="659"/>
			<point x="-98" y="596" type="curve" smooth="yes"/>
			<point x="-98" y="551"/>
			<point x="-74" y="521"/>
			<point x="-24" y="521" type="curve" smooth="yes"/>
			<point x="-10" y="521" type="line"/>
			<point x="-13" y="469"/>
			<point x="-47" y="437"/>
			<point x="-129" y="428" type="curve"/>
		</contour>
	</outline>
</glyph>
<glyph name="commaaccentcomb" format="2">
	<unicode hex="0326"/>
	<outline>
		<contour>
			<point x="-52" y="-353" type="line"/>
			<point x="64" y="-283"/>
			<point x="94" y="-210"/>
			<point x="94" y="-156" type="curve" smooth="yes"/>
			<point x="94" y="-76"/>
			<point x="44" y="-56"/>
			<point x="-4" y="-56" type="curve" smooth="yes"/>
			<point x="-52" y="-56"/>
			<point x="-104" y="-74"/>
			<point x="-104" y="-142" type="curve" smooth="yes"/>
			<point x="-104" y="-175"/>
			<point x="-86" y="-204"/>
			<point x="-52" y="-204" type="curve" smooth="yes"/>
			<point x="-42" y="-204" type="line"/>
			<point x="-47" y="-240"/>
			<point x="-60" y="-262"/>
			<point x="-103" y="-296" type="curve"/>
		</contour>
	</outline>
	<anchor name="_bottom" x="0" y="-30"/>
</glyph>
<glyph name="cedillacomb" format="2">
	<unicode hex="0327"/>
	<outline>
		<contour>
			<point x="24" y="-258" type="curve" smooth="yes"/>
			<point x="92" y="-258"/>
			<point x="151" y="-225"/>
			<point x="151" y="-140" type="curve" smooth="yes"/>
			<point x="151" y="-78"/>
			<point x="109" y="-31"/>
			<point x="23" y="-39" type="curve"/>
			<point x="42" y="13" type="line"/>
			<point x="-61" y="13" type="line"/>
			<point x="-91" y="-65" type="line"/>
			<point x="-76" y="-109" type="line"/>
			<point x="-64" y="-105"/>
			<point x="-50" y="-103"/>
			<point x="-35" y="-103" type="curve" smooth="yes"/>
			<point x="-3" y="-103"/>
			<point x="6" y="-119"/>
			<point x="6" y="-135" type="curve" smooth="yes"/>
			<point x="6" y="-156"/>
			<point x="-6" y="-169"/>
			<point x="-34" y="-169" type="curve" smooth="yes"/>
			<point x="-56" y="-169"/>
			<point x="-82" y="-166"/>
			<point x="-113" y="-154" type="curve"/>
			<point x="-133" y="-221" type="line"/>
			<point x="-107" y="-238"/>
			<point x="-49" y="-258"/>
		</contour>
	</outline>
	<anchor name="_bottom" x="0" y="-30"/>
</glyph>
<glyph name="brevebelowcomb" format="2">
	<unicode hex="032E"/>
	<outline>
		<contour>
			<point x="0" y="-266" type="curve" smooth="yes"/>
			<point x="123" y="-266"/>
			<point x="188" y="-185"/>
			<point x="200" y="-46" type="curve"/>
			<point x="119" y="-32" type="line"/>
			<point x="101" y="-99"/>
			<point x="62" y="-127"/>
			<point x="-1" y="-127" type="curve" smooth="yes"/>
			<point x="-63" y="-127"/>
			<point x="-102" y="-100"/>
			<point x="-121" y="-30" type="curve"/>
			<point x="-202" y="-44" type="line"/>
			<point x="-190" y="-184"/>
			<point x="-129" y="-266"/>
		</contour>
	</outline>
	<anchor name="_bottom" x="0" y="-30"/>
</glyph>
<glyph name="numeral-greek" format="2">
	<unicode hex="0374"/>
	<advance width="336"/>
	<outline>
		<contour>
			<point x="99" y="474" type="line"/>
			<point x="268" y="680" type="line"/>
			<point x="268" y="706" type="line"/>
			<point x="249" y="748"/>
			<point x="221" y="771"/>
			<point x="188" y="771" type="curve" smooth="yes"/>
			<point x="151" y="771"/>
			<point x="130" y="752"/>
			<point x="111" y="702" type="curve" smooth="yes"/>
			<point x="40" y="510" type="line"/>
		</contour>
	</outline>
</glyph>
<glyph name="ypogegrammeni" format="2">
	<unicode hex="037A"/>
	<advance width="304"/>
	<outline>
		<contour>
			<point x="197" y="-239" type="curve" smooth="yes"/>
			<point x="232" y="-239"/>
			<point x="287" y="-225"/>
			<point x="304" y="-212" type="curve"/>
			<point x="292" y="-150" type="line"/>
			<point x="289" y="-152"/>
			<point x="287" y="-152"/>
			<point x="283" y="-152" type="curve" smooth="yes"/>
			<point x="274" y="-152"/>
			<point x="272" y="-148"/>
			<point x="272" y="-126" type="curve" smooth="yes"/>
			<point x="272" y="-100"/>
			<point x="273" y="-77"/>
			<point x="278" y="-34" type="curve"/>
			<point x="269" y="-30" type="line"/>
			<point x="56" y="-37" type="line"/>
			<point x="56" y="-126" type="line" smooth="yes"/>
			<point x="56" y="-209"/>
			<point x="94" y="-239"/>
		</contour>
	</outline>
	<anchor name="_bottom" x="157" y="-30"/>
</glyph>
<glyph name="tonos" format="2">
	<unicode hex="0384"/>
	<advance width="473"/>
	<outline>
		<contour>
			<point x="219" y="566" type="line"/>
			<point x="385" y="752" type="line"/>
			<point x="385" y="778" type="line"/>
			<point x="366" y="820"/>
			<point x="338" y="843"/>
			<point x="305" y="843" type="curve" smooth="yes"/>
			<point x="268" y="843"/>
			<point x="248" y="825"/>
			<point x="228" y="775" type="curve" smooth="yes"/>
			<point x="160" y="602" type="line"/>
		</contour>
	</outline>
	<anchor name="_top" x="212" y="550"/>
</glyph>
<glyph name="dieresistonos" format="2">
	<unicode hex="0385"/>
	<advance width="657"/>
	<outline>
		<contour>
			<point x="285" y="574" type="line"/>
			<point x="438" y="769" type="line"/>
			<point x="438" y="795" type="line"/>
			<point x="418" y="831"/>
			<point x="389" y="851"/>
			<point x="358" y="851" type="curve" smooth="yes"/>
			<point x="318" y="851"/>
			<point x="298" y="832"/>
			<point x="280" y="778" type="curve" smooth="yes"/>
			<point x="224" y="604" type="line"/>
		</contour>
		<contour>
			<point x="120" y="598" type="curve" smooth="yes"/>
			<point x="184" y="598"/>
			<point x="227" y="637"/>
			<point x="227" y="695" type="curve" smooth="yes"/>
			<point x="227" y="758"/>
			<point x="191" y="790"/>
			<point x="120" y="790" type="curve" smooth="yes"/>
			<point x="56" y="790"/>
			<point x="13" y="753"/>
			<point x="13" y="696" type="curve" smooth="yes"/>
			<point x="13" y="636"/>
			<point x="54" y="598"/>
		</contour>
		<contour>
			<point x="535" y="598" type="curve" smooth="yes"/>
			<point x="600" y="598"/>
			<point x="643" y="637"/>
			<point x="643" y="695" type="curve" smooth="yes"/>
			<point x="643" y="758"/>
			<point x="607" y="790"/>
			<point x="535" y="790" type="curve" smooth="yes"/>
			<point x="471" y="790"/>
			<point x="429" y="752"/>
			<point x="429" y="696" type="curve" smooth="yes"/>
			<point x="429" y="636"/>
			<point x="470" y="598"/>
		</contour>
	</outline>
	<anchor name="_top" x="287" y="550"/>
</glyph>
<glyph name="Lambda" format="2">
	<unicode hex="039B"/>
	<advance width="756"/>
	<outline>
		<contour>
			<point x="0" y="0" type="line"/>
			<point x="284" y="0" type="line"/>
			<point x="284" y="99" type="line"/>
			<point x="253" y="104" type="line" smooth="yes"/>
			<point x="220" y="110"/>
			<point x="214" y="123"/>
			<point x="227" y="162" type="curve"/>
			<point x="335" y="532" type="line"/>
			<point x="338" y="532" type="line"/>
			<point x="431" y="158" type="line"/>
			<point x="439" y="127"/>
			<point x="433" y="110"/>
			<point x="412" y="107" type="curve" smooth="yes"/>
			<point x="377" y="101" type="line"/>
			<point x="377" y="0" type="line"/>
			<point x="756" y="0" type="line"/>
			<point x="756" y="98" type="line"/>
			<point x="727" y="103" type="line" smooth="yes"/>
			<point x="700" y="107"/>
			<point x="691" y="117"/>
			<point x="677" y="157" type="curve" smooth="yes"/>
			<point x="489" y="700" type="line"/>
			<point x="270" y="700" type="line"/>
			<point x="84" y="163" type="line" smooth="yes"/>
			<point x="73" y="131"/>
			<point x="58" y="115"/>
			<point x="33" y="109" type="curve" smooth="yes"/>
			<point x="0" y="101" type="line"/>
		</contour>
	</outline>
</glyph>
<glyph name="Sigma" format="2">
	<unicode hex="03A3"/>
	<advance width="737"/>
	<outline>
		<contour>
			<point x="35" y="0" type="line"/>
			<point x="678" y="0" type="line"/>
			<point x="707" y="280" type="line"/>
			<point x="574" y="280" type="line"/>
			<point x="534" y="131"/>
			<point x="510" y="139"/>
			<point x="424" y="139" type="curve" smooth="yes"/>
			<point x="213" y="139" type="line"/>
			<point x="246" y="81" type="line"/>
			<point x="452" y="355" type="line"/>
			<point x="452" y="367" type="line"/>
			<point x="334" y="586" type="line"/>
			<point x="428" y="586" type="line" smooth="yes"/>
			<point x="507" y="586"/>
			<point x="540" y="587"/>
			<point x="562" y="467" type="curve"/>
			<point x="685" y="481" type="line"/>
			<point x="657" y="700" type="line"/>
			<point x="52" y="700" type="line"/>
			<point x="52" y="591" type="line"/>
			<point x="198" y="316" type="line"/>
			<point x="35" y="110" type="line"/>
		</contour>
	</outline>
</glyph>
<glyph name="Psi" format="2">
	<unicode hex="03A8"/>
	<advance width="1023"/>
	<outline>
		<contour>
			<point x="355" y="0" type="line"/>
			<point x="668" y="0" type="line"/>
			<point x="668" y="98" type="line"/>
			<point x="651" y="104" type="line" smooth="yes"/>
			<point x="616" y="117"/>
			<point x="614" y="119"/>
			<point x="614" y="151" type="curve" smooth="yes"/>
			<point x="614" y="187" type="line"/>
			<point x="818" y="195"/>
			<point x="933" y="294"/>
			<point x="933" y="462" type="curve" smooth="yes"/>
			<point x="933" y="542" type="line" smooth="yes"/>
			<point x="933" y="580"/>
			<point x="940" y="592"/>
			<point x="964" y="596" type="curve" smooth="yes"/>
			<point x="997" y="602" type="line"/>
			<point x="997" y="700" type="line"/>
			<point x="737" y="700" type="line"/>
			<point x="737" y="481" type="line" smooth="yes"/>
			<point x="737" y="370"/>
			<point x="706" y="330"/>
			<point x="614" y="323" type="curve"/>
			<point x="614" y="546" type="line" smooth="yes"/>
			<point x="614" y="580"/>
			<point x="619" y="587"/>
			<point x="649" y="596" type="curve" smooth="yes"/>
			<point x="668" y="602" type="line"/>
			<point x="668" y="700" type="line"/>
			<point x="355" y="700" type="line"/>
			<point x="355" y="602" type="line"/>
			<point x="370" y="598" type="line" smooth="yes"/>
			<point x="404" y="589"/>
			<point x="409" y="582"/>
			<point x="409" y="549" type="curve" smooth="yes"/>
			<point x="409" y="323" type="line"/>
			<point x="317" y="330"/>
			<point x="286" y="370"/>
			<point x="286" y="481" type="curve" smooth="yes"/>
			<point x="286" y="700" type="line"/>
			<point x="26" y="700" type="line"/>
			<point x="26" y="602" type="line"/>
			<point x="59" y="596" type="line" smooth="yes"/>
			<point x="83" y="592"/>
			<point x="90" y="580"/>
			<point x="90" y="542" type="curve" smooth="yes"/>
			<point x="90" y="462" type="line" smooth="yes"/>
			<point x="90" y="294"/>
			<point x="205" y="195"/>
			<point x="409" y="187" type="curve"/>
			<point x="409" y="154" type="line" smooth="yes"/>
			<point x="409" y="121"/>
			<point x="404" y="114"/>
			<point x="374" y="104" type="curve" smooth="yes"/>
			<point x="355" y="98" type="line"/>
		</contour>
	</outline>
</glyph>
<glyph name="Omega" format="2">
	<unicode hex="03A9"/>
	<advance width="798"/>
	<outline>
		<contour>
			<point x="41" y="0" type="line"/>
			<point x="368" y="0" type="line"/>
			<point x="368" y="230" type="line"/>
			<point x="326" y="238"/>
			<point x="288" y="320"/>
			<point x="288" y="403" type="curve" smooth="yes"/>
			<point x="288" y="524"/>
			<point x="325" y="581"/>
			<point x="404" y="581" type="curve" smooth="yes"/>
			<point x="475" y="581"/>
			<point x="510" y="531"/>
			<point x="510" y="430" type="curve" smooth="yes"/>
			<point x="510" y="318"/>
			<point x="479" y="240"/>
			<point x="430" y="230" type="curve"/>
			<point x="430" y="0" type="line"/>
			<point x="758" y="0" type="line"/>
			<point x="778" y="224" type="line"/>
			<point x="704" y="224" type="line"/>
			<point x="688" y="152"/>
			<point x="660" y="129"/>
			<point x="588" y="129" type="curve" smooth="yes"/>
			<point x="550" y="129" type="line"/>
			<point x="550" y="162" type="line"/>
			<point x="683" y="209"/>
			<point x="747" y="295"/>
			<point x="747" y="429" type="curve" smooth="yes"/>
			<point x="747" y="600"/>
			<point x="613" y="714"/>
			<point x="411" y="714" type="curve" smooth="yes"/>
			<point x="196" y="714"/>
			<point x="51" y="595"/>
			<point x="51" y="420" type="curve" smooth="yes"/>
			<point x="51" y="290"/>
			<point x="125" y="195"/>
			<point x="253" y="162" type="curve"/>
			<point x="253" y="129" type="line"/>
			<point x="211" y="129" type="line" smooth="yes"/>
			<point x="139" y="129"/>
			<point x="110" y="152"/>
			<point x="94" y="224" type="curve"/>
			<point x="20" y="224" type="line"/>
		</contour>
	</outline>
	<anchor name="bottom" x="404" y="-45"/>
	<anchor name="side" x="833" y="217"/>
	<anchor name="topleft" x="31" y="700"/>
	<guideline x="31" y="418" angle="90"/>
</glyph>
<glyph name="alpha" format="2">
	<unicode hex="03B1"/>
	<advance width="708"/>
	<outline>
		<contour>
			<point x="261" y="-14" type="curve" smooth="yes"/>
			<point x="329" y="-14"/>
			<point x="387" y="15"/>
			<point x="415" y="63" type="curve"/>
			<point x="416" y="63" type="line"/>
			<point x="430" y="16"/>
			<point x="479" y="-14"/>
			<point x="542" y="-14" type="curve" smooth="yes"/>
			<point x="594" y="-14"/>
			<point x="650" y="5"/>
			<point x="688" y="35" type="curve"/>
			<point x="672" y="113" type="line"/>
			<point x="661" y="109"/>
			<point x="653" y="107"/>
			<point x="640" y="107" type="curve" smooth="yes"/>
			<point x="616" y="107"/>
			<point x="606" y="120"/>
			<point x="606" y="149" type="curve" smooth="yes"/>
			<point x="606" y="235"/>
			<point x="616" y="339"/>
			<point x="642" y="514" type="curve"/>
			<point x="623" y="525" type="line"/>
			<point x="424" y="513" type="line"/>
			<point x="417" y="466" type="line"/>
			<point x="415" y="466" type="line"/>
			<point x="378" y="513"/>
			<point x="336" y="531"/>
			<point x="263" y="531" type="curve" smooth="yes"/>
			<point x="120" y="531"/>
			<point x="33" y="427"/>
			<point x="33" y="255" type="curve" smooth="yes"/>
			<point x="33" y="76"/>
			<point x="109" y="-14"/>
		</contour>
		<contour>
			<point x="341" y="111" type="curve" smooth="yes"/>
			<point x="288" y="111"/>
			<point x="268" y="152"/>
			<point x="268" y="263" type="curve" smooth="yes"/>
			<point x="268" y="360"/>
			<point x="291" y="404"/>
			<point x="341" y="404" type="curve" smooth="yes"/>
			<point x="363" y="404"/>
			<point x="384" y="396"/>
			<point x="402" y="380" type="curve"/>
			<point x="399" y="320"/>
			<point x="398" y="260"/>
			<point x="398" y="160" type="curve"/>
			<point x="385" y="125"/>
			<point x="368" y="111"/>
		</contour>
	</outline>
	<anchor name="bottom" x="392" y="-45"/>
	<anchor name="top" x="341" y="550"/>
</glyph>
<glyph name="beta" format="2">
	<unicode hex="03B2"/>
	<advance width="734"/>
	<outline>
		<contour>
			<point x="95" y="-227" type="line"/>
			<point x="307" y="-214" type="line"/>
			<point x="290" y="-146"/>
			<point x="278" y="-44"/>
			<point x="278" y="23" type="curve"/>
			<point x="280" y="23" type="line"/>
			<point x="313" y="1"/>
			<point x="380" y="-14"/>
			<point x="447" y="-14" type="curve" smooth="yes"/>
			<point x="602" y="-14"/>
			<point x="707" y="85"/>
			<point x="707" y="229" type="curve" smooth="yes"/>
			<point x="707" y="332"/>
			<point x="650" y="407"/>
			<point x="552" y="431" type="curve"/>
			<point x="552" y="433" type="line"/>
			<point x="616" y="468"/>
			<point x="648" y="519"/>
			<point x="648" y="586" type="curve" smooth="yes"/>
			<point x="648" y="710"/>
			<point x="549" y="782"/>
			<point x="379" y="782" type="curve" smooth="yes"/>
			<point x="162" y="782"/>
			<point x="66" y="676"/>
			<point x="66" y="437" type="curve" smooth="yes"/>
			<point x="66" y="32" type="line" smooth="yes"/>
			<point x="66" y="-60"/>
			<point x="69" y="-149"/>
			<point x="75" y="-216" type="curve"/>
		</contour>
		<contour>
			<point x="371" y="93" type="curve" smooth="yes"/>
			<point x="332" y="93"/>
			<point x="301" y="107"/>
			<point x="271" y="138" type="curve"/>
			<point x="271" y="553" type="line" smooth="yes"/>
			<point x="271" y="638"/>
			<point x="306" y="687"/>
			<point x="366" y="687" type="curve" smooth="yes"/>
			<point x="421" y="687"/>
			<point x="451" y="645"/>
			<point x="451" y="569" type="curve" smooth="yes"/>
			<point x="451" y="522"/>
			<point x="445" y="492"/>
			<point x="427" y="456" type="curve"/>
			<point x="398" y="488"/>
			<point x="379" y="499"/>
			<point x="355" y="499" type="curve" smooth="yes"/>
			<point x="318" y="499"/>
			<point x="296" y="471"/>
			<point x="296" y="423" type="curve" smooth="yes"/>
			<point x="296" y="377"/>
			<point x="320" y="346"/>
			<point x="355" y="346" type="curve" smooth="yes"/>
			<point x="382" y="346"/>
			<point x="396" y="354"/>
			<point x="427" y="389" type="curve"/>
			<point x="468" y="358"/>
			<point x="486" y="312"/>
			<point x="486" y="239" type="curve" smooth="yes"/>
			<point x="486" y="154"/>
			<point x="438" y="93"/>
		</contour>
	</outline>
</glyph>
<glyph name="delta" format="2">
	<unicode hex="03B4"/>
	<advance width="627"/>
	<outline>
		<contour>
			<point x="302" y="-14" type="curve" smooth="yes"/>
			<point x="478" y="-14"/>
			<point x="605" y="91"/>
			<point x="605" y="236" type="curve" smooth="yes"/>
			<point x="605" y="362"/>
			<point x="546" y="446"/>
			<point x="396" y="535" type="curve" smooth="yes"/>
			<point x="294" y="595"/>
			<point x="263" y="624"/>
			<point x="263" y="659" type="curve" smooth="yes"/>
			<point x="263" y="689"/>
			<point x="289" y="707"/>
			<point x="332" y="707" type="curve" smooth="yes"/>
			<point x="370" y="707"/>
			<point x="403" y="698"/>
			<point x="436" y="680" type="curve"/>
			<point x="421" y="657"/>
			<point x="410" y="628"/>
			<point x="410" y="609" type="curve" smooth="yes"/>
			<point x="410" y="569"/>
			<point x="441" y="545"/>
			<point x="494" y="545" type="curve" smooth="yes"/>
			<point x="555" y="545"/>
			<point x="591" y="580"/>
			<point x="591" y="638" type="curve" smooth="yes"/>
			<point x="591" y="729"/>
			<point x="502" y="782"/>
			<point x="349" y="782" type="curve" smooth="yes"/>
			<point x="191" y="782"/>
			<point x="95" y="717"/>
			<point x="95" y="609" type="curve" smooth="yes"/>
			<point x="95" y="544"/>
			<point x="124" y="502"/>
			<point x="204" y="454" type="curve"/>
			<point x="90" y="429"/>
			<point x="17" y="338"/>
			<point x="17" y="224" type="curve" smooth="yes"/>
			<point x="17" y="79"/>
			<point x="128" y="-14"/>
		</contour>
		<contour>
			<point x="314" y="80" type="curve" smooth="yes"/>
			<point x="269" y="80"/>
			<point x="242" y="138"/>
			<point x="242" y="234" type="curve" smooth="yes"/>
			<point x="242" y="315"/>
			<point x="271" y="382"/>
			<point x="316" y="403" type="curve"/>
			<point x="365" y="369"/>
			<point x="387" y="316"/>
			<point x="387" y="229" type="curve" smooth="yes"/>
			<point x="387" y="132"/>
			<point x="362" y="80"/>
		</contour>
	</outline>
</glyph>
<glyph name="epsilon" format="2">
	<unicode hex="03B5"/>
	<advance width="605"/>
	<outline>
		<contour>
			<point x="277" y="-14" type="curve" smooth="yes"/>
			<point x="412" y="-14"/>
			<point x="513" y="23"/>
			<point x="585" y="98" type="curve"/>
			<point x="529" y="178" type="line"/>
			<point x="470" y="140"/>
			<point x="408" y="121"/>
			<point x="345" y="121" type="curve" smooth="yes"/>
			<point x="273" y="121"/>
			<point x="232" y="148"/>
			<point x="232" y="194" type="curve" smooth="yes"/>
			<point x="232" y="220"/>
			<point x="249" y="244"/>
			<point x="277" y="255" type="curve"/>
			<point x="295" y="221"/>
			<point x="319" y="203"/>
			<point x="346" y="203" type="curve" smooth="yes"/>
			<point x="383" y="203"/>
			<point x="408" y="232"/>
			<point x="408" y="275" type="curve" smooth="yes"/>
			<point x="408" y="319"/>
			<point x="384" y="347"/>
			<point x="346" y="347" type="curve" smooth="yes"/>
			<point x="319" y="347"/>
			<point x="297" y="331"/>
			<point x="277" y="297" type="curve"/>
			<point x="249" y="307"/>
			<point x="232" y="330"/>
			<point x="232" y="360" type="curve" smooth="yes"/>
			<point x="232" y="405"/>
			<point x="275" y="435"/>
			<point x="341" y="435" type="curve" smooth="yes"/>
			<point x="386" y="435"/>
			<point x="421" y="427"/>
			<point x="441" y="412" type="curve"/>
			<point x="420" y="384"/>
			<point x="411" y="368"/>
			<point x="411" y="358" type="curve" smooth="yes"/>
			<point x="411" y="317"/>
			<point x="442" y="288"/>
			<point x="486" y="288" type="curve" smooth="yes"/>
			<point x="549" y="288"/>
			<point x="585" y="322"/>
			<point x="585" y="382" type="curve" smooth="yes"/>
			<point x="585" y="474"/>
			<point x="489" y="531"/>
			<point x="335" y="531" type="curve" smooth="yes"/>
			<point x="138" y="531"/>
			<point x="41" y="479"/>
			<point x="41" y="374" type="curve" smooth="yes"/>
			<point x="41" y="318"/>
			<point x="77" y="279"/>
			<point x="141" y="266" type="curve"/>
			<point x="141" y="262" type="line"/>
			<point x="69" y="253"/>
			<point x="32" y="212"/>
			<point x="32" y="143" type="curve" smooth="yes"/>
			<point x="32" y="43"/>
			<point x="120" y="-14"/>
		</contour>
	</outline>
	<anchor name="top" x="320" y="550"/>
</glyph>
<glyph name="zeta" format="2">
	<unicode hex="03B6"/>
	<advance width="547"/>
	<outline>
		<contour>
			<point x="440" y="-230" type="line"/>
			<point x="528" y="-138"/>
			<point x="561" y="-74"/>
			<point x="561" y="4" type="curve" smooth="yes"/>
			<point x="561" y="98"/>
			<point x="505" y="147"/>
			<point x="360" y="183" type="curve" smooth="yes"/>
			<point x="252" y="210"/>
			<point x="218" y="235"/>
			<point x="218" y="288" type="curve" smooth="yes"/>
			<point x="218" y="377"/>
			<point x="324" y="463"/>
			<point x="572" y="576" type="curve"/>
			<point x="572" y="600" type="line"/>
			<point x="450" y="770" type="line"/>
			<point x="388" y="729"/>
			<point x="325" y="681"/>
			<point x="270" y="631" type="curve"/>
			<point x="265" y="632"/>
			<point x="260" y="633"/>
			<point x="255" y="634" type="curve" smooth="yes"/>
			<point x="228" y="641"/>
			<point x="200" y="653"/>
			<point x="183" y="665" type="curve"/>
			<point x="198" y="699"/>
			<point x="206" y="722"/>
			<point x="206" y="736" type="curve" smooth="yes"/>
			<point x="206" y="778"/>
			<point x="175" y="802"/>
			<point x="121" y="802" type="curve" smooth="yes"/>
			<point x="58" y="802"/>
			<point x="17" y="759"/>
			<point x="17" y="692" type="curve" smooth="yes"/>
			<point x="17" y="620"/>
			<point x="61" y="575"/>
			<point x="146" y="559" type="curve" smooth="yes"/>
			<point x="160" y="556"/>
			<point x="174" y="554"/>
			<point x="189" y="553" type="curve"/>
			<point x="77" y="434"/>
			<point x="17" y="323"/>
			<point x="17" y="234" type="curve" smooth="yes"/>
			<point x="17" y="111"/>
			<point x="99" y="26"/>
			<point x="254" y="-13" type="curve" smooth="yes"/>
			<point x="368" y="-41"/>
			<point x="389" y="-54"/>
			<point x="389" y="-96" type="curve" smooth="yes"/>
			<point x="389" y="-118"/>
			<point x="380" y="-140"/>
			<point x="353" y="-184" type="curve"/>
		</contour>
	</outline>
</glyph>
<glyph name="theta" format="2">
	<unicode hex="03B8"/>
	<advance width="683"/>
	<outline>
		<contour>
			<point x="337" y="-14" type="curve" smooth="yes"/>
			<point x="529" y="-14"/>
			<point x="646" y="138"/>
			<point x="646" y="385" type="curve" smooth="yes"/>
			<point x="646" y="648"/>
			<point x="545" y="782"/>
			<point x="347" y="782" type="curve" smooth="yes"/>
			<point x="148" y="782"/>
			<point x="37" y="640"/>
			<point x="37" y="387" type="curve" smooth="yes"/>
			<point x="37" y="124"/>
			<point x="140" y="-14"/>
		</contour>
		<contour>
			<point x="344" y="82" type="curve" smooth="yes"/>
			<point x="287" y="82"/>
			<point x="261" y="143"/>
			<point x="255" y="293" type="curve"/>
			<point x="427" y="330" type="line"/>
			<point x="427" y="145"/>
			<point x="406" y="82"/>
		</contour>
		<contour>
			<point x="255" y="444" type="line"/>
			<point x="255" y="619"/>
			<point x="278" y="687"/>
			<point x="336" y="687" type="curve" smooth="yes"/>
			<point x="397" y="687"/>
			<point x="427" y="607"/>
			<point x="427" y="444" type="curve"/>
		</contour>
	</outline>
</glyph>
<glyph name="mu" format="2">
	<unicode hex="03BC"/>
	<advance width="718"/>
	<outline>
		<contour>
			<point x="95" y="-227" type="line"/>
			<point x="317" y="-214" type="line"/>
			<point x="300" y="-148"/>
			<point x="292" y="-77"/>
			<point x="282" y="2" type="curve"/>
			<point x="284" y="2" type="line"/>
			<point x="298" y="-9"/>
			<point x="312" y="-14"/>
			<point x="327" y="-14" type="curve" smooth="yes"/>
			<point x="373" y="-14"/>
			<point x="408" y="25"/>
			<point x="414" y="83" type="curve"/>
			<point x="414" y="83" type="line"/>
			<point x="430" y="32"/>
			<point x="495" y="-14"/>
			<point x="551" y="-14" type="curve" smooth="yes"/>
			<point x="605" y="-14"/>
			<point x="664" y="5"/>
			<point x="703" y="35" type="curve"/>
			<point x="687" y="113" type="line"/>
			<point x="675" y="109"/>
			<point x="665" y="107"/>
			<point x="651" y="107" type="curve" smooth="yes"/>
			<point x="629" y="107"/>
			<point x="613" y="128"/>
			<point x="613" y="157" type="curve" smooth="yes"/>
			<point x="613" y="244"/>
			<point x="619" y="415"/>
			<point x="625" y="514" type="curve"/>
			<point x="606" y="525" type="line"/>
			<point x="398" y="513" type="line"/>
			<point x="398" y="401"/>
			<point x="398" y="248"/>
			<point x="398" y="212" type="curve" smooth="yes"/>
			<point x="398" y="144"/>
			<point x="380" y="113"/>
			<point x="340" y="113" type="curve" smooth="yes"/>
			<point x="311" y="113"/>
			<point x="296" y="117"/>
			<point x="281" y="129" type="curve"/>
			<point x="281" y="242"/>
			<point x="283" y="326"/>
			<point x="292" y="514" type="curve"/>
			<point x="273" y="525" type="line"/>
			<point x="67" y="513" type="line"/>
			<point x="67" y="399"/>
			<point x="66" y="165"/>
			<point x="66" y="103" type="curve" smooth="yes"/>
			<point x="66" y="-20"/>
			<point x="69" y="-113"/>
			<point x="75" y="-216" type="curve"/>
		</contour>
	</outline>
</glyph>
<glyph name="nu" format="2">
	<unicode hex="03BD"/>
	<advance width="683"/>
	<outline>
		<contour>
			<point x="380" y="-18" type="line"/>
			<point x="550" y="86"/>
			<point x="646" y="239"/>
			<point x="646" y="407" type="curve" smooth="yes"/>
			<point x="646" y="455"/>
			<point x="644" y="482"/>
			<point x="638" y="506" type="curve"/>
			<point x="618" y="517" type="line"/>
			<point x="406" y="517" type="line"/>
			<point x="416" y="488"/>
			<point x="422" y="433"/>
			<point x="422" y="376" type="curve" smooth="yes"/>
			<point x="422" y="282"/>
			<point x="400" y="175"/>
			<point x="375" y="147" type="curve"/>
			<point x="372" y="147" type="line"/>
			<point x="355" y="447"/>
			<point x="312" y="527"/>
			<point x="170" y="527" type="curve" smooth="yes"/>
			<point x="113" y="527"/>
			<point x="43" y="506"/>
			<point x="5" y="478" type="curve"/>
			<point x="22" y="400" type="line"/>
			<point x="34" y="404"/>
			<point x="46" y="406"/>
			<point x="57" y="406" type="curve" smooth="yes"/>
			<point x="133" y="406"/>
			<point x="188" y="263"/>
			<point x="213" y="0" type="curve"/>
		</contour>
	</outline>
</glyph>
<glyph name="xi" format="2">
	<unicode hex="03BE"/>
	<advance width="580"/>
	<outline>
		<contour>
			<point x="454" y="-230" type="line"/>
			<point x="531" y="-154"/>
			<point x="575" y="-68"/>
			<point x="575" y="4" type="curve" smooth="yes"/>
			<point x="575" y="95"/>
			<point x="522" y="144"/>
			<point x="381" y="181" type="curve" smooth="yes"/>
			<point x="269" y="211"/>
			<point x="245" y="225"/>
			<point x="245" y="259" type="curve" smooth="yes"/>
			<point x="245" y="289"/>
			<point x="278" y="315"/>
			<point x="329" y="326" type="curve"/>
			<point x="371" y="293"/>
			<point x="394" y="283"/>
			<point x="425" y="283" type="curve" smooth="yes"/>
			<point x="475" y="283"/>
			<point x="508" y="316"/>
			<point x="508" y="365" type="curve" smooth="yes"/>
			<point x="508" y="414"/>
			<point x="475" y="448"/>
			<point x="427" y="448" type="curve" smooth="yes"/>
			<point x="398" y="448"/>
			<point x="365" y="431"/>
			<point x="332" y="400" type="curve"/>
			<point x="281" y="422"/>
			<point x="263" y="439"/>
			<point x="263" y="467" type="curve" smooth="yes"/>
			<point x="263" y="526"/>
			<point x="349" y="564"/>
			<point x="556" y="596" type="curve"/>
			<point x="556" y="620" type="line"/>
			<point x="451" y="766" type="line"/>
			<point x="365" y="756"/>
			<point x="255" y="717"/>
			<point x="186" y="673" type="curve"/>
			<point x="167" y="679"/>
			<point x="157" y="684"/>
			<point x="151" y="689" type="curve"/>
			<point x="177" y="737"/>
			<point x="186" y="757"/>
			<point x="186" y="769" type="curve" smooth="yes"/>
			<point x="186" y="808"/>
			<point x="153" y="832"/>
			<point x="100" y="832" type="curve" smooth="yes"/>
			<point x="37" y="832"/>
			<point x="-3" y="790"/>
			<point x="-3" y="725" type="curve" smooth="yes"/>
			<point x="-3" y="663"/>
			<point x="37" y="619"/>
			<point x="107" y="602" type="curve"/>
			<point x="80" y="567"/>
			<point x="67" y="529"/>
			<point x="67" y="489" type="curve" smooth="yes"/>
			<point x="67" y="429"/>
			<point x="108" y="384"/>
			<point x="188" y="358" type="curve"/>
			<point x="188" y="357" type="line"/>
			<point x="82" y="314"/>
			<point x="32" y="256"/>
			<point x="32" y="176" type="curve" smooth="yes"/>
			<point x="32" y="76"/>
			<point x="97" y="28"/>
			<point x="295" y="-20" type="curve" smooth="yes"/>
			<point x="381" y="-41"/>
			<point x="403" y="-56"/>
			<point x="403" y="-95" type="curve" smooth="yes"/>
			<point x="403" y="-118"/>
			<point x="393" y="-144"/>
			<point x="367" y="-184" type="curve"/>
		</contour>
	</outline>
</glyph>
<glyph name="tau" format="2">
	<unicode hex="03C4"/>
	<advance width="595"/>
	<outline>
		<contour>
			<point x="346" y="-14" type="curve" smooth="yes"/>
			<point x="421" y="-14"/>
			<point x="498" y="16"/>
			<point x="541" y="61" type="curve"/>
			<point x="496" y="149" type="line"/>
			<point x="471" y="134"/>
			<point x="448" y="128"/>
			<point x="421" y="128" type="curve" smooth="yes"/>
			<point x="373" y="128"/>
			<point x="355" y="155"/>
			<point x="355" y="229" type="curve" smooth="yes"/>
			<point x="355" y="272"/>
			<point x="356" y="290"/>
			<point x="366" y="366" type="curve"/>
			<point x="546" y="366" type="line"/>
			<point x="565" y="377" type="line"/>
			<point x="565" y="531" type="line"/>
			<point x="129" y="523" type="line"/>
			<point x="96" y="521"/>
			<point x="42" y="508"/>
			<point x="14" y="495" type="curve"/>
			<point x="-7" y="366" type="line"/>
			<point x="176" y="366" type="line"/>
			<point x="152" y="258"/>
			<point x="144" y="209"/>
			<point x="144" y="164" type="curve" smooth="yes"/>
			<point x="144" y="47"/>
			<point x="213" y="-14"/>
		</contour>
	</outline>
</glyph>
<glyph name="upsilon" format="2">
	<unicode hex="03C5"/>
	<advance width="695"/>
	<outline>
		<contour>
			<point x="348" y="-13" type="curve" smooth="yes"/>
			<point x="540" y="-13"/>
			<point x="668" y="99"/>
			<point x="668" y="266" type="curve" smooth="yes"/>
			<point x="668" y="364"/>
			<point x="637" y="458"/>
			<point x="586" y="514" type="curve"/>
			<point x="567" y="525" type="line"/>
			<point x="361" y="500" type="line"/>
			<point x="412" y="421"/>
			<point x="440" y="326"/>
			<point x="440" y="236" type="curve" smooth="yes"/>
			<point x="440" y="146"/>
			<point x="415" y="102"/>
			<point x="365" y="102" type="curve" smooth="yes"/>
			<point x="317" y="102"/>
			<point x="295" y="138"/>
			<point x="295" y="217" type="curve" smooth="yes"/>
			<point x="295" y="262"/>
			<point x="303" y="337"/>
			<point x="303" y="389" type="curve" smooth="yes"/>
			<point x="303" y="483"/>
			<point x="259" y="526"/>
			<point x="165" y="526" type="curve" smooth="yes"/>
			<point x="108" y="526"/>
			<point x="45" y="507"/>
			<point x="5" y="477" type="curve"/>
			<point x="21" y="399" type="line"/>
			<point x="30" y="403"/>
			<point x="42" y="405"/>
			<point x="52" y="405" type="curve" smooth="yes"/>
			<point x="75" y="405"/>
			<point x="83" y="394"/>
			<point x="83" y="365" type="curve" smooth="yes"/>
			<point x="83" y="337"/>
			<point x="74" y="271"/>
			<point x="74" y="209" type="curve" smooth="yes"/>
			<point x="74" y="65"/>
			<point x="170" y="-13"/>
		</contour>
	</outline>
	<anchor name="top" x="339" y="550"/>
</glyph>
<glyph name="chi" format="2">
	<unicode hex="03C7"/>
	<advance width="650"/>
	<outline>
		<contour>
			<point x="494" y="-230" type="curve" smooth="yes"/>
			<point x="544" y="-230"/>
			<point x="599" y="-211"/>
			<point x="640" y="-181" type="curve"/>
			<point x="624" y="-103" type="line"/>
			<point x="618" y="-106"/>
			<point x="602" y="-109"/>
			<point x="595" y="-109" type="curve" smooth="yes"/>
			<point x="572" y="-109"/>
			<point x="558" y="-99"/>
			<point x="544" y="-71" type="curve" smooth="yes"/>
			<point x="434" y="144" type="line"/>
			<point x="671" y="514" type="line"/>
			<point x="652" y="525" type="line"/>
			<point x="449" y="517" type="line"/>
			<point x="358" y="298" type="line"/>
			<point x="356" y="298" type="line"/>
			<point x="314" y="405" type="line" smooth="yes"/>
			<point x="277" y="496"/>
			<point x="238" y="526"/>
			<point x="156" y="526" type="curve" smooth="yes"/>
			<point x="106" y="526"/>
			<point x="51" y="507"/>
			<point x="10" y="477" type="curve"/>
			<point x="26" y="399" type="line"/>
			<point x="32" y="402"/>
			<point x="48" y="405"/>
			<point x="55" y="405" type="curve" smooth="yes"/>
			<point x="78" y="405"/>
			<point x="92" y="395"/>
			<point x="106" y="367" type="curve" smooth="yes"/>
			<point x="222" y="140" type="line"/>
			<point x="5" y="-213" type="line"/>
			<point x="24" y="-224" type="line"/>
			<point x="227" y="-216" type="line"/>
			<point x="300" y="-22" type="line"/>
			<point x="302" y="-22" type="line"/>
			<point x="336" y="-109" type="line" smooth="yes"/>
			<point x="371" y="-199"/>
			<point x="411" y="-230"/>
		</contour>
	</outline>
</glyph>
<glyph name="psi" format="2">
	<unicode hex="03C8"/>
	<advance width="873"/>
	<outline>
		<contour>
			<point x="371" y="-219" type="line"/>
			<point x="527" y="-219" type="line"/>
			<point x="531" y="-11" type="line"/>
			<point x="729" y="-1"/>
			<point x="846" y="102"/>
			<point x="846" y="266" type="curve" smooth="yes"/>
			<point x="846" y="342"/>
			<point x="820" y="444"/>
			<point x="782" y="515" type="curve"/>
			<point x="765" y="525" type="line"/>
			<point x="570" y="500" type="line"/>
			<point x="608" y="415"/>
			<point x="628" y="329"/>
			<point x="628" y="257" type="curve" smooth="yes"/>
			<point x="628" y="153"/>
			<point x="599" y="105"/>
			<point x="535" y="105" type="curve"/>
			<point x="553" y="703" type="line"/>
			<point x="535" y="714" type="line"/>
			<point x="361" y="704" type="line"/>
			<point x="369" y="102" type="line"/>
			<point x="313" y="102"/>
			<point x="285" y="143"/>
			<point x="285" y="225" type="curve" smooth="yes"/>
			<point x="285" y="285"/>
			<point x="293" y="337"/>
			<point x="293" y="389" type="curve" smooth="yes"/>
			<point x="293" y="486"/>
			<point x="254" y="526"/>
			<point x="160" y="526" type="curve" smooth="yes"/>
			<point x="103" y="526"/>
			<point x="46" y="508"/>
			<point x="5" y="477" type="curve"/>
			<point x="22" y="399" type="line"/>
			<point x="33" y="403"/>
			<point x="44" y="405"/>
			<point x="53" y="405" type="curve" smooth="yes"/>
			<point x="75" y="405"/>
			<point x="83" y="394"/>
			<point x="83" y="365" type="curve" smooth="yes"/>
			<point x="83" y="313"/>
			<point x="74" y="275"/>
			<point x="74" y="225" type="curve" smooth="yes"/>
			<point x="74" y="79"/>
			<point x="181" y="-8"/>
			<point x="369" y="-13" type="curve"/>
		</contour>
	</outline>
</glyph>
<glyph name="omega" format="2">
	<unicode hex="03C9"/>
	<advance width="875"/>
	<outline>
		<contour>
			<point x="264" y="-14" type="curve" smooth="yes"/>
			<point x="339" y="-14"/>
			<point x="397" y="17"/>
			<point x="435" y="78" type="curve"/>
			<point x="438" y="78" type="line"/>
			<point x="466" y="24"/>
			<point x="537" y="-14"/>
			<point x="611" y="-14" type="curve" smooth="yes"/>
			<point x="755" y="-14"/>
			<point x="843" y="84"/>
			<point x="843" y="244" type="curve" smooth="yes"/>
			<point x="843" y="344"/>
			<point x="804" y="454"/>
			<point x="747" y="514" type="curve"/>
			<point x="729" y="525" type="line"/>
			<point x="522" y="500" type="line"/>
			<point x="578" y="430"/>
			<point x="615" y="321"/>
			<point x="615" y="228" type="curve" smooth="yes"/>
			<point x="615" y="154"/>
			<point x="592" y="104"/>
			<point x="558" y="104" type="curve" smooth="yes"/>
			<point x="527" y="104"/>
			<point x="514" y="130"/>
			<point x="485" y="162" type="curve"/>
			<point x="519" y="212"/>
			<point x="533" y="248"/>
			<point x="533" y="288" type="curve" smooth="yes"/>
			<point x="533" y="347"/>
			<point x="496" y="386"/>
			<point x="439" y="386" type="curve" smooth="yes"/>
			<point x="380" y="386"/>
			<point x="342" y="347"/>
			<point x="342" y="288" type="curve" smooth="yes"/>
			<point x="342" y="252"/>
			<point x="356" y="215"/>
			<point x="390" y="163" type="curve"/>
			<point x="363" y="128"/>
			<point x="348" y="103"/>
			<point x="318" y="103" type="curve" smooth="yes"/>
			<point x="283" y="103"/>
			<point x="260" y="150"/>
			<point x="260" y="221" type="curve" smooth="yes"/>
			<point x="260" y="316"/>
			<point x="294" y="415"/>
			<point x="353" y="492" type="curve"/>
			<point x="154" y="520" type="line"/>
			<point x="80" y="463"/>
			<point x="32" y="349"/>
			<point x="32" y="231" type="curve" smooth="yes"/>
			<point x="32" y="77"/>
			<point x="118" y="-14"/>
		</contour>
	</outline>
	<anchor name="bottom" x="446" y="-45"/>
	<anchor name="top" x="438" y="550"/>
</glyph>
<glyph name="koppaArchaic" format="2">
	<unicode hex="03D9"/>
	<advance width="662"/>
	<outline>
		<contour>
			<point x="300" y="-161" type="line"/>
			<point x="378" y="-151" type="line"/>
			<point x="376" y="-94"/>
			<point x="374" y="-48"/>
			<point x="373" y="-12" type="curve"/>
			<point x="545" y="3"/>
			<point x="635" y="99"/>
			<point x="635" y="268" type="curve" smooth="yes"/>
			<point x="635" y="441"/>
			<point x="536" y="531"/>
			<point x="345" y="531" type="curve" smooth="yes"/>
			<point x="137" y="531"/>
			<point x="27" y="434"/>
			<point x="27" y="251" type="curve" smooth="yes"/>
			<point x="27" y="84"/>
			<point x="119" y="-6"/>
			<point x="297" y="-13" type="curve"/>
			<point x="295" y="-49"/>
			<point x="292" y="-96"/>
			<point x="289" y="-150" type="curve"/>
		</contour>
		<contour>
			<point x="374" y="98" type="curve"/>
			<point x="376" y="132"/>
			<point x="380" y="181"/>
			<point x="383" y="204" type="curve"/>
			<point x="372" y="215" type="line"/>
			<point x="294" y="205" type="line"/>
			<point x="296" y="181"/>
			<point x="298" y="138"/>
			<point x="299" y="99" type="curve"/>
			<point x="254" y="118"/>
			<point x="232" y="179"/>
			<point x="232" y="285" type="curve" smooth="yes"/>
			<point x="232" y="375"/>
			<point x="267" y="425"/>
			<point x="330" y="425" type="curve" smooth="yes"/>
			<point x="397" y="425"/>
			<point x="430" y="367"/>
			<point x="430" y="251" type="curve" smooth="yes"/>
			<point x="430" y="170"/>
			<point x="411" y="117"/>
		</contour>
	</outline>
</glyph>
<glyph name="Stigma" format="2">
	<unicode hex="03DA"/>
	<advance width="681"/>
	<outline>
		<contour>
			<point x="488" y="-230" type="line"/>
			<point x="569" y="-164"/>
			<point x="626" y="-67"/>
			<point x="626" y="3" type="curve" smooth="yes"/>
			<point x="626" y="102"/>
			<point x="575" y="154"/>
			<point x="444" y="187" type="curve" smooth="yes"/>
			<point x="311" y="227"/>
			<point x="277" y="271"/>
			<point x="277" y="399" type="curve" smooth="yes"/>
			<point x="277" y="512"/>
			<point x="324" y="581"/>
			<point x="401" y="581" type="curve" smooth="yes"/>
			<point x="423" y="581"/>
			<point x="442" y="577"/>
			<point x="462" y="568" type="curve"/>
			<point x="443" y="527"/>
			<point x="438" y="512"/>
			<point x="438" y="499" type="curve" smooth="yes"/>
			<point x="438" y="454"/>
			<point x="474" y="428"/>
			<point x="537" y="428" type="curve" smooth="yes"/>
			<point x="610" y="428"/>
			<point x="649" y="471"/>
			<point x="649" y="552" type="curve" smooth="yes"/>
			<point x="649" y="645"/>
			<point x="540" y="714"/>
			<point x="393" y="714" type="curve" smooth="yes"/>
			<point x="174" y="714"/>
			<point x="35" y="571"/>
			<point x="35" y="345" type="curve" smooth="yes"/>
			<point x="35" y="143"/>
			<point x="125" y="47"/>
			<point x="373" y="-16" type="curve" smooth="yes"/>
			<point x="444" y="-34"/>
			<point x="466" y="-53"/>
			<point x="466" y="-94" type="curve" smooth="yes"/>
			<point x="466" y="-120"/>
			<point x="453" y="-146"/>
			<point x="423" y="-180" type="curve"/>
		</contour>
	</outline>
</glyph>
<glyph name="stigma" format="2">
	<unicode hex="03DB"/>
	<advance width="575"/>
	<outline>
		<contour>
			<point x="420" y="-230" type="line"/>
			<point x="506" y="-140"/>
			<point x="541" y="-72"/>
			<point x="541" y="3" type="curve" smooth="yes"/>
			<point x="541" y="91"/>
			<point x="493" y="139"/>
			<point x="370" y="175" type="curve" smooth="yes"/>
			<point x="235" y="215"/>
			<point x="201" y="239"/>
			<point x="201" y="293" type="curve" smooth="yes"/>
			<point x="201" y="362"/>
			<point x="261" y="389"/>
			<point x="414" y="389" type="curve" smooth="yes"/>
			<point x="516" y="389"/>
			<point x="560" y="423"/>
			<point x="560" y="502" type="curve" smooth="yes"/>
			<point x="560" y="536"/>
			<point x="539" y="588"/>
			<point x="512" y="619" type="curve"/>
			<point x="434" y="603" type="line"/>
			<point x="438" y="592"/>
			<point x="440" y="582"/>
			<point x="440" y="570" type="curve" smooth="yes"/>
			<point x="440" y="539"/>
			<point x="431" y="536"/>
			<point x="324" y="534" type="curve" smooth="yes"/>
			<point x="128" y="530"/>
			<point x="27" y="438"/>
			<point x="27" y="265" type="curve" smooth="yes"/>
			<point x="27" y="108"/>
			<point x="95" y="29"/>
			<point x="277" y="-24" type="curve" smooth="yes"/>
			<point x="354" y="-47"/>
			<point x="369" y="-59"/>
			<point x="369" y="-94" type="curve" smooth="yes"/>
			<point x="369" y="-120"/>
			<point x="359" y="-146"/>
			<point x="333" y="-184" type="curve"/>
		</contour>
	</outline>
</glyph>
<glyph name="Sampi" format="2">
	<unicode hex="03E0"/>
	<advance width="819"/>
	<outline>
		<contour>
			<point x="288" y="-229" type="line"/>
			<point x="352" y="-185" type="line"/>
			<point x="348" y="-167" type="line" smooth="yes"/>
			<point x="343" y="-144"/>
			<point x="346" y="-138"/>
			<point x="373" y="-119" type="curve" smooth="yes"/>
			<point x="613" y="49" type="line"/>
			<point x="615" y="17"/>
			<point x="615" y="-7"/>
			<point x="615" y="-17" type="curve" smooth="yes"/>
			<point x="615" y="-52"/>
			<point x="612" y="-130"/>
			<point x="610" y="-170" type="curve"/>
			<point x="777" y="-172" type="line"/>
			<point x="781" y="-134"/>
			<point x="784" y="-72"/>
			<point x="784" y="-15" type="curve" smooth="yes"/>
			<point x="784" y="396"/>
			<point x="592" y="572"/>
			<point x="152" y="562" type="curve"/>
			<point x="149" y="410" type="line"/>
			<point x="231" y="409"/>
			<point x="301" y="401"/>
			<point x="361" y="385" type="curve"/>
			<point x="136" y="227" type="line" smooth="yes"/>
			<point x="109" y="209"/>
			<point x="103" y="208"/>
			<point x="82" y="221" type="curve" smooth="yes"/>
			<point x="68" y="230" type="line"/>
			<point x="5" y="185" type="line"/>
			<point x="139" y="-9" type="line"/>
			<point x="203" y="35" type="line"/>
			<point x="199" y="53" type="line" smooth="yes"/>
			<point x="194" y="76"/>
			<point x="197" y="82"/>
			<point x="224" y="101" type="curve" smooth="yes"/>
			<point x="514" y="304" type="line"/>
			<point x="541" y="278"/>
			<point x="562" y="247"/>
			<point x="577" y="212" type="curve"/>
			<point x="285" y="7" type="line" smooth="yes"/>
			<point x="258" y="-11"/>
			<point x="252" y="-12"/>
			<point x="231" y="1" type="curve" smooth="yes"/>
			<point x="217" y="10" type="line"/>
			<point x="154" y="-35" type="line"/>
		</contour>
	</outline>
</glyph>
<glyph name="sampi" format="2">
	<unicode hex="03E1"/>
	<advance width="600"/>
	<outline>
		<contour>
			<point x="128" y="573" type="curve"/>
			<point x="103" y="478" type="line"/>
			<point x="212" y="453"/>
			<point x="296" y="413"/>
			<point x="355" y="357" type="curve"/>
			<point x="194" y="298" type="line" smooth="yes"/>
			<point x="134" y="275"/>
			<point x="126" y="276"/>
			<point x="110" y="300" type="curve" smooth="yes"/>
			<point x="104" y="309" type="line"/>
			<point x="36" y="285" type="line"/>
			<point x="104" y="115" type="line"/>
			<point x="172" y="140" type="line"/>
			<point x="170" y="151" type="line" smooth="yes"/>
			<point x="165" y="178"/>
			<point x="170" y="182"/>
			<point x="233" y="205" type="curve" smooth="yes"/>
			<point x="421" y="271" type="line"/>
			<point x="440" y="233"/>
			<point x="453" y="191"/>
			<point x="459" y="144" type="curve"/>
			<point x="281" y="79" type="line" smooth="yes"/>
			<point x="221" y="56"/>
			<point x="213" y="57"/>
			<point x="197" y="81" type="curve" smooth="yes"/>
			<point x="191" y="90" type="line"/>
			<point x="123" y="66" type="line"/>
			<point x="191" y="-104" type="line"/>
			<point x="259" y="-79" type="line"/>
			<point x="257" y="-68" type="line" smooth="yes"/>
			<point x="251" y="-41"/>
			<point x="257" y="-36"/>
			<point x="320" y="-14" type="curve" smooth="yes"/>
			<point x="460" y="36" type="line"/>
			<point x="454" y="-42"/>
			<point x="432" y="-129"/>
			<point x="397" y="-225" type="curve"/>
			<point x="537" y="-255" type="line"/>
			<point x="598" y="-130"/>
			<point x="623" y="-32"/>
			<point x="623" y="89" type="curve" smooth="yes"/>
			<point x="623" y="379"/>
			<point x="441" y="557"/>
		</contour>
	</outline>
</glyph>
<glyph name="Tshe-cy" format="2">
	<unicode hex="040B"/>
	<advance width="1019"/>
	<outline>
		<contour>
			<point x="224" y="0" type="line"/>
			<point x="575" y="0" type="line"/>
			<point x="575" y="98" type="line"/>
			<point x="550" y="104" type="line" smooth="yes"/>
			<point x="524" y="110"/>
			<point x="517" y="117"/>
			<point x="517" y="151" type="curve" smooth="yes"/>
			<point x="517" y="296" type="line"/>
			<point x="544" y="309"/>
			<point x="583" y="317"/>
			<point x="615" y="317" type="curve" smooth="yes"/>
			<point x="673" y="317"/>
			<point x="716" y="297"/>
			<point x="716" y="228" type="curve" smooth="yes"/>
			<point x="716" y="153" type="line" smooth="yes"/>
			<point x="716" y="116"/>
			<point x="709" y="106"/>
			<point x="685" y="102" type="curve" smooth="yes"/>
			<point x="658" y="98" type="line"/>
			<point x="658" y="0" type="line"/>
			<point x="1009" y="0" type="line"/>
			<point x="1009" y="98" type="line"/>
			<point x="984" y="104" type="line" smooth="yes"/>
			<point x="958" y="110"/>
			<point x="951" y="117"/>
			<point x="951" y="151" type="curve" smooth="yes"/>
			<point x="951" y="226" type="line" smooth="yes"/>
			<point x="951" y="384"/>
			<point x="830" y="452"/>
			<point x="695" y="452" type="curve" smooth="yes"/>
			<point x="609" y="452"/>
			<point x="549" y="433"/>
			<point x="517" y="419" type="curve"/>
			<point x="517" y="586" type="line"/>
			<point x="535" y="586" type="line" smooth="yes"/>
			<point x="588" y="586"/>
			<point x="613" y="558"/>
			<point x="635" y="487" type="curve"/>
			<point x="771" y="515" type="line"/>
			<point x="743" y="700" type="line"/>
			<point x="34" y="700" type="line"/>
			<point x="5" y="474" type="line"/>
			<point x="142" y="449" type="line"/>
			<point x="163" y="557"/>
			<point x="185" y="586"/>
			<point x="246" y="586" type="curve" smooth="yes"/>
			<point x="282" y="586" type="line"/>
			<point x="282" y="153" type="line" smooth="yes"/>
			<point x="282" y="116"/>
			<point x="275" y="106"/>
			<point x="251" y="102" type="curve" smooth="yes"/>
			<point x="224" y="98" type="line"/>
		</contour>
	</outline>
</glyph>
<glyph name="Be-cy" format="2">
	<unicode hex="0411"/>
	<advance width="713"/>
	<outline>
		<contour>
			<point x="40" y="0" type="line"/>
			<point x="384" y="0" type="line" smooth="yes"/>
			<point x="571" y="0"/>
			<point x="693" y="76"/>
			<point x="693" y="225" type="curve" smooth="yes"/>
			<point x="693" y="360"/>
			<point x="569" y="427"/>
			<point x="386" y="427" type="curve" smooth="yes"/>
			<point x="366" y="427"/>
			<point x="350" y="426"/>
			<point x="334" y="425" type="curve"/>
			<point x="334" y="586" type="line"/>
			<point x="420" y="586" type="line" smooth="yes"/>
			<point x="474" y="586"/>
			<point x="499" y="569"/>
			<point x="520" y="459" type="curve"/>
			<point x="656" y="483" type="line"/>
			<point x="628" y="700" type="line"/>
			<point x="40" y="700" type="line"/>
			<point x="40" y="602" type="line"/>
			<point x="66" y="598" type="line" smooth="yes"/>
			<point x="92" y="594"/>
			<point x="99" y="585"/>
			<point x="99" y="548" type="curve" smooth="yes"/>
			<point x="99" y="155" type="line" smooth="yes"/>
			<point x="99" y="115"/>
			<point x="92" y="109"/>
			<point x="68" y="104" type="curve" smooth="yes"/>
			<point x="40" y="98" type="line"/>
		</contour>
		<contour>
			<point x="379" y="106" type="curve" smooth="yes"/>
			<point x="362" y="106"/>
			<point x="349" y="109"/>
			<point x="334" y="113" type="curve"/>
			<point x="334" y="313" type="line"/>
			<point x="346" y="314"/>
			<point x="358" y="315"/>
			<point x="370" y="315" type="curve" smooth="yes"/>
			<point x="428" y="315"/>
			<point x="458" y="282"/>
			<point x="458" y="211" type="curve" smooth="yes"/>
			<point x="458" y="134"/>
			<point x="422" y="106"/>
		</contour>
	</outline>
</glyph>
<glyph name="Ge-cy" format="2">
	<unicode hex="0413"/>
	<advance width="640"/>
	<outline>
		<contour>
			<point x="40" y="0" type="line"/>
			<point x="392" y="0" type="line"/>
			<point x="392" y="98" type="line"/>
			<point x="366" y="104" type="line" smooth="yes"/>
			<point x="341" y="110"/>
			<point x="334" y="114"/>
			<point x="334" y="151" type="curve" smooth="yes"/>
			<point x="334" y="586" type="line"/>
			<point x="389" y="586" type="line" smooth="yes"/>
			<point x="442" y="586"/>
			<point x="468" y="559"/>
			<point x="489" y="449" type="curve"/>
			<point x="625" y="473" type="line"/>
			<point x="597" y="700" type="line"/>
			<point x="40" y="700" type="line"/>
			<point x="40" y="602" type="line"/>
			<point x="66" y="598" type="line" smooth="yes"/>
			<point x="92" y="594"/>
			<point x="99" y="585"/>
			<point x="99" y="548" type="curve" smooth="yes"/>
			<point x="99" y="155" type="line" smooth="yes"/>
			<point x="99" y="115"/>
			<point x="92" y="109"/>
			<point x="68" y="104" type="curve" smooth="yes"/>
			<point x="40" y="98" type="line"/>
		</contour>
	</outline>
	<anchor name="top" x="326" y="730"/>
</glyph>
<glyph name="Ef-cy" format="2">
	<unicode hex="0424"/>
	<advance width="943"/>
	<outline>
		<contour>
			<point x="296" y="-17" type="line"/>
			<point x="647" y="-17" type="line"/>
			<point x="647" y="81" type="line"/>
			<point x="622" y="87" type="line" smooth="yes"/>
			<point x="596" y="93"/>
			<point x="589" y="99"/>
			<point x="589" y="110" type="curve" smooth="yes"/>
			<point x="589" y="123" type="line"/>
			<point x="599" y="121"/>
			<point x="621" y="119"/>
			<point x="636" y="119" type="curve" smooth="yes"/>
			<point x="803" y="119"/>
			<point x="923" y="189"/>
			<point x="923" y="361" type="curve" smooth="yes"/>
			<point x="923" y="516"/>
			<point x="806" y="597"/>
			<point x="643" y="597" type="curve" smooth="yes"/>
			<point x="625" y="597"/>
			<point x="604" y="595"/>
			<point x="589" y="593" type="curve"/>
			<point x="589" y="602" type="line" smooth="yes"/>
			<point x="589" y="620"/>
			<point x="596" y="628"/>
			<point x="620" y="632" type="curve" smooth="yes"/>
			<point x="647" y="636" type="line"/>
			<point x="647" y="734" type="line"/>
			<point x="296" y="734" type="line"/>
			<point x="296" y="636" type="line"/>
			<point x="321" y="630" type="line" smooth="yes"/>
			<point x="347" y="624"/>
			<point x="354" y="616"/>
			<point x="354" y="605" type="curve" smooth="yes"/>
			<point x="354" y="593" type="line"/>
			<point x="339" y="595"/>
			<point x="318" y="597"/>
			<point x="300" y="597" type="curve" smooth="yes"/>
			<point x="137" y="597"/>
			<point x="20" y="516"/>
			<point x="20" y="361" type="curve" smooth="yes"/>
			<point x="20" y="189"/>
			<point x="140" y="119"/>
			<point x="307" y="119" type="curve" smooth="yes"/>
			<point x="322" y="119"/>
			<point x="344" y="121"/>
			<point x="354" y="123" type="curve"/>
			<point x="354" y="109" type="line" smooth="yes"/>
			<point x="354" y="101"/>
			<point x="347" y="92"/>
			<point x="323" y="87" type="curve" smooth="yes"/>
			<point x="296" y="81" type="line"/>
		</contour>
		<contour>
			<point x="325" y="221" type="curve" smooth="yes"/>
			<point x="274" y="221"/>
			<point x="239" y="263"/>
			<point x="239" y="355" type="curve" smooth="yes"/>
			<point x="239" y="458"/>
			<point x="276" y="499"/>
			<point x="325" y="499" type="curve" smooth="yes"/>
			<point x="337" y="499"/>
			<point x="347" y="498"/>
			<point x="354" y="496" type="curve"/>
			<point x="354" y="224" type="line"/>
			<point x="347" y="222"/>
			<point x="338" y="221"/>
		</contour>
		<contour>
			<point x="618" y="221" type="curve" smooth="yes"/>
			<point x="605" y="221"/>
			<point x="596" y="222"/>
			<point x="589" y="224" type="curve"/>
			<point x="589" y="497" type="line"/>
			<point x="601" y="499"/>
			<point x="608" y="499"/>
			<point x="618" y="499" type="curve" smooth="yes"/>
			<point x="667" y="499"/>
			<point x="704" y="458"/>
			<point x="704" y="365" type="curve" smooth="yes"/>
			<point x="704" y="263"/>
			<point x="669" y="221"/>
		</contour>
	</outline>
	<guideline x="354" y="123" angle="0"/>
</glyph>
<glyph name="Tse-cy" format="2">
	<unicode hex="0426"/>
	<advance width="883"/>
	<outline>
		<contour>
			<point x="742" y="-142" type="line"/>
			<point x="873" y="-127" type="line"/>
			<point x="873" y="133" type="line"/>
			<point x="748" y="133" type="line"/>
			<point x="748" y="547" type="line" smooth="yes"/>
			<point x="748" y="584"/>
			<point x="755" y="594"/>
			<point x="779" y="598" type="curve" smooth="yes"/>
			<point x="806" y="602" type="line"/>
			<point x="806" y="700" type="line"/>
			<point x="455" y="700" type="line"/>
			<point x="455" y="602" type="line"/>
			<point x="480" y="596" type="line" smooth="yes"/>
			<point x="506" y="590"/>
			<point x="513" y="583"/>
			<point x="513" y="549" type="curve" smooth="yes"/>
			<point x="513" y="133" type="line"/>
			<point x="334" y="133" type="line"/>
			<point x="334" y="545" type="line" smooth="yes"/>
			<point x="334" y="581"/>
			<point x="340" y="591"/>
			<point x="364" y="596" type="curve" smooth="yes"/>
			<point x="392" y="602" type="line"/>
			<point x="392" y="700" type="line"/>
			<point x="40" y="700" type="line"/>
			<point x="40" y="602" type="line"/>
			<point x="66" y="598" type="line" smooth="yes"/>
			<point x="92" y="594"/>
			<point x="99" y="585"/>
			<point x="99" y="548" type="curve" smooth="yes"/>
			<point x="99" y="155" type="line" smooth="yes"/>
			<point x="99" y="115"/>
			<point x="92" y="109"/>
			<point x="68" y="104" type="curve" smooth="yes"/>
			<point x="40" y="98" type="line"/>
			<point x="40" y="0" type="line"/>
			<point x="660" y="0" type="line" smooth="yes"/>
			<point x="701" y="0"/>
			<point x="720" y="-23"/>
			<point x="732" y="-88" type="curve" smooth="yes"/>
		</contour>
	</outline>
</glyph>
<glyph name="Iu-cy" format="2">
	<unicode hex="042E"/>
	<advance width="1150"/>
	<outline>
		<contour>
			<point x="750" y="-18" type="curve" smooth="yes"/>
			<point x="997" y="-18"/>
			<point x="1115" y="157"/>
			<point x="1115" y="362" type="curve" smooth="yes"/>
			<point x="1115" y="593"/>
			<point x="973" y="710"/>
			<point x="775" y="710" type="curve" smooth="yes"/>
			<point x="585" y="710"/>
			<point x="440" y="612"/>
			<point x="408" y="421" type="curve"/>
			<point x="334" y="421" type="line"/>
			<point x="334" y="545" type="line" smooth="yes"/>
			<point x="334" y="581"/>
			<point x="340" y="591"/>
			<point x="364" y="596" type="curve" smooth="yes"/>
			<point x="392" y="602" type="line"/>
			<point x="392" y="700" type="line"/>
			<point x="40" y="700" type="line"/>
			<point x="40" y="602" type="line"/>
			<point x="66" y="598" type="line" smooth="yes"/>
			<point x="92" y="594"/>
			<point x="99" y="585"/>
			<point x="99" y="548" type="curve" smooth="yes"/>
			<point x="99" y="155" type="line" smooth="yes"/>
			<point x="99" y="115"/>
			<point x="92" y="109"/>
			<point x="68" y="104" type="curve" smooth="yes"/>
			<point x="40" y="98" type="line"/>
			<point x="40" y="0" type="line"/>
			<point x="392" y="0" type="line"/>
			<point x="392" y="98" type="line"/>
			<point x="366" y="104" type="line" smooth="yes"/>
			<point x="341" y="110"/>
			<point x="334" y="114"/>
			<point x="334" y="151" type="curve" smooth="yes"/>
			<point x="334" y="288" type="line"/>
			<point x="403" y="288" type="line"/>
			<point x="419" y="111"/>
			<point x="527" y="-18"/>
		</contour>
		<contour>
			<point x="762" y="116" type="curve" smooth="yes"/>
			<point x="686" y="116"/>
			<point x="646" y="189"/>
			<point x="646" y="353" type="curve" smooth="yes"/>
			<point x="646" y="525"/>
			<point x="690" y="577"/>
			<point x="755" y="577" type="curve" smooth="yes"/>
			<point x="828" y="577"/>
			<point x="870" y="512"/>
			<point x="870" y="346" type="curve" smooth="yes"/>
			<point x="870" y="158"/>
			<point x="826" y="116"/>
		</contour>
	</outline>
	<anchor name="top" x="751" y="730"/>
</glyph>
